M48
; DRILL file {KiCad 5.1.9} date Sat May  1 18:20:33 2021
; FORMAT={-:-/ absolute / metric / decimal}
; #@! TF.CreationDate,2021-05-01T18:20:33+02:00
; #@! TF.GenerationSoftware,Kicad,Pcbnew,5.1.9
; #@! TF.FileFunction,Plated,1,2,PTH
FMAT,2
METRIC
T1C0.800
T2C0.950
T3C1.000
T4C1.200
%
G90
G05
T1
X41.91Y57.15
X41.91Y54.61
X41.91Y52.07
X41.91Y49.53
X41.91Y46.99
X41.91Y44.45
X41.91Y41.91
X41.91Y39.37
X54.61Y57.15
X54.61Y54.61
X54.61Y52.07
X54.61Y49.53
X54.61Y46.99
X54.61Y44.45
X54.61Y41.91
X54.61Y39.37
T2
X21.59Y52.03
X21.59Y49.53
X21.59Y47.03
X21.59Y44.53
T3
X74.93Y55.88
X74.93Y53.34
X74.93Y50.8
X74.93Y48.26
X74.93Y45.72
X74.93Y43.18
X74.93Y40.64
X74.93Y38.1
X74.93Y35.56
X74.93Y33.02
X74.93Y30.48
X74.93Y27.94
X74.93Y25.4
X74.93Y22.86
X74.93Y20.32
X90.17Y55.88
X90.17Y53.34
X90.17Y50.8
X90.17Y48.26
X90.17Y45.72
X90.17Y43.18
X90.17Y40.64
X90.17Y38.1
X90.17Y35.56
X90.17Y33.02
X90.17Y30.48
X90.17Y27.94
X90.17Y25.4
X90.17Y22.86
X90.17Y20.32
T4
X13.97Y36.71
X13.97Y29.21
T0
M30
