<?xml version="1.0" standalone="no"?>
<!DOCTYPE svg PUBLIC "-//W3C//DTD SVG 1.1//EN"
"http://www.w3.org/Graphics/SVG/1.1/DTD/svg11.dtd">
<svg width="260.712" height="255.912" viewBox="0 0 5431.5 5331.5" version="1.1"
xmlns="http://www.w3.org/2000/svg"
xmlns:xlink="http://www.w3.org/1999/xlink">
<polyline points="2494.09,655.4 2493.45,655.788 2482.42,663.374 2481.67,663.946 2471.63,672.524 2471.12,673.004 2462.05,682.56 2461.55,683.15 2453.46,693.69 2452.79,694.668 2449.66,699.77" style="stroke:rgb(255,0,0);stroke-width:15.748031;fill:none;stroke-opacity:0.5;stroke-linecap:round;stroke-linejoin:round;;fill:none"/>
<polyline points="2494.09,655.4 2493.45,655.788 2482.42,663.374 2481.67,663.946 2471.63,672.524 2471.12,673.004 2462.05,682.56 2461.55,683.15 2453.46,693.69 2452.79,694.668 2449.66,699.77" style="stroke:rgb(0,0,0);stroke-width:1px;fill:none;stroke-opacity:1;stroke-linecap:round;stroke-linejoin:round;;fill:none"/>
<polyline points="3360.38,4927.43 3354.35,4923.29 3353.4,4922.56 3334.57,4906.47 3334.01,4905.95 3317.01,4888.03 3316.42,4887.34 3303.67,4870.72" style="stroke:rgb(255,0,0);stroke-width:15.748031;fill:none;stroke-opacity:0.5;stroke-linecap:round;stroke-linejoin:round;;fill:none"/>
<polyline points="3360.38,4927.43 3354.35,4923.29 3353.4,4922.56 3334.57,4906.47 3334.01,4905.95 3317.01,4888.03 3316.42,4887.34 3303.67,4870.72" style="stroke:rgb(0,0,0);stroke-width:1px;fill:none;stroke-opacity:1;stroke-linecap:round;stroke-linejoin:round;;fill:none"/>
<polyline points="3456.4,4933.98 3455.01,4934.28 3453.61,4934.5 3428.92,4937.09 3428.09,4937.14 3403.4,4937.14 3402.58,4937.09 3377.88,4934.5 3376.49,4934.28 3375.1,4933.98" style="stroke:rgb(255,0,0);stroke-width:15.748031;fill:none;stroke-opacity:0.5;stroke-linecap:round;stroke-linejoin:round;;fill:none"/>
<polyline points="3456.4,4933.98 3455.01,4934.28 3453.61,4934.5 3428.92,4937.09 3428.09,4937.14 3403.4,4937.14 3402.58,4937.09 3377.88,4934.5 3376.49,4934.28 3375.1,4933.98" style="stroke:rgb(0,0,0);stroke-width:1px;fill:none;stroke-opacity:1;stroke-linecap:round;stroke-linejoin:round;;fill:none"/>
<polyline points="2449.65,699.792 2452.79,694.668 2453.46,693.69 2461.55,683.15 2462.05,682.56 2471.12,673.004 2471.63,672.524 2481.67,663.946 2482.42,663.374 2493.45,655.788 2493.97,655.473" style="stroke:rgb(255,0,0);stroke-width:15.748031;fill:none;stroke-opacity:0.5;stroke-linecap:round;stroke-linejoin:round;;fill:none"/>
<polyline points="2449.65,699.792 2452.79,694.668 2453.46,693.69 2461.55,683.15 2462.05,682.56 2471.12,673.004 2471.63,672.524 2481.67,663.946 2482.42,663.374 2493.45,655.788 2493.97,655.473" style="stroke:rgb(0,0,0);stroke-width:1px;fill:none;stroke-opacity:1;stroke-linecap:round;stroke-linejoin:round;;fill:none"/>
<polyline points="4780.15,1008.59 4797.87,1023.72 4798.66,1024.47 4815.67,1042.39 4816.47,1043.34 4821.66,1050.09" style="stroke:rgb(255,0,0);stroke-width:15.748031;fill:none;stroke-opacity:0.5;stroke-linecap:round;stroke-linejoin:round;;fill:none"/>
<polyline points="4780.15,1008.59 4797.87,1023.72 4798.66,1024.47 4815.67,1042.39 4816.47,1043.34 4821.66,1050.09" style="stroke:rgb(0,0,0);stroke-width:1px;fill:none;stroke-opacity:1;stroke-linecap:round;stroke-linejoin:round;;fill:none"/>
<polyline points="4834.08,1076.89 4836.09,1089.62 4836.21,1090.67 4837.5,1115.36 4837.5,1116.13 4836.21,1140.82 4836.09,1141.87 4834.08,1154.6" style="stroke:rgb(255,0,0);stroke-width:15.748031;fill:none;stroke-opacity:0.5;stroke-linecap:round;stroke-linejoin:round;;fill:none"/>
<polyline points="4834.08,1076.89 4836.09,1089.62 4836.21,1090.67 4837.5,1115.36 4837.5,1116.13 4836.21,1140.82 4836.09,1141.87 4834.08,1154.6" style="stroke:rgb(0,0,0);stroke-width:1px;fill:none;stroke-opacity:1;stroke-linecap:round;stroke-linejoin:round;;fill:none"/>
<polyline points="3303.67,4870.72 3316.42,4887.34 3317.01,4888.03 3334.01,4905.95 3334.57,4906.47 3353.4,4922.56 3354.35,4923.29 3360.39,4927.44" style="stroke:rgb(255,0,0);stroke-width:15.748031;fill:none;stroke-opacity:0.5;stroke-linecap:round;stroke-linejoin:round;;fill:none"/>
<polyline points="3303.67,4870.72 3316.42,4887.34 3317.01,4888.03 3334.01,4905.95 3334.57,4906.47 3353.4,4922.56 3354.35,4923.29 3360.39,4927.44" style="stroke:rgb(0,0,0);stroke-width:1px;fill:none;stroke-opacity:1;stroke-linecap:round;stroke-linejoin:round;;fill:none"/>
<polyline points="3375.08,4933.98 3376.49,4934.28 3377.88,4934.5 3402.58,4937.09 3403.4,4937.14 3428.09,4937.14 3428.92,4937.09 3453.61,4934.5 3455.01,4934.28 3456.42,4933.98" style="stroke:rgb(255,0,0);stroke-width:15.748031;fill:none;stroke-opacity:0.5;stroke-linecap:round;stroke-linejoin:round;;fill:none"/>
<polyline points="3375.08,4933.98 3376.49,4934.28 3377.88,4934.5 3402.58,4937.09 3403.4,4937.14 3428.09,4937.14 3428.92,4937.09 3453.61,4934.5 3455.01,4934.28 3456.42,4933.98" style="stroke:rgb(0,0,0);stroke-width:1px;fill:none;stroke-opacity:1;stroke-linecap:round;stroke-linejoin:round;;fill:none"/>
<polyline points="4821.66,1050.1 4816.47,1043.34 4815.67,1042.39 4798.66,1024.47 4797.87,1023.72 4780.16,1008.6" style="stroke:rgb(255,0,0);stroke-width:15.748031;fill:none;stroke-opacity:0.5;stroke-linecap:round;stroke-linejoin:round;;fill:none"/>
<polyline points="4821.66,1050.1 4816.47,1043.34 4815.67,1042.39 4798.66,1024.47 4797.87,1023.72 4780.16,1008.6" style="stroke:rgb(0,0,0);stroke-width:1px;fill:none;stroke-opacity:1;stroke-linecap:round;stroke-linejoin:round;;fill:none"/>
<polyline points="4834.07,1154.63 4836.09,1141.87 4836.21,1140.82 4837.5,1116.13 4837.5,1115.36 4836.21,1090.67 4836.09,1089.62 4834.07,1076.87" style="stroke:rgb(255,0,0);stroke-width:15.748031;fill:none;stroke-opacity:0.5;stroke-linecap:round;stroke-linejoin:round;;fill:none"/>
<polyline points="4834.07,1154.63 4836.09,1141.87 4836.21,1140.82 4837.5,1116.13 4837.5,1115.36 4836.21,1090.67 4836.09,1089.62 4834.07,1076.87" style="stroke:rgb(0,0,0);stroke-width:1px;fill:none;stroke-opacity:1;stroke-linecap:round;stroke-linejoin:round;;fill:none"/>
</svg>
