M48
; DRILL file {KiCad 5.1.9} date Fri May  7 15:34:10 2021
; FORMAT={-:-/ absolute / metric / decimal}
; #@! TF.CreationDate,2021-05-07T15:34:10+02:00
; #@! TF.GenerationSoftware,Kicad,Pcbnew,5.1.9
; #@! TF.FileFunction,Plated,1,2,PTH
FMAT,2
METRIC
T1C0.400
T2C0.700
T3C0.800
T4C0.950
T5C1.000
T6C1.100
T7C1.300
T8C1.520
%
G90
G05
T1
X114.3Y-109.22
X114.3Y-119.38
X135.89Y-72.39
X138.43Y-73.66
X161.29Y-73.66
X162.56Y-72.39
T2
X166.37Y-86.36
X166.37Y-88.9
X166.37Y-91.44
X170.18Y-86.36
X170.18Y-88.9
X170.18Y-91.44
T3
X140.97Y-100.33
X140.97Y-105.41
X146.05Y-63.58
X146.05Y-68.58
X148.59Y-76.2
X148.59Y-78.74
X148.59Y-81.28
X148.59Y-83.82
X148.59Y-86.36
X148.59Y-88.9
X148.59Y-91.44
X148.59Y-93.98
X151.13Y-100.33
X151.13Y-105.41
X156.21Y-64.85
X156.21Y-69.85
X161.29Y-76.2
X161.29Y-78.74
X161.29Y-81.28
X161.29Y-83.82
X161.29Y-86.36
X161.29Y-88.9
X161.29Y-91.44
X161.29Y-93.98
X165.1Y-104.14
X170.1Y-104.14
T4
X142.24Y-81.28
X142.24Y-83.78
X142.24Y-86.28
X142.24Y-88.78
T5
X118.11Y-77.47
X118.11Y-80.01
X118.11Y-82.55
X118.11Y-85.09
X118.11Y-87.63
X118.11Y-90.17
X118.11Y-92.71
X118.11Y-95.25
X118.11Y-97.79
X118.11Y-100.33
X118.11Y-102.87
X118.11Y-105.41
X118.11Y-107.95
X118.11Y-110.49
X118.11Y-113.03
X133.35Y-77.47
X133.35Y-80.01
X133.35Y-82.55
X133.35Y-85.09
X133.35Y-87.63
X133.35Y-90.17
X133.35Y-92.71
X133.35Y-95.25
X133.35Y-97.79
X133.35Y-100.33
X133.35Y-102.87
X133.35Y-105.41
X133.35Y-107.95
X133.35Y-110.49
X133.35Y-113.03
T6
X149.86Y-59.69
X152.4Y-59.69
X154.94Y-59.69
T7
X110.49Y-58.42
X110.49Y-63.42
X122.99Y-58.42
X122.99Y-63.42
X127.0Y-58.42
X127.0Y-63.42
X139.5Y-58.42
X139.5Y-63.42
T8
X147.32Y-115.57
X152.4Y-115.57
X162.56Y-115.57
X167.64Y-115.57
X168.91Y-63.5
X168.91Y-68.58
T0
M30
