<?xml version="1.0" standalone="no"?>
<!DOCTYPE svg PUBLIC "-//W3C//DTD SVG 1.1//EN"
"http://www.w3.org/Graphics/SVG/1.1/DTD/svg11.dtd">
<svg width="260.16" height="254.4" viewBox="0 0 5420 5300" version="1.1"
xmlns="http://www.w3.org/2000/svg"
xmlns:xlink="http://www.w3.org/1999/xlink">
<circle cx="4220" cy="1400" r="15.748" style=""/>
<circle cx="4120" cy="1500" r="15.748" style=""/>
<circle cx="2320" cy="1500" r="15.748" style=""/>
<circle cx="2120" cy="1400" r="15.748" style=""/>
<circle cx="420" cy="4300" r="15.748" style=""/>
<circle cx="420" cy="5100" r="15.748" style=""/>
<circle cx="4820" cy="2500" r="27.5591" style=""/>
<circle cx="4820" cy="2700" r="27.5591" style=""/>
<circle cx="4820" cy="2900" r="27.5591" style=""/>
<circle cx="4520" cy="2900" r="27.5591" style=""/>
<circle cx="4520" cy="2700" r="27.5591" style=""/>
<circle cx="4520" cy="2500" r="27.5591" style=""/>
<circle cx="4813.7" cy="3900" r="31.4961" style=""/>
<circle cx="4420" cy="3900" r="31.4961" style=""/>
<circle cx="4120" cy="3100" r="31.4961" style=""/>
<circle cx="4120" cy="2900" r="31.4961" style=""/>
<circle cx="4120" cy="2700" r="31.4961" style=""/>
<circle cx="4120" cy="2500" r="31.4961" style=""/>
<circle cx="4120" cy="2300" r="31.4961" style=""/>
<circle cx="4120" cy="2100" r="31.4961" style=""/>
<circle cx="4120" cy="1900" r="31.4961" style=""/>
<circle cx="4120" cy="1700" r="31.4961" style=""/>
<circle cx="3720" cy="1200" r="31.4961" style=""/>
<circle cx="3720" cy="806.299" r="31.4961" style=""/>
<circle cx="2920" cy="706.299" r="31.4961" style=""/>
<circle cx="2920" cy="1100" r="31.4961" style=""/>
<circle cx="3120" cy="1700" r="31.4961" style=""/>
<circle cx="3120" cy="1900" r="31.4961" style=""/>
<circle cx="3120" cy="2100" r="31.4961" style=""/>
<circle cx="3120" cy="2300" r="31.4961" style=""/>
<circle cx="3120" cy="2500" r="31.4961" style=""/>
<circle cx="3120" cy="2700" r="31.4961" style=""/>
<circle cx="3120" cy="2900" r="31.4961" style=""/>
<circle cx="3120" cy="3100" r="31.4961" style=""/>
<circle cx="3320" cy="3600" r="31.4961" style=""/>
<circle cx="3320" cy="4000" r="31.4961" style=""/>
<circle cx="2520" cy="3600" r="31.4961" style=""/>
<circle cx="2520" cy="4000" r="31.4961" style=""/>
<circle cx="2620" cy="2100" r="37.4016" style=""/>
<circle cx="2620" cy="2296.85" r="37.4016" style=""/>
<circle cx="2620" cy="2493.7" r="37.4016" style=""/>
<circle cx="2620" cy="2690.55" r="37.4016" style=""/>
<circle cx="1920" cy="1800" r="39.3701" style=""/>
<circle cx="1920" cy="2000" r="39.3701" style=""/>
<circle cx="1920" cy="2200" r="39.3701" style=""/>
<circle cx="1920" cy="2400" r="39.3701" style=""/>
<circle cx="1920" cy="2600" r="39.3701" style=""/>
<circle cx="1920" cy="2800" r="39.3701" style=""/>
<circle cx="1920" cy="3000" r="39.3701" style=""/>
<circle cx="1920" cy="3200" r="39.3701" style=""/>
<circle cx="1920" cy="3400" r="39.3701" style=""/>
<circle cx="1920" cy="3600" r="39.3701" style=""/>
<circle cx="1920" cy="3800" r="39.3701" style=""/>
<circle cx="1920" cy="4000" r="39.3701" style=""/>
<circle cx="1920" cy="4200" r="39.3701" style=""/>
<circle cx="1920" cy="4400" r="39.3701" style=""/>
<circle cx="1920" cy="4600" r="39.3701" style=""/>
<circle cx="720" cy="4600" r="39.3701" style=""/>
<circle cx="720" cy="4400" r="39.3701" style=""/>
<circle cx="720" cy="4200" r="39.3701" style=""/>
<circle cx="720" cy="4000" r="39.3701" style=""/>
<circle cx="720" cy="3800" r="39.3701" style=""/>
<circle cx="720" cy="3600" r="39.3701" style=""/>
<circle cx="720" cy="3400" r="39.3701" style=""/>
<circle cx="720" cy="3200" r="39.3701" style=""/>
<circle cx="720" cy="3000" r="39.3701" style=""/>
<circle cx="720" cy="2800" r="39.3701" style=""/>
<circle cx="720" cy="2600" r="39.3701" style=""/>
<circle cx="720" cy="2400" r="39.3701" style=""/>
<circle cx="720" cy="2200" r="39.3701" style=""/>
<circle cx="720" cy="2000" r="39.3701" style=""/>
<circle cx="720" cy="1800" r="39.3701" style=""/>
<circle cx="3620" cy="400" r="43.3071" style=""/>
<circle cx="3420" cy="400" r="43.3071" style=""/>
<circle cx="3220" cy="400" r="43.3071" style=""/>
<circle cx="2404.25" cy="300" r="51.1811" style=""/>
<circle cx="2404.25" cy="693.701" r="51.1811" style=""/>
<circle cx="1420" cy="300" r="51.1811" style=""/>
<circle cx="1420" cy="693.701" r="51.1811" style=""/>
<circle cx="1104.25" cy="693.701" r="51.1811" style=""/>
<circle cx="1104.25" cy="300" r="51.1811" style=""/>
<circle cx="120" cy="300" r="51.1811" style=""/>
<circle cx="120" cy="693.701" r="51.1811" style=""/>
<circle cx="4720" cy="700" r="59.8425" style=""/>
<circle cx="4720" cy="1100" r="59.8425" style=""/>
<circle cx="3020" cy="4800" r="59.8425" style=""/>
<circle cx="3420" cy="4800" r="59.8425" style=""/>
<circle cx="4220" cy="4800" r="59.8425" style=""/>
<circle cx="4620" cy="4800" r="59.8425" style=""/>
</svg>
