<?xml version="1.0" standalone="no"?>
<!DOCTYPE svg PUBLIC "-//W3C//DTD SVG 1.1//EN"
"http://www.w3.org/Graphics/SVG/1.1/DTD/svg11.dtd">
<svg width="260.16" height="254.4" viewBox="0 0 5420 5300" version="1.1"
xmlns="http://www.w3.org/2000/svg"
xmlns:xlink="http://www.w3.org/1999/xlink">
<g fill-rule="evenodd"><path d="M 0.398996,701.314 L 0.398996,686.087 L 3.56478,671.194 L 9.75799,657.283 L 18.708,644.965 L 30.0235,634.776 L 43.2101,627.163 L 57.6915,622.458 L 72.8346,620.866 L 167.165,620.866 L 182.309,622.458 L 196.79,627.163 L 209.976,634.776 L 221.292,644.965 L 230.242,657.283 L 232.433,662.204 L 991.819,662.204 L 994.01,657.283 L 1002.96,644.965 L 1014.28,634.776 L 1027.46,627.163 L 1041.94,622.458 L 1057.09,620.866 L 1151.42,620.866 L 1166.56,622.458 L 1181.04,627.163 L 1194.23,634.776 L 1205.54,644.965 L 1214.49,657.283 L 1220.69,671.194 L 1223.85,686.087 L 1223.85,701.314 L 1220.69,716.208 L 1214.49,730.118 L 1205.54,742.437 L 1194.23,752.625 L 1181.04,760.239 L 1166.56,764.944 L 1151.42,766.535 L 1057.09,766.535 L 1041.94,764.944 L 1027.46,760.239 L 1014.28,752.625 L 1002.96,742.437 L 994.01,730.118 L 991.819,725.196 L 232.433,725.196 L 230.242,730.118 L 221.292,742.437 L 209.976,752.625 L 196.79,760.239 L 182.309,764.944 L 167.165,766.535 L 151.496,766.535 L 151.496,4822.37 L 174.691,4845.57 L 1541.28,4845.57 L 1813.89,4573.81 L 1825.25,4569.11 L 1865.85,4568.5 L 1869.04,4562.97 L 1877.85,4553.19 L 1888.5,4545.45 L 1900.53,4540.09 L 1913.42,4537.35 L 1926.58,4537.35 L 1939.47,4540.09 L 1951.5,4545.45 L 1962.15,4553.19 L 1970.96,4562.97 L 1977.55,4574.38 L 1981.62,4586.9 L 1982.99,4600 L 1981.62,4613.1 L 1977.55,4625.62 L 1970.96,4637.03 L 1962.15,4646.81 L 1951.5,4654.55 L 1939.47,4659.91 L 1926.58,4662.65 L 1913.42,4662.65 L 1900.53,4659.91 L 1888.5,4654.55 L 1877.85,4646.81 L 1869.04,4637.03 L 1865.85,4631.5 L 1844.44,4631.5 L 1576.6,4899.33 L 1566.38,4906.16 L 1554.33,4908.56 L 161.644,4908.56 L 151.911,4907.02 L 139.372,4899.33 L 97.7284,4857.69 L 90.9013,4847.47 L 88.5039,4835.42 L 88.5038,766.535 L 72.8346,766.535 L 57.6915,764.944 L 43.2101,760.239 L 30.0235,752.625 L 18.708,742.437 L 9.75799,730.118 L 3.56478,716.208 L 0.398996,701.314 z " style="fill-opacity:1.000000;fill:rgb(103,198,105);stroke:rgb(0,0,0);stroke-width:2"/></g>
<g fill-rule="evenodd"><path d="M 0.398996,307.613 L 0.398996,292.387 L 3.56478,277.493 L 9.75799,263.583 L 18.708,251.264 L 30.0235,241.076 L 43.2101,233.462 L 57.6915,228.757 L 72.8346,227.165 L 167.165,227.165 L 182.309,228.757 L 196.79,233.462 L 209.976,241.076 L 221.292,251.264 L 230.242,263.583 L 232.433,268.504 L 991.819,268.504 L 994.01,263.583 L 1002.96,251.264 L 1014.28,241.076 L 1027.46,233.462 L 1041.94,228.757 L 1057.09,227.165 L 1151.42,227.165 L 1166.56,228.757 L 1181.04,233.462 L 1194.23,241.076 L 1205.54,251.264 L 1214.49,263.583 L 1216.69,268.504 L 1307.57,268.504 L 1309.76,263.583 L 1318.71,251.264 L 1330.02,241.076 L 1343.21,233.462 L 1357.69,228.757 L 1372.83,227.165 L 1467.17,227.165 L 1482.31,228.757 L 1496.79,233.462 L 1509.98,241.076 L 1521.29,251.264 L 1530.24,263.583 L 1532.43,268.504 L 2291.82,268.504 L 2294.01,263.583 L 2302.96,251.264 L 2314.28,241.076 L 2327.46,233.462 L 2341.94,228.757 L 2357.09,227.165 L 2432.54,227.165 L 2581.98,77.7289 L 2589.95,71.9368 L 2599.32,68.8917 L 4620,68.5039 L 4634.3,71.9368 L 4642.27,77.7289 L 5142.27,577.729 L 5149.1,587.947 L 5151.5,600 L 5150.89,2206.14 L 5149.1,2212.05 L 5142.27,2222.27 L 4874.11,2490.43 L 4875.12,2500 L 4873.91,2511.46 L 4870.35,2522.42 L 4864.59,2532.4 L 4856.88,2540.96 L 4851.5,2544.87 L 4851.5,2655.13 L 4856.88,2659.04 L 4864.59,2667.6 L 4870.35,2677.58 L 4873.91,2688.54 L 4875.12,2700 L 4873.91,2711.46 L 4870.35,2722.42 L 4864.59,2732.4 L 4856.88,2740.96 L 4851.5,2744.87 L 4851.5,2855.13 L 4856.88,2859.04 L 4864.59,2867.6 L 4870.35,2877.58 L 4873.91,2888.54 L 4875.12,2900 L 4873.91,2911.46 L 4870.35,2922.42 L 4864.59,2932.4 L 4856.88,2940.96 L 4847.56,2947.73 L 4837.03,2952.42 L 4825.76,2954.82 L 4814.24,2954.82 L 4802.97,2952.42 L 4792.44,2947.73 L 4783.12,2940.96 L 4775.41,2932.4 L 4769.65,2922.42 L 4766.09,2911.46 L 4764.88,2900 L 4766.09,2888.54 L 4769.65,2877.58 L 4775.41,2867.6 L 4783.12,2859.04 L 4788.5,2855.13 L 4788.5,2744.87 L 4783.12,2740.96 L 4775.41,2732.4 L 4769.65,2722.42 L 4766.09,2711.46 L 4764.88,2700 L 4766.09,2688.54 L 4769.65,2677.58 L 4775.41,2667.6 L 4783.12,2659.04 L 4788.5,2655.13 L 4788.5,2544.87 L 4783.12,2540.96 L 4775.41,2532.4 L 4769.65,2522.42 L 4766.09,2511.46 L 4764.88,2500 L 4766.09,2488.54 L 4769.65,2477.58 L 4775.41,2467.6 L 4783.12,2459.04 L 4792.44,2452.27 L 4802.97,2447.58 L 4814.24,2445.18 L 4829.48,2445.97 L 5088.5,2186.95 L 5088.5,613.046 L 4606.95,131.496 L 3651.5,131.496 L 3651.5,328.635 L 3657.5,331.308 L 3670.18,340.524 L 3680.68,352.176 L 3688.52,365.755 L 3693.36,380.666 L 3695,403.74 L 3693.36,419.334 L 3688.52,434.245 L 3680.68,447.824 L 3670.18,459.476 L 3657.5,468.692 L 3643.18,475.069 L 3627.84,478.329 L 3612.16,478.329 L 3596.82,475.069 L 3582.5,468.692 L 3569.82,459.476 L 3559.32,447.824 L 3551.48,434.245 L 3546.64,419.334 L 3545,396.26 L 3546.64,380.666 L 3551.48,365.755 L 3559.32,352.176 L 3569.82,340.524 L 3582.5,331.308 L 3588.5,328.635 L 3588.5,131.496 L 2617.3,131.496 L 2501.33,247.466 L 2505.54,251.264 L 2514.49,263.583 L 2520.69,277.493 L 2523.85,292.387 L 2523.85,307.613 L 2520.69,322.507 L 2514.49,336.417 L 2508.8,344.257 L 2742.27,577.729 L 2749.1,587.947 L 2751.5,600 L 2751.5,1068.5 L 2857.01,1068.5 L 2857.01,1037.01 L 2982.99,1037.01 L 2982.99,1162.99 L 2857.01,1162.99 L 2857.01,1131.5 L 2551.5,1131.5 L 2551.5,1768.5 L 2820,1768.5 L 2829.73,1770.05 L 2842.27,1777.73 L 2933.05,1868.5 L 3065.85,1868.5 L 3069.04,1862.97 L 3077.85,1853.19 L 3088.5,1845.45 L 3100.53,1840.09 L 3113.42,1837.35 L 3126.58,1837.35 L 3139.47,1840.09 L 3151.5,1845.45 L 3162.15,1853.19 L 3170.96,1862.97 L 3177.55,1874.38 L 3181.62,1886.9 L 3182.99,1900 L 3181.62,1913.1 L 3177.55,1925.62 L 3170.96,1937.03 L 3162.15,1946.81 L 3151.5,1954.55 L 3139.47,1959.91 L 3126.58,1962.65 L 3113.42,1962.65 L 3100.53,1959.91 L 3088.5,1954.55 L 3077.85,1946.81 L 3069.04,1937.03 L 3065.85,1931.5 L 2920,1931.5 L 2910.27,1929.95 L 2897.73,1922.27 L 2806.95,1831.5 L 1974.15,1831.5 L 1970.96,1837.03 L 1962.15,1846.81 L 1951.5,1854.55 L 1939.47,1859.91 L 1926.58,1862.65 L 1913.42,1862.65 L 1900.53,1859.91 L 1888.5,1854.55 L 1877.85,1846.81 L 1869.04,1837.03 L 1862.45,1825.62 L 1858.38,1813.1 L 1857.01,1800 L 1858.38,1786.9 L 1862.45,1774.38 L 1869.04,1762.97 L 1877.85,1753.19 L 1888.5,1745.45 L 1900.53,1740.09 L 1913.42,1737.35 L 1926.58,1737.35 L 1939.47,1740.09 L 1951.5,1745.45 L 1962.15,1753.19 L 1970.96,1762.97 L 1974.15,1768.5 L 2488.5,1768.5 L 2489.11,1093.86 L 2490.9,1087.95 L 2497.73,1077.73 L 2502.5,1073.81 L 2513.86,1069.11 L 2688.5,1068.5 L 2688.5,613.046 L 2448.29,372.835 L 2357.09,372.835 L 2341.94,371.243 L 2327.46,366.538 L 2314.28,358.924 L 2302.96,348.736 L 2294.01,336.417 L 2291.82,331.496 L 1532.43,331.496 L 1530.24,336.417 L 1521.29,348.736 L 1509.98,358.924 L 1496.79,366.538 L 1482.31,371.243 L 1467.17,372.835 L 1372.83,372.835 L 1357.69,371.243 L 1343.21,366.538 L 1330.02,358.924 L 1318.71,348.736 L 1309.76,336.417 L 1307.57,331.496 L 1216.68,331.496 L 1214.49,336.417 L 1205.54,348.736 L 1194.23,358.924 L 1181.04,366.538 L 1166.56,371.243 L 1151.42,372.835 L 1057.09,372.835 L 1041.94,371.243 L 1027.46,366.538 L 1014.28,358.924 L 1002.96,348.736 L 994.01,336.417 L 991.819,331.496 L 232.433,331.496 L 230.242,336.417 L 221.292,348.736 L 209.976,358.924 L 196.79,366.538 L 182.309,371.243 L 167.165,372.835 L 72.8346,372.835 L 57.6915,371.243 L 43.2101,366.538 L 30.0235,358.924 L 18.708,348.736 L 9.75799,336.417 L 3.56478,322.507 L 0.398996,307.613 z " style="fill-opacity:1.000000;fill:rgb(115,81,255);stroke:rgb(0,0,0);stroke-width:2"/></g>
<g fill-rule="evenodd"><path d="M 30,0 L 5410,0 L 5417.07,2.92893 L 5420,10 L 5420,5290 L 5417.07,5297.07 L 5410,5300 L 30,5300 L 24.4443,5298.31 L 21.6853,5295.56 L 20,5290 L 20,809.068 L 21.5254,803.759 L 25.6361,800.07 L 31.0782,799.126 L 43.0941,802.764 L 47.0451,806.447 L 48.504,811.648 L 48.1565,4835.41 L 49.5371,4849.43 L 53.6259,4862.91 L 60.2642,4875.33 L 69.1992,4886.22 L 110.845,4927.86 L 121.729,4936.8 L 134.152,4943.44 L 147.626,4947.52 L 161.645,4948.9 L 1554.33,4948.9 L 1568.35,4947.52 L 1581.82,4943.44 L 1594.24,4936.8 L 1605.13,4927.86 L 1848.75,4683.96 L 1853.53,4682.18 L 1858.56,4682.99 L 1871.22,4691.27 L 1889.96,4699.03 L 1909.86,4702.99 L 1930.14,4702.99 L 1950.04,4699.03 L 1968.78,4691.27 L 1985.65,4680 L 2000,4665.65 L 2011.27,4648.78 L 2019.03,4630.04 L 2022.99,4610.14 L 2022.99,4589.86 L 2019.03,4569.96 L 2011.27,4551.21 L 2000,4534.34 L 1985.65,4520 L 1966.77,4507.2 L 1963.76,4500.89 L 1964.07,4497.35 L 1966.77,4492.8 L 1985.65,4480 L 2000,4465.65 L 2011.27,4448.78 L 2019.03,4430.04 L 2022.99,4410.14 L 2022.99,4389.86 L 2019.03,4369.96 L 2011.27,4351.21 L 2000,4334.35 L 1985.65,4320 L 1966.77,4307.2 L 1963.76,4300.89 L 1964.7,4295.68 L 1966.77,4292.8 L 1985.65,4280 L 2000,4265.65 L 2011.27,4248.78 L 2019.03,4230.04 L 2022.99,4210.14 L 2022.99,4189.86 L 2019.03,4169.96 L 2011.27,4151.21 L 2000,4134.34 L 1985.65,4120 L 1966.77,4107.2 L 1963.76,4100.89 L 1964.07,4097.36 L 1966.77,4092.8 L 1985.65,4080 L 2000,4065.65 L 2011.27,4048.78 L 2019.03,4030.04 L 2022.99,4010.14 L 2022.99,3989.85 L 2019.03,3969.95 L 2011.27,3951.21 L 2000,3934.34 L 1985.65,3920 L 1966.77,3907.19 L 1963.76,3900.89 L 1964.07,3897.35 L 1966.77,3892.8 L 1985.65,3880 L 2000,3865.65 L 2011.27,3848.78 L 2019.03,3830.04 L 2022.99,3810.14 L 2022.99,3789.86 L 2019.03,3769.96 L 2011.27,3751.21 L 2000,3734.35 L 1985.65,3720 L 1966.78,3707.2 L 1963.76,3700.89 L 1964.07,3697.35 L 1966.77,3692.8 L 1985.65,3680 L 2000,3665.65 L 2011.27,3648.78 L 2019.03,3630.04 L 2022.99,3610.14 L 2022.99,3589.86 L 2019.03,3569.96 L 2011.27,3551.21 L 2000,3534.34 L 1985.65,3520 L 1966.77,3507.2 L 1964.07,3502.65 L 1964.07,3497.35 L 1966.77,3492.8 L 1985.65,3480 L 1995.21,3471.99 L 2286.24,3471.5 L 2290.78,3472.59 L 2415.32,3596.7 L 2416.81,3600.31 L 2417.01,3610.14 L 2420.97,3630.04 L 2428.73,3648.78 L 2440,3665.65 L 2454.34,3680 L 2471.22,3691.27 L 2489.96,3699.03 L 2509.86,3702.99 L 2530.14,3702.99 L 2550.04,3699.03 L 2568.78,3691.27 L 2585.66,3680 L 2592.74,3673.18 L 2598.3,3671.5 L 2801.46,3672.26 L 3180.59,4050.8 L 3191.48,4059.73 L 3203.9,4066.37 L 3217.38,4070.46 L 3245.53,4072.26 L 3254.34,4080 L 3271.21,4091.27 L 3289.96,4099.03 L 3309.86,4102.99 L 3330.14,4102.99 L 3350.04,4099.03 L 3368.78,4091.27 L 3385.65,4080 L 3400,4065.65 L 3411.27,4048.78 L 3419.03,4030.04 L 3422.99,4010.14 L 3422.99,3989.85 L 3419.03,3969.96 L 3411.27,3951.21 L 3400,3934.34 L 3385.65,3920 L 3368.78,3908.73 L 3350.04,3900.97 L 3330.14,3897.01 L 3309.86,3897.01 L 3289.96,3900.97 L 3271.22,3908.73 L 3256.94,3917.56 L 3251.84,3917.5 L 3248.75,3916.04 L 2882.19,3549.2 L 2871.31,3540.27 L 2858.88,3533.62 L 2845.41,3529.54 L 2831.39,3528.16 L 2594.47,3527.74 L 2585.65,3520 L 2568.78,3508.73 L 2550.04,3500.97 L 2530.14,3497.01 L 2520.31,3496.81 L 2516.7,3495.32 L 2370.8,3349.2 L 2359.91,3340.26 L 2347.49,3333.63 L 2334.01,3329.54 L 2320,3328.16 L 1998.3,3328.5 L 1992.42,3326.59 L 1985.65,3320 L 1965.61,3305.85 L 1963.76,3300.89 L 1965.61,3294.15 L 1985.65,3280 L 2000,3265.65 L 2011.27,3248.78 L 2019.03,3230.04 L 2022.99,3210.14 L 2022.99,3189.86 L 2019.03,3169.96 L 2011.27,3151.21 L 2000,3134.34 L 1985.65,3120 L 1966.77,3107.2 L 1963.76,3100.89 L 1964.07,3097.35 L 1966.77,3092.8 L 1985.65,3080 L 2000,3065.65 L 2011.27,3048.78 L 2019.03,3030.04 L 2022.99,3010.14 L 2022.99,2989.86 L 2019.03,2969.95 L 2011.27,2951.21 L 2000,2934.35 L 1985.65,2920 L 1966.77,2907.2 L 1963.76,2900.89 L 1964.07,2897.35 L 1966.77,2892.8 L 1985.65,2880 L 2000,2865.65 L 2011.27,2848.78 L 2019.03,2830.04 L 2022.99,2810.14 L 2022.99,2789.86 L 2019.03,2769.96 L 2011.27,2751.21 L 2000,2734.35 L 1985.65,2720 L 1966.77,2707.2 L 1963.76,2700.89 L 1964.07,2697.35 L 1966.77,2692.8 L 1985.65,2680 L 2000,2665.65 L 2011.27,2648.78 L 2019.03,2630.04 L 2022.99,2610.14 L 2022.99,2589.86 L 2019.03,2569.96 L 2011.27,2551.21 L 2000,2534.34 L 1985.65,2520 L 1966.77,2507.2 L 1963.76,2500.89 L 1964.07,2497.35 L 1966.77,2492.8 L 1985.65,2480 L 2000,2465.65 L 2011.27,2448.78 L 2019.03,2430.04 L 2022.99,2410.14 L 2022.99,2389.86 L 2019.03,2369.96 L 2011.27,2351.21 L 2000,2334.35 L 1985.65,2320 L 1966.77,2307.2 L 1963.76,2300.89 L 1964.07,2297.35 L 1966.77,2292.8 L 1985.65,2280 L 2000,2265.65 L 2011.27,2248.78 L 2019.03,2230.04 L 2022.99,2210.14 L 2022.99,2189.86 L 2019.03,2169.96 L 2011.27,2151.21 L 2000,2134.34 L 1985.65,2120 L 1965.8,2106.77 L 1963.02,2102.08 L 1962.75,2098.43 L 1966.06,2092.03 L 1981.34,2082.67 L 1996.29,2069.11 L 2008.31,2052.9 L 2018.81,2028.61 L 2014.08,2020 L 1979.37,2020 L 1977.55,2025.62 L 1970.96,2037.03 L 1962.15,2046.81 L 1951.5,2054.55 L 1939.47,2059.91 L 1926.58,2062.65 L 1913.42,2062.65 L 1900.53,2059.91 L 1888.5,2054.55 L 1877.85,2046.81 L 1869.04,2037.03 L 1862.45,2025.62 L 1860.63,2020 L 1825.92,2020 L 1821.19,2028.61 L 1831.69,2052.9 L 1843.7,2069.11 L 1858.65,2082.67 L 1873.94,2092.03 L 1876.19,2094.92 L 1877.28,2100.27 L 1874.2,2106.77 L 1854.34,2120 L 1840,2134.34 L 1828.73,2151.21 L 1820.97,2169.96 L 1817.01,2189.86 L 1817.01,2210.14 L 1820.97,2230.04 L 1828.73,2248.78 L 1840,2265.65 L 1854.34,2280 L 1873.22,2292.8 L 1875.3,2295.68 L 1876.24,2300.89 L 1873.22,2307.2 L 1854.34,2320 L 1840,2334.35 L 1828.73,2351.21 L 1820.97,2369.96 L 1817.01,2389.86 L 1817.01,2410.14 L 1820.97,2430.04 L 1828.73,2448.78 L 1840,2465.65 L 1854.34,2480 L 1873.22,2492.8 L 1875.3,2495.68 L 1876.24,2500.89 L 1873.22,2507.2 L 1854.34,2520 L 1840,2534.34 L 1828.73,2551.21 L 1820.97,2569.96 L 1817.01,2589.86 L 1817.01,2610.14 L 1820.97,2630.04 L 1828.73,2648.78 L 1840,2665.65 L 1854.34,2680 L 1873.22,2692.8 L 1875.3,2695.68 L 1876.24,2700.89 L 1873.22,2707.2 L 1854.34,2720 L 1840,2734.35 L 1828.73,2751.21 L 1820.97,2769.96 L 1817.01,2789.86 L 1817.01,2810.14 L 1820.97,2830.04 L 1828.73,2848.78 L 1840,2865.65 L 1854.34,2880 L 1873.22,2892.8 L 1875.3,2895.68 L 1876.24,2900.89 L 1873.22,2907.2 L 1854.34,2920 L 1840,2934.35 L 1828.73,2951.21 L 1820.97,2969.96 L 1817.01,2989.86 L 1817.01,3010.14 L 1820.97,3030.04 L 1828.73,3048.78 L 1840,3065.65 L 1854.34,3080 L 1873.22,3092.8 L 1875.3,3095.68 L 1876.24,3100.89 L 1873.22,3107.2 L 1854.34,3120 L 1840,3134.34 L 1828.73,3151.21 L 1820.97,3169.96 L 1817.01,3189.86 L 1817.01,3210.14 L 1820.97,3230.04 L 1828.73,3248.78 L 1840,3265.65 L 1854.34,3280 L 1873.22,3292.8 L 1875.3,3295.68 L 1876.24,3300.89 L 1873.22,3307.2 L 1854.34,3320 L 1840,3334.35 L 1828.73,3351.21 L 1820.97,3369.96 L 1817.01,3389.86 L 1817.01,3410.14 L 1820.97,3430.04 L 1828.73,3448.78 L 1840,3465.65 L 1854.34,3480 L 1873.22,3492.8 L 1875.3,3495.68 L 1876.24,3500.89 L 1873.22,3507.2 L 1854.34,3520 L 1840,3534.34 L 1828.73,3551.21 L 1820.97,3569.96 L 1817.01,3589.86 L 1817.01,3610.14 L 1820.97,3630.04 L 1828.73,3648.78 L 1840,3665.65 L 1854.34,3680 L 1873.22,3692.8 L 1875.3,3695.68 L 1876.24,3700.89 L 1873.22,3707.2 L 1854.34,3720 L 1840,3734.35 L 1828.73,3751.21 L 1820.97,3769.96 L 1817.01,3789.86 L 1817.01,3810.14 L 1820.97,3830.04 L 1828.73,3848.78 L 1840,3865.65 L 1854.34,3880 L 1873.22,3892.8 L 1875.3,3895.68 L 1876.24,3900.89 L 1873.22,3907.19 L 1854.34,3920 L 1840,3934.34 L 1828.73,3951.21 L 1820.97,3969.96 L 1817.01,3989.85 L 1817.01,4010.14 L 1820.97,4030.04 L 1828.73,4048.78 L 1840,4065.65 L 1854.34,4080 L 1873.22,4092.8 L 1875.3,4095.68 L 1876.24,4100.89 L 1873.22,4107.2 L 1854.34,4120 L 1840,4134.34 L 1828.73,4151.21 L 1820.97,4169.96 L 1817.01,4189.86 L 1817.01,4210.14 L 1820.97,4230.04 L 1828.73,4248.78 L 1840,4265.65 L 1854.34,4280 L 1873.22,4292.8 L 1875.3,4295.68 L 1876.24,4300.89 L 1873.22,4307.2 L 1854.34,4320 L 1840,4334.35 L 1828.73,4351.21 L 1820.97,4369.96 L 1817.01,4389.86 L 1817.01,4410.14 L 1820.97,4430.04 L 1828.73,4448.78 L 1840,4465.65 L 1854.34,4480 L 1874.39,4494.15 L 1876.24,4499.11 L 1875.3,4504.32 L 1871.83,4508.32 L 1854.34,4520 L 1845.53,4527.74 L 1817.38,4529.54 L 1803.9,4533.63 L 1791.48,4540.27 L 1780.59,4549.2 L 1527.65,4802.64 L 1522.52,4805.37 L 201.496,4805.57 L 194.425,4802.64 L 191.496,4795.57 L 191.496,4679.55 L 193.021,4674.24 L 198.874,4669.9 L 220.001,4671.84 L 641.7,4671.5 L 647.578,4673.41 L 654.344,4680 L 671.215,4691.27 L 689.957,4699.03 L 709.856,4702.99 L 730.142,4702.99 L 750.04,4699.03 L 768.783,4691.27 L 785.654,4680 L 799.999,4665.65 L 811.27,4648.78 L 819.033,4630.04 L 822.992,4610.14 L 822.992,4589.86 L 819.033,4569.96 L 811.27,4551.22 L 799.998,4534.34 L 785.653,4520 L 766.775,4507.2 L 764.698,4504.32 L 763.758,4499.11 L 766.774,4492.8 L 785.654,4480 L 799.998,4465.65 L 811.27,4448.78 L 819.032,4430.04 L 822.992,4410.14 L 822.992,4389.86 L 819.033,4369.96 L 811.27,4351.22 L 799.999,4334.35 L 785.653,4320 L 766.775,4307.2 L 764.698,4304.32 L 763.758,4299.11 L 766.774,4292.8 L 785.654,4280 L 799.999,4265.65 L 811.27,4248.78 L 819.033,4230.04 L 822.992,4210.14 L 822.992,4189.86 L 819.033,4169.96 L 811.27,4151.22 L 799.998,4134.34 L 785.653,4120 L 766.775,4107.2 L 764.698,4104.32 L 763.758,4099.11 L 766.774,4092.8 L 785.655,4080 L 799.999,4065.65 L 811.27,4048.78 L 819.033,4030.04 L 822.992,4010.14 L 822.992,3989.85 L 819.033,3969.96 L 811.27,3951.21 L 799.999,3934.34 L 785.656,3920 L 766.774,3907.19 L 764.697,3904.31 L 763.758,3899.11 L 766.775,3892.8 L 785.653,3880 L 799.998,3865.65 L 811.27,3848.78 L 819.033,3830.04 L 822.992,3810.14 L 822.992,3789.86 L 819.033,3769.96 L 811.27,3751.22 L 799.998,3734.34 L 785.652,3720 L 766.775,3707.2 L 764.075,3702.65 L 763.758,3699.11 L 766.774,3692.8 L 785.654,3680 L 799.999,3665.65 L 811.27,3648.78 L 819.033,3630.04 L 822.992,3610.14 L 822.992,3589.86 L 819.033,3569.96 L 811.27,3551.22 L 799.998,3534.34 L 785.653,3520 L 766.775,3507.2 L 764.698,3504.32 L 763.758,3499.11 L 766.774,3492.8 L 785.654,3480 L 799.998,3465.65 L 811.27,3448.78 L 819.032,3430.04 L 822.992,3410.14 L 822.992,3389.86 L 819.033,3369.96 L 811.27,3351.22 L 799.999,3334.35 L 785.653,3320 L 766.775,3307.2 L 764.698,3304.32 L 763.758,3299.11 L 766.774,3292.8 L 785.654,3280 L 799.999,3265.65 L 811.27,3248.78 L 819.033,3230.04 L 822.992,3210.14 L 822.992,3189.86 L 819.033,3169.96 L 811.27,3151.22 L 799.998,3134.34 L 785.653,3120 L 766.775,3107.2 L 764.074,3102.65 L 764.074,3097.35 L 768.162,3091.69 L 785.654,3080 L 792.42,3073.41 L 796.734,3071.62 L 1120,3071.84 L 1134.01,3070.46 L 1147.49,3066.37 L 1159.91,3059.73 L 1170.8,3050.8 L 1370.8,2850.8 L 1379.73,2839.91 L 1386.37,2827.49 L 1390.46,2814.01 L 1391.84,2800 L 1391.5,2033.76 L 1393.18,2028.2 L 1749.22,1672.59 L 1753.76,1671.5 L 2220,1671.84 L 2234.01,1670.46 L 2247.49,1666.37 L 2259.91,1659.73 L 2270.8,1650.8 L 2375.53,1545.58 L 2383.36,1533.87 L 2388.75,1520.85 L 2391.84,1500 L 2390.46,1485.98 L 2386.37,1472.5 L 2375.53,1454.42 L 2365.58,1444.47 L 2353.87,1436.64 L 2340.86,1431.25 L 2327.04,1428.5 L 2312.96,1428.5 L 2292.51,1433.63 L 2274.42,1444.46 L 2193.31,1525.57 L 2187.81,1528.38 L 1720,1528.16 L 1705.98,1529.54 L 1692.51,1533.63 L 1680.09,1540.26 L 1669.2,1549.2 L 1269.2,1949.2 L 1260.26,1960.09 L 1253.63,1972.51 L 1249.54,1985.98 L 1248.16,2000 L 1248.5,2766.24 L 1246.82,2771.8 L 1093.31,2925.57 L 1089.33,2928.01 L 796.734,2928.38 L 792.42,2926.59 L 785.653,2920 L 766.775,2907.2 L 764.074,2902.65 L 764.074,2897.35 L 766.774,2892.8 L 785.654,2880 L 799.998,2865.65 L 811.27,2848.78 L 819.033,2830.04 L 822.992,2810.14 L 823.184,2800.31 L 824.677,2796.7 L 1070.8,2550.8 L 1079.73,2539.91 L 1086.37,2527.49 L 1090.46,2514.01 L 1091.84,2500 L 1091.5,1733.76 L 1094.42,1726.68 L 1346.68,1474.42 L 1350.67,1471.99 L 2127.04,1471.5 L 2140.85,1468.75 L 2153.86,1463.36 L 2165.58,1455.53 L 2175.53,1445.58 L 2183.36,1433.86 L 2188.75,1420.85 L 2191.5,1407.04 L 2190.46,1385.98 L 2183.36,1366.13 L 2175.53,1354.42 L 2165.58,1344.46 L 2147.49,1333.63 L 2127.04,1328.5 L 1320,1328.16 L 1305.98,1329.54 L 1292.51,1333.63 L 1280.09,1340.27 L 1269.2,1349.2 L 969.199,1649.2 L 960.265,1660.09 L 953.625,1672.51 L 949.537,1685.98 L 948.156,1700 L 948.502,2466.24 L 946.817,2471.8 L 837.223,2581.67 L 833.979,2583.83 L 828.202,2584.4 L 821.838,2580.15 L 819.033,2569.96 L 811.27,2551.22 L 799.998,2534.34 L 785.653,2520 L 765.8,2506.77 L 762.714,2500.27 L 763.115,2496.63 L 766.059,2492.03 L 781.345,2482.67 L 796.293,2469.11 L 808.312,2452.9 L 818.807,2428.61 L 814.076,2420 L 779.373,2420 L 777.546,2425.62 L 770.962,2437.03 L 762.15,2446.81 L 751.496,2454.55 L 739.466,2459.91 L 726.584,2462.65 L 713.416,2462.65 L 700.534,2459.91 L 688.504,2454.55 L 677.85,2446.81 L 669.038,2437.03 L 662.454,2425.62 L 660.627,2420 L 625.922,2420 L 621.191,2428.61 L 631.686,2452.9 L 643.705,2469.11 L 658.653,2482.67 L 673.939,2492.03 L 677.252,2498.43 L 676.979,2502.08 L 674.198,2506.77 L 654.345,2520 L 646.24,2527.41 L 641.7,2528.5 L 420.001,2528.16 L 405.985,2529.54 L 392.506,2533.63 L 380.087,2540.26 L 369.199,2549.2 L 360.265,2560.09 L 353.626,2572.51 L 349.537,2585.98 L 348.156,2600 L 348.502,4307.04 L 353.625,4327.49 L 364.464,4345.58 L 374.423,4355.53 L 386.133,4363.36 L 405.986,4370.46 L 427.04,4371.5 L 440.855,4368.75 L 453.866,4363.36 L 465.574,4355.53 L 475.534,4345.58 L 483.358,4333.87 L 488.748,4320.85 L 491.496,4307.04 L 491.688,2679.55 L 494.425,2674.42 L 501.496,2671.5 L 643.264,2671.62 L 647.578,2673.41 L 654.344,2680 L 673.224,2692.8 L 676.24,2699.11 L 675.3,2704.32 L 673.223,2707.2 L 654.345,2720 L 639.999,2734.35 L 628.728,2751.22 L 620.965,2769.96 L 617.006,2789.86 L 617.006,2810.14 L 620.965,2830.04 L 628.728,2848.78 L 640,2865.65 L 654.344,2880 L 673.224,2892.8 L 676.24,2899.11 L 675.3,2904.32 L 673.223,2907.2 L 654.345,2920 L 639.999,2934.35 L 628.728,2951.22 L 620.966,2969.96 L 617.006,2989.86 L 617.006,3010.14 L 620.965,3030.04 L 628.728,3048.78 L 639.999,3065.65 L 654.344,3080 L 673.224,3092.8 L 676.24,3099.11 L 675.3,3104.32 L 673.223,3107.2 L 654.345,3120 L 640,3134.34 L 628.728,3151.22 L 620.965,3169.96 L 617.006,3189.86 L 617.006,3210.14 L 620.965,3230.04 L 628.728,3248.78 L 639.999,3265.65 L 654.344,3280 L 673.224,3292.8 L 676.24,3299.11 L 675.3,3304.32 L 673.223,3307.2 L 654.345,3320 L 639.999,3334.35 L 628.728,3351.22 L 620.965,3369.96 L 617.006,3389.86 L 617.006,3410.14 L 620.966,3430.04 L 628.728,3448.78 L 640,3465.65 L 654.344,3480 L 673.224,3492.8 L 676.24,3499.11 L 675.3,3504.32 L 673.223,3507.2 L 654.345,3520 L 640,3534.34 L 628.728,3551.22 L 620.965,3569.96 L 617.006,3589.86 L 617.006,3610.14 L 620.965,3630.04 L 628.728,3648.78 L 639.999,3665.65 L 654.344,3680 L 673.224,3692.8 L 676.24,3699.11 L 675.923,3702.65 L 673.223,3707.2 L 654.346,3720 L 640,3734.34 L 628.728,3751.22 L 620.965,3769.96 L 617.006,3789.86 L 617.006,3810.14 L 620.965,3830.04 L 628.728,3848.78 L 640,3865.65 L 654.345,3880 L 673.223,3892.8 L 675.3,3895.68 L 676.24,3900.89 L 673.224,3907.19 L 654.342,3920 L 639.999,3934.34 L 628.728,3951.21 L 620.966,3969.96 L 617.006,3989.85 L 617.006,4010.14 L 620.965,4030.04 L 628.728,4048.78 L 639.999,4065.65 L 654.343,4080 L 673.224,4092.8 L 676.24,4099.11 L 675.923,4102.65 L 673.223,4107.2 L 654.345,4120 L 640,4134.34 L 628.728,4151.22 L 620.965,4169.96 L 617.006,4189.86 L 617.006,4210.14 L 620.965,4230.04 L 628.728,4248.78 L 639.999,4265.65 L 654.344,4280 L 673.224,4292.8 L 676.24,4299.11 L 675.924,4302.65 L 673.223,4307.2 L 654.345,4320 L 639.999,4334.35 L 628.728,4351.22 L 620.965,4369.96 L 617.006,4389.86 L 617.006,4410.14 L 620.966,4430.04 L 628.728,4448.78 L 640,4465.65 L 654.344,4480 L 673.224,4492.8 L 675.301,4495.68 L 676.24,4500.89 L 675.3,4504.32 L 671.835,4508.32 L 654.345,4520 L 647.578,4526.59 L 641.7,4528.5 L 299.545,4528.31 L 294.425,4525.57 L 291.496,4518.5 L 291.496,1181.5 L 293.181,1175.94 L 295.94,1173.18 L 301.496,1171.5 L 1220,1171.84 L 1234.01,1170.46 L 1247.49,1166.37 L 1259.91,1159.73 L 1270.8,1150.8 L 1470.8,950.799 L 1479.73,939.911 L 1486.37,927.492 L 1490.46,914.014 L 1491.84,900.001 L 1492.15,808.082 L 1496.91,802.764 L 1510.55,798.45 L 1530.16,787.973 L 1555.72,765.814 L 2265.06,765.196 L 2271.56,767.593 L 2276.91,773.874 L 2294.09,787.973 L 2313.7,798.45 L 2334.96,804.902 L 2351.54,806.534 L 2456.96,806.534 L 2473.54,804.902 L 2494.81,798.45 L 2514.41,787.973 L 2531.59,773.871 L 2545.69,756.691 L 2556.17,737.088 L 2562.62,715.819 L 2564.8,693.7 L 2562.62,671.581 L 2556.17,650.311 L 2545.69,630.708 L 2531.59,613.529 L 2514.41,599.427 L 2494.81,588.95 L 2473.53,582.497 L 2456.96,580.866 L 2351.54,580.866 L 2334.97,582.497 L 2313.7,588.95 L 2294.09,599.427 L 2276.91,613.526 L 2271.56,619.807 L 2265.06,622.204 L 1559.19,622.204 L 1552.69,619.807 L 1547.34,613.528 L 1530.16,599.427 L 1510.55,588.95 L 1489.28,582.497 L 1472.71,580.866 L 1367.29,580.866 L 1350.72,582.497 L 1329.44,588.95 L 1309.84,599.428 L 1292.66,613.527 L 1278.56,630.708 L 1269.96,646.463 L 1267.26,648.823 L 1262.12,650.246 L 1258.6,649.605 L 1254.29,646.462 L 1245.69,630.708 L 1231.59,613.527 L 1214.41,599.427 L 1194.81,588.95 L 1173.53,582.497 L 1156.96,580.866 L 1051.54,580.866 L 1034.97,582.497 L 1013.7,588.949 L 994.095,599.427 L 976.913,613.528 L 971.559,619.807 L 965.064,622.204 L 257.428,622.048 L 252.691,619.807 L 247.336,613.527 L 230.155,599.427 L 210.553,588.95 L 189.283,582.497 L 172.707,580.866 L 67.2907,580.866 L 50.7136,582.497 L 31.0783,588.274 L 27.3806,587.983 L 22.6569,585.12 L 20,578.332 L 20,415.368 L 22.6566,408.58 L 25.6357,406.371 L 31.0774,405.426 L 50.7165,411.201 L 67.2922,412.834 L 172.705,412.834 L 189.283,411.201 L 210.553,404.748 L 230.155,394.271 L 247.337,380.17 L 252.692,373.892 L 259.186,371.496 L 965.064,371.496 L 971.558,373.892 L 976.912,380.169 L 994.095,394.271 L 1013.7,404.749 L 1034.97,411.201 L 1051.54,412.834 L 1156.96,412.834 L 1173.53,411.201 L 1194.81,404.748 L 1214.41,394.271 L 1231.59,380.17 L 1236.94,373.892 L 1243.44,371.496 L 1284.27,372.114 L 1309.84,394.27 L 1329.44,404.748 L 1350.72,411.201 L 1367.29,412.834 L 1472.71,412.834 L 1489.28,411.201 L 1510.55,404.748 L 1530.16,394.271 L 1547.34,380.169 L 1552.69,373.892 L 1559.19,371.496 L 2265.06,371.496 L 2271.56,373.892 L 2276.91,380.17 L 2294.09,394.271 L 2313.7,404.748 L 2334.97,411.201 L 2351.54,412.834 L 2427.58,412.834 L 2433.46,414.744 L 2645.57,626.685 L 2648.5,633.756 L 2647.9,1021.92 L 2644.93,1026.16 L 2638.5,1028.5 L 2520,1028.16 L 2505.98,1029.54 L 2492.51,1033.63 L 2480.09,1040.26 L 2469.2,1049.2 L 2460.27,1060.09 L 2453.63,1072.51 L 2449.54,1085.98 L 2448.16,1100 L 2447.9,1721.92 L 2444.93,1726.16 L 2438.5,1728.5 L 1998.3,1728.5 L 1992.74,1726.82 L 1985.65,1720 L 1968.78,1708.73 L 1950.04,1700.97 L 1930.14,1697.01 L 1909.86,1697.01 L 1889.96,1700.97 L 1871.21,1708.73 L 1854.34,1720 L 1840,1734.35 L 1828.73,1751.21 L 1820.97,1769.96 L 1817.01,1789.86 L 1817.01,1810.14 L 1820.97,1830.04 L 1828.73,1848.78 L 1840,1865.65 L 1854.34,1880 L 1874.2,1893.22 L 1877.28,1899.73 L 1876.88,1903.37 L 1873.94,1907.96 L 1858.65,1917.33 L 1843.7,1930.89 L 1831.68,1947.1 L 1821.19,1971.39 L 1825.92,1980 L 1860.63,1980 L 1862.45,1974.38 L 1869.04,1962.97 L 1877.85,1953.19 L 1888.5,1945.45 L 1900.53,1940.09 L 1913.42,1937.35 L 1926.58,1937.35 L 1939.47,1940.09 L 1951.5,1945.45 L 1962.15,1953.19 L 1970.96,1962.97 L 1977.55,1974.38 L 1979.37,1980 L 2014.08,1980 L 2018.81,1971.39 L 2008.31,1947.1 L 1996.29,1930.89 L 1981.34,1917.33 L 1966.06,1907.96 L 1962.75,1901.57 L 1963.02,1897.92 L 1965.8,1893.22 L 1985.65,1880 L 1992.74,1873.18 L 1996.35,1871.69 L 2786.24,1871.5 L 2793.31,1874.42 L 2869.2,1950.8 L 2880.09,1959.73 L 2892.51,1966.37 L 2905.98,1970.46 L 2920,1971.84 L 3041.7,1971.5 L 3047.58,1973.41 L 3054.35,1980 L 3073.22,1992.8 L 3075.3,1995.68 L 3076.24,2000.89 L 3073.22,2007.2 L 3054.34,2020 L 3047.58,2026.59 L 3043.26,2028.38 L 2735.9,2028.34 L 2731.09,2026.02 L 2719.43,2010.42 L 2710.35,2002.97 L 2700,1997.43 L 2688.77,1994.03 L 2676.59,1992.83 L 2563.4,1992.83 L 2551.23,1994.03 L 2540,1997.43 L 2529.65,2002.97 L 2520.57,2010.42 L 2513.13,2019.49 L 2507.59,2029.84 L 2504.19,2041.07 L 2502.99,2053.24 L 2502.99,2146.76 L 2504.19,2158.93 L 2507.59,2170.16 L 2513.12,2180.51 L 2520.57,2189.58 L 2539.8,2203.32 L 2542.02,2210.64 L 2539.8,2216.01 L 2534.18,2220.87 L 2520.82,2237.16 L 2510.89,2255.73 L 2504.78,2275.89 L 2502.71,2296.85 L 2504.78,2317.81 L 2510.89,2337.97 L 2520.82,2356.54 L 2534.18,2372.82 L 2553.98,2388.93 L 2556.2,2396.25 L 2553.98,2401.62 L 2534.18,2417.72 L 2520.82,2434.01 L 2510.89,2452.58 L 2504.78,2472.74 L 2502.71,2493.7 L 2504.78,2514.66 L 2510.89,2534.82 L 2520.82,2553.39 L 2534.18,2569.68 L 2553.76,2585.53 L 2556.25,2592.12 L 2553.77,2598.71 L 2534.18,2614.57 L 2520.82,2630.86 L 2510.89,2649.43 L 2504.78,2669.59 L 2502.71,2690.55 L 2504.78,2711.51 L 2510.89,2731.67 L 2520.82,2750.24 L 2534.18,2766.53 L 2550.46,2779.89 L 2569.04,2789.82 L 2589.19,2795.93 L 2604.9,2797.48 L 2635.1,2797.48 L 2650.8,2795.93 L 2670.96,2789.82 L 2689.53,2779.89 L 2702.77,2769.2 L 2707.44,2767.87 L 2717.82,2770.46 L 2731.83,2771.84 L 3043.26,2771.62 L 3047.58,2773.41 L 3054.35,2780 L 3074.2,2793.22 L 3076.35,2796.19 L 3077.25,2801.57 L 3073.94,2807.96 L 3058.66,2817.33 L 3043.71,2830.89 L 3031.69,2847.1 L 3021.19,2871.39 L 3025.92,2880 L 3060.63,2880 L 3062.45,2874.38 L 3069.04,2862.97 L 3077.85,2853.19 L 3088.5,2845.45 L 3100.53,2840.09 L 3113.42,2837.35 L 3126.58,2837.35 L 3139.47,2840.09 L 3151.5,2845.45 L 3162.15,2853.19 L 3170.96,2862.97 L 3177.55,2874.38 L 3179.37,2880 L 3214.08,2880 L 3218.81,2871.39 L 3208.31,2847.1 L 3196.29,2830.89 L 3181.34,2817.33 L 3166.06,2807.96 L 3163.81,2805.08 L 3162.71,2799.73 L 3165.8,2793.22 L 3185.65,2780 L 3200,2765.65 L 3211.27,2748.78 L 3219.03,2730.04 L 3222.99,2710.14 L 3222.99,2689.86 L 3219.03,2669.96 L 3211.27,2651.22 L 3200,2634.34 L 3185.65,2620 L 3166.77,2607.2 L 3164.7,2604.32 L 3163.76,2599.11 L 3166.77,2592.8 L 3185.65,2580 L 3200,2565.65 L 3211.27,2548.78 L 3219.03,2530.04 L 3222.99,2510.14 L 3222.99,2489.86 L 3219.03,2469.96 L 3211.27,2451.22 L 3200,2434.35 L 3185.65,2420 L 3166.77,2407.2 L 3164.7,2404.32 L 3163.76,2399.11 L 3166.77,2392.8 L 3185.65,2380 L 3200,2365.65 L 3211.27,2348.78 L 3219.03,2330.04 L 3222.99,2310.14 L 3222.99,2289.86 L 3219.03,2269.96 L 3211.27,2251.22 L 3200,2234.35 L 3185.65,2220 L 3166.77,2207.2 L 3164.7,2204.32 L 3163.76,2199.11 L 3166.77,2192.8 L 3185.65,2180 L 3200,2165.65 L 3211.27,2148.78 L 3219.03,2130.04 L 3222.99,2110.14 L 3222.99,2089.86 L 3219.03,2069.96 L 3211.27,2051.22 L 3200,2034.34 L 3185.65,2020 L 3166.77,2007.2 L 3164.7,2004.32 L 3163.76,1999.11 L 3166.77,1992.8 L 3185.65,1980 L 3200,1965.65 L 3211.27,1948.78 L 3219.03,1930.04 L 3222.99,1910.14 L 3222.99,1889.86 L 3219.03,1869.96 L 3211.27,1851.22 L 3200,1834.35 L 3183.86,1817.96 L 3182.13,1812.66 L 3182.71,1808.97 L 3185.97,1804.45 L 3198.37,1800.12 L 3211.41,1791.41 L 3220.12,1778.37 L 3222.41,1770.83 L 3223.23,1762.53 L 3223.02,1726.67 L 3216.35,1720 L 3182.99,1720 L 3182.99,1762.99 L 3057.01,1762.99 L 3057.01,1720 L 3023.65,1720 L 3016.98,1726.67 L 3016.77,1762.53 L 3017.59,1770.83 L 3019.87,1778.37 L 3028.59,1791.41 L 3034.68,1796.41 L 3041.62,1800.12 L 3052.45,1803.44 L 3055.39,1805.75 L 3057.75,1810.79 L 3056.14,1817.96 L 3048.77,1825.57 L 3043.65,1828.31 L 2953.76,1828.5 L 2946.69,1825.57 L 2870.8,1749.2 L 2859.91,1740.26 L 2847.49,1733.63 L 2834.01,1729.54 L 2820,1728.16 L 2601.5,1728.5 L 2595.94,1726.82 L 2591.69,1720.45 L 2591.5,1181.5 L 2593.18,1175.94 L 2595.94,1173.18 L 2601.5,1171.5 L 2810.37,1171.5 L 2817.03,1174.03 L 2823.59,1185.32 L 2834.68,1196.41 L 2849.17,1202.41 L 2982.5,1203.23 L 2990.83,1202.41 L 2998.37,1200.12 L 3011.41,1191.41 L 3016.41,1185.32 L 3022.41,1170.83 L 3023.23,1037.5 L 3022.41,1029.17 L 3020.12,1021.62 L 3011.41,1008.59 L 2998.37,999.873 L 2990.83,997.585 L 2982.5,996.764 L 2849.17,997.585 L 2834.68,1003.59 L 2828.58,1008.59 L 2823.59,1014.68 L 2818.27,1024.63 L 2813.93,1027.85 L 2799.55,1028.31 L 2793.18,1024.06 L 2791.5,1018.5 L 2791.84,600.001 L 2790.46,585.984 L 2786.37,572.505 L 2779.73,560.085 L 2770.8,549.199 L 2561.19,339.853 L 2559.48,333.018 L 2562.62,322.116 L 2564.8,300 L 2562.62,277.881 L 2555.82,254.897 L 2556.64,249.627 L 2630.94,174.425 L 2636.44,171.619 L 3540.45,171.688 L 3546.82,175.94 L 3548.5,181.496 L 3548.5,301.436 L 3546.11,307.931 L 3538.29,314.548 L 3525.95,329.289 L 3518.67,331.524 L 3513.32,329.357 L 3500.33,314.164 L 3482.77,300.069 L 3462.66,289.602 L 3450.12,285.518 L 3440,290.453 L 3440,324.255 L 3457.5,331.308 L 3470.18,340.524 L 3480.68,352.176 L 3488.52,365.755 L 3493.36,380.666 L 3495,396.26 L 3493.36,419.334 L 3488.52,434.245 L 3480.68,447.824 L 3470.18,459.476 L 3457.5,468.692 L 3440,475.745 L 3440,509.545 L 3450.12,514.48 L 3462.66,510.397 L 3482.77,499.928 L 3500.33,485.834 L 3513.32,470.641 L 3520.62,468.485 L 3525.95,470.709 L 3538.29,485.451 L 3555.8,499.822 L 3575.78,510.499 L 3597.45,517.074 L 3620,519.296 L 3642.55,517.074 L 3664.22,510.499 L 3684.2,499.821 L 3701.71,485.451 L 3716.08,467.94 L 3726.76,447.96 L 3733.33,426.283 L 3735,409.387 L 3735,390.611 L 3733.33,373.716 L 3726.76,352.039 L 3716.08,332.058 L 3701.71,314.547 L 3693.89,307.93 L 3691.65,303.194 L 3691.5,181.496 L 3693.18,175.94 L 3697.67,172.257 L 4586.24,171.496 L 4590.78,172.586 L 5045.57,626.685 L 5048.5,633.756 L 5048.38,2167.81 L 5045.58,2173.31 L 4816.94,2401.95 L 4811.81,2404.69 L 4792.25,2408.54 L 4774.94,2415.71 L 4759.37,2426.11 L 4746.12,2439.36 L 4735.71,2454.94 L 4728.54,2472.26 L 4724.88,2490.63 L 4724.88,2509.36 L 4728.54,2527.74 L 4735.71,2545.06 L 4748.38,2565.59 L 4748.5,2632.84 L 4746.82,2638.39 L 4735.71,2654.94 L 4728.54,2672.26 L 4724.88,2690.63 L 4724.88,2709.36 L 4728.54,2727.74 L 4735.71,2745.06 L 4748.38,2765.59 L 4748.5,2832.84 L 4746.82,2838.39 L 4735.71,2854.94 L 4728.54,2872.26 L 4724.88,2890.63 L 4724.88,2909.36 L 4728.54,2927.74 L 4735.71,2945.06 L 4746.12,2960.63 L 4759.37,2973.88 L 4774.94,2984.29 L 4792.25,2991.46 L 4810.63,2995.12 L 4829.37,2995.12 L 4847.74,2991.46 L 4865.05,2984.29 L 4880.63,2973.88 L 4893.88,2960.63 L 4904.29,2945.06 L 4911.46,2927.74 L 4915.12,2909.37 L 4915.12,2890.63 L 4911.46,2872.25 L 4904.29,2854.94 L 4891.69,2834.79 L 4891.5,2767.16 L 4892.59,2762.62 L 4904.29,2745.06 L 4911.46,2727.74 L 4915.12,2709.37 L 4915.12,2690.63 L 4911.46,2672.25 L 4904.29,2654.94 L 4891.69,2634.79 L 4891.5,2567.16 L 4893.18,2561.61 L 4904.29,2545.06 L 4911.46,2527.74 L 4915.88,2506.31 L 5170.8,2250.8 L 5179.73,2239.91 L 5186.37,2227.49 L 5190.46,2214.01 L 5191.84,2200 L 5191.84,599.999 L 5190.46,585.984 L 5186.37,572.505 L 5179.73,560.086 L 5170.8,549.199 L 4670.8,49.2003 L 4659.91,40.2654 L 4647.49,33.6253 L 4634.01,29.5373 L 4620,28.1564 L 2604.25,28.1564 L 2590.23,29.5371 L 2576.76,33.6256 L 2564.34,40.2647 L 2553.45,49.199 L 2417.39,185.479 L 2411.83,187.164 L 2351.54,187.164 L 2334.97,188.797 L 2313.7,195.25 L 2294.09,205.727 L 2276.91,219.826 L 2271.56,226.106 L 2265.06,228.502 L 1559.19,228.502 L 1552.69,226.106 L 1547.34,219.828 L 1530.16,205.727 L 1510.55,195.25 L 1489.28,188.797 L 1472.71,187.164 L 1367.29,187.164 L 1350.72,188.797 L 1329.44,195.25 L 1309.84,205.728 L 1292.66,219.826 L 1287.31,226.106 L 1280.81,228.502 L 1239.98,227.884 L 1214.41,205.727 L 1194.81,195.25 L 1173.53,188.797 L 1156.96,187.164 L 1051.54,187.164 L 1034.97,188.797 L 1013.7,195.249 L 994.095,205.727 L 976.913,219.828 L 971.558,226.106 L 965.064,228.502 L 259.186,228.502 L 252.692,226.106 L 247.336,219.826 L 230.155,205.727 L 210.553,195.25 L 189.283,188.797 L 172.705,187.164 L 67.2924,187.164 L 50.714,188.797 L 31.0774,194.572 L 27.3799,194.281 L 22.6566,191.418 L 20,184.63 L 20,10 L 22.9289,2.92893 L 30,0M 348.502,5107.04 L 353.625,5127.49 L 364.464,5145.58 L 469.199,5250.8 L 480.089,5259.73 L 492.506,5266.37 L 505.984,5270.46 L 519.997,5271.84 L 3020,5271.84 L 3034.01,5270.46 L 3047.49,5266.37 L 3059.91,5259.73 L 3070.8,5250.8 L 3367.34,4953.96 L 3373.49,4952.09 L 3404.43,4958.11 L 3435.57,4958.11 L 3466.12,4952.03 L 3494.89,4940.11 L 3520.79,4922.81 L 3542.81,4900.79 L 3560.11,4874.89 L 3572.03,4846.12 L 3578.11,4815.57 L 3578.11,4784.43 L 3572.03,4753.88 L 3560.11,4725.1 L 3542.81,4699.21 L 3520.79,4677.19 L 3494.89,4659.88 L 3466.12,4647.97 L 3435.57,4641.89 L 3404.43,4641.89 L 3373.88,4647.97 L 3345.1,4659.88 L 3319.21,4677.19 L 3297.19,4699.21 L 3279.88,4725.1 L 3267.97,4753.88 L 3261.89,4784.43 L 3261.89,4815.57 L 3267.72,4844.88 L 3266.88,4851.26 L 3195.42,4923.47 L 3192.18,4925.64 L 3186.41,4926.21 L 3181.29,4923.48 L 3178.54,4918.37 L 3178.12,4826.65 L 3171.47,4820 L 3138.11,4820 L 3138.11,4918.11 L 3040,4918.11 L 3040,4951.47 L 3046.65,4958.12 L 3138.37,4958.54 L 3144.72,4962.8 L 3146.2,4970.3 L 3143.47,4975.42 L 2993.31,5125.57 L 2988.19,5128.31 L 553.756,5128.5 L 546.685,5125.57 L 465.575,5044.46 L 453.866,5036.64 L 440.855,5031.25 L 419.999,5028.16 L 405.985,5029.54 L 392.507,5033.62 L 374.424,5044.46 L 364.464,5054.42 L 356.639,5066.13 L 351.25,5079.14 L 348.502,5092.96 L 348.502,5107.04M 616.764,1737.5 L 617.585,1870.83 L 623.587,1885.32 L 628.585,1891.41 L 641.625,1900.12 L 654.028,1904.45 L 656.492,1907.27 L 657.865,1912.66 L 656.138,1917.96 L 639.999,1934.34 L 628.728,1951.21 L 620.965,1969.96 L 617.006,1989.86 L 617.006,2010.14 L 620.965,2030.04 L 628.728,2048.78 L 640,2065.65 L 654.345,2080 L 673.224,2092.8 L 676.24,2099.11 L 675.3,2104.32 L 673.223,2107.2 L 654.344,2120 L 640,2134.34 L 628.728,2151.21 L 620.965,2169.96 L 617.006,2189.86 L 617.006,2210.14 L 620.965,2230.04 L 628.728,2248.78 L 640,2265.65 L 654.345,2280 L 674.198,2293.22 L 677.284,2299.73 L 676.883,2303.37 L 673.939,2307.96 L 658.654,2317.33 L 643.705,2330.89 L 631.686,2347.1 L 621.191,2371.39 L 625.922,2380 L 660.627,2380 L 662.454,2374.38 L 669.038,2362.97 L 677.85,2353.19 L 688.504,2345.45 L 700.534,2340.09 L 713.416,2337.35 L 726.584,2337.35 L 739.466,2340.09 L 751.496,2345.45 L 762.15,2353.19 L 770.962,2362.97 L 777.546,2374.38 L 779.373,2380 L 814.076,2380 L 818.807,2371.39 L 808.312,2347.1 L 796.293,2330.89 L 781.344,2317.33 L 766.059,2307.96 L 762.746,2301.57 L 763.651,2296.19 L 765.8,2293.22 L 785.653,2280 L 799.998,2265.65 L 811.27,2248.78 L 819.032,2230.04 L 822.992,2210.14 L 822.992,2189.86 L 819.032,2169.96 L 811.27,2151.21 L 799.998,2134.34 L 785.654,2120 L 766.775,2107.2 L 763.758,2100.89 L 764.074,2097.35 L 766.774,2092.8 L 785.653,2080 L 799.998,2065.65 L 811.27,2048.78 L 819.032,2030.04 L 822.992,2010.14 L 822.992,1989.86 L 819.032,1969.96 L 811.27,1951.21 L 799.999,1934.34 L 783.86,1917.96 L 782.133,1912.66 L 783.506,1907.27 L 785.97,1904.45 L 805.322,1896.41 L 816.411,1885.32 L 822.413,1870.83 L 823.234,1862.5 L 822.413,1729.17 L 816.411,1714.68 L 811.412,1708.59 L 805.322,1703.59 L 790.831,1697.59 L 782.5,1696.76 L 649.167,1697.59 L 634.676,1703.59 L 628.585,1708.59 L 623.587,1714.68 L 617.585,1729.17 L 616.764,1737.5M 2417.01,3989.85 L 2417.01,4010.14 L 2420.97,4030.04 L 2428.73,4048.78 L 2440,4065.65 L 2446.59,4072.42 L 2448.38,4076.73 L 2448.16,4200 L 2449.54,4214.01 L 2453.63,4227.49 L 2460.26,4239.91 L 2469.2,4250.8 L 2669.2,4450.8 L 2680.09,4459.73 L 2692.51,4466.37 L 2705.98,4470.46 L 2720,4471.84 L 3788.19,4471.69 L 3793.31,4474.42 L 4059.96,4741.34 L 4061.65,4746.9 L 4061.65,4917.62 L 4062.47,4925.95 L 4064.76,4933.49 L 4073.47,4946.53 L 4079.56,4951.53 L 4094.05,4957.53 L 4102.38,4958.35 L 4337.62,4958.35 L 4345.95,4957.53 L 4360.44,4951.53 L 4366.53,4946.53 L 4375.24,4933.49 L 4377.53,4925.95 L 4378.35,4917.62 L 4378.35,4682.38 L 4377.53,4674.05 L 4375.24,4666.51 L 4366.53,4653.47 L 4353.49,4644.76 L 4345.95,4642.47 L 4337.62,4641.65 L 4166.9,4641.65 L 4161.34,4639.96 L 3870.8,4349.2 L 3859.91,4340.26 L 3847.49,4333.63 L 3834.01,4329.54 L 3820,4328.16 L 2751.81,4328.31 L 2746.68,4325.57 L 2592.26,4170.07 L 2591.62,4076.73 L 2593.41,4072.42 L 2600,4065.65 L 2611.27,4048.78 L 2619.03,4030.04 L 2622.99,4010.14 L 2622.99,3989.85 L 2619.03,3969.96 L 2611.27,3951.21 L 2600,3934.34 L 2585.65,3920 L 2568.78,3908.73 L 2550.04,3900.97 L 2530.14,3897.01 L 2509.86,3897.01 L 2489.96,3900.97 L 2471.21,3908.73 L 2454.34,3920 L 2440,3934.34 L 2428.73,3951.21 L 2420.97,3969.96 L 2417.01,3989.85M 2816.63,711.357 L 2819.61,731.428 L 2826.52,750.763 L 2829.47,756.272 L 2838.96,759.056 L 2863.79,734.227 L 2858.38,719.396 L 2857.01,706.299 L 2858.38,693.202 L 2863.79,678.37 L 2838.96,653.54 L 2829.74,656.244 L 2822.56,671.417 L 2817.63,691.096 L 2816.63,711.357M 2861.65,4917.63 L 2862.47,4925.95 L 2864.76,4933.49 L 2873.47,4946.53 L 2886.51,4955.24 L 2894.05,4957.53 L 2902.37,4958.35 L 2993.35,4958.12 L 3000,4951.47 L 3000,4918.11 L 2901.89,4918.11 L 2901.89,4820 L 2868.53,4820 L 2861.88,4826.65 L 2861.65,4917.63M 2861.65,4682.37 L 2861.88,4773.35 L 2868.53,4780 L 2901.89,4780 L 2901.89,4681.89 L 3000,4681.89 L 3000,4648.53 L 2993.35,4641.88 L 2902.37,4641.65 L 2894.05,4642.47 L 2886.51,4644.76 L 2873.47,4653.47 L 2864.76,4666.51 L 2862.47,4674.05 L 2861.65,4682.37M 2867.24,787.341 L 2869.94,796.554 L 2885.12,803.734 L 2904.8,808.667 L 2925.06,809.666 L 2945.13,806.69 L 2964.46,799.777 L 2969.97,796.833 L 2972.76,787.341 L 2947.88,762.462 L 2939.47,766.208 L 2926.58,768.946 L 2913.42,768.946 L 2900.53,766.208 L 2892.12,762.462 L 2867.24,787.341M 2867.24,625.255 L 2892.12,650.136 L 2900.53,646.39 L 2913.42,643.652 L 2926.58,643.652 L 2939.47,646.39 L 2947.88,650.135 L 2972.76,625.255 L 2970.05,616.042 L 2954.88,608.863 L 2935.2,603.931 L 2914.94,602.932 L 2894.87,605.906 L 2875.53,612.819 L 2870.03,615.763 L 2867.24,625.255M 2976.21,678.368 L 2981.62,693.202 L 2982.99,706.299 L 2981.62,719.396 L 2976.21,734.229 L 3001.04,759.056 L 3010.25,756.354 L 3017.43,741.179 L 3022.37,721.5 L 3023.37,701.237 L 3020.39,681.168 L 3010.53,656.326 L 3001.04,653.54 L 2976.21,678.368M 3016.77,1637.47 L 3016.98,1673.33 L 3023.65,1680 L 3057.01,1680 L 3057.01,1637.01 L 3100,1637.01 L 3100,1603.65 L 3093.33,1596.98 L 3049.17,1597.59 L 3034.68,1603.59 L 3028.59,1608.59 L 3019.87,1621.63 L 3017.59,1629.17 L 3016.77,1637.47M 3017.01,3110.14 L 3020.97,3130.04 L 3028.73,3148.78 L 3040,3165.65 L 3054.34,3180 L 3071.21,3191.27 L 3089.96,3199.03 L 3109.85,3202.99 L 3130.14,3202.99 L 3150.04,3199.03 L 3168.78,3191.27 L 3185.65,3180 L 3192.42,3173.41 L 3198.3,3171.5 L 3497.64,3171.5 L 3503.19,3173.18 L 4280.59,3950.8 L 4291.48,3959.73 L 4303.9,3966.37 L 4315.81,3970.78 L 4323.59,3985.32 L 4328.59,3991.41 L 4341.63,4000.12 L 4349.17,4002.41 L 4357.5,4003.23 L 4490.83,4002.41 L 4505.32,3996.41 L 4511.41,3991.41 L 4520.12,3978.37 L 4522.41,3970.83 L 4523.23,3837.49 L 4522.41,3829.17 L 4520.12,3821.62 L 4511.41,3808.58 L 4498.37,3799.87 L 4490.83,3797.59 L 4482.5,3796.76 L 4357.5,3796.76 L 4349.17,3797.59 L 4338.67,3800.7 L 4331.75,3799.01 L 3633.88,3101.37 L 3631.29,3096.89 L 3631.29,3091.71 L 3633.88,3087.23 L 3770.8,2950.8 L 3779.73,2939.91 L 3786.37,2927.49 L 3790.46,2914.01 L 3791.84,2900 L 3791.66,1307.82 L 3795.36,1301.73 L 3805.32,1296.41 L 3811.41,1291.41 L 3816.41,1285.32 L 3822.97,1274.03 L 3829.63,1271.5 L 4620,1271.84 L 4634.01,1270.46 L 4647.49,1266.37 L 4671.31,1252.15 L 4704.43,1258.11 L 4735.57,1258.11 L 4766.12,1252.03 L 4794.89,1240.11 L 4820.79,1222.81 L 4842.81,1200.79 L 4860.11,1174.89 L 4872.03,1146.12 L 4878.11,1115.57 L 4878.11,1084.43 L 4872.03,1053.88 L 4860.11,1025.1 L 4842.81,999.209 L 4820.79,977.188 L 4794.89,959.884 L 4766.12,947.966 L 4735.57,941.888 L 4704.43,941.888 L 4673.88,947.966 L 4645.1,959.884 L 4619.21,977.188 L 4597.19,999.208 L 4579.88,1025.11 L 4567.97,1053.88 L 4561.89,1084.43 L 4562.15,1120.06 L 4560.01,1124.84 L 4554.03,1128.35 L 3826.07,1127.85 L 3821.73,1124.63 L 3816.41,1114.68 L 3811.41,1108.58 L 3805.32,1103.59 L 3790.78,1095.81 L 3786.37,1083.9 L 3779.73,1071.48 L 3770.8,1060.59 L 3292.26,581.463 L 3292.17,524.743 L 3297,519.41 L 3310.38,515.872 L 3317.33,512.159 L 3323.42,507.162 L 3332.9,493.096 L 3335.89,490.628 L 3339.59,489.484 L 3345.26,490.566 L 3357.23,499.929 L 3377.34,510.398 L 3389.88,514.48 L 3400,509.545 L 3400,475.745 L 3382.5,468.692 L 3369.82,459.476 L 3359.32,447.824 L 3351.48,434.245 L 3346.64,419.334 L 3345,403.74 L 3346.64,380.666 L 3351.48,365.755 L 3359.32,352.176 L 3369.82,340.524 L 3382.5,331.308 L 3400,324.255 L 3400,290.453 L 3389.88,285.518 L 3377.34,289.601 L 3357.23,300.069 L 3345.26,309.432 L 3339.59,310.514 L 3332.9,306.902 L 3328.42,298.929 L 3317.33,287.839 L 3302.84,281.837 L 3145.49,281.016 L 3137.16,281.837 L 3129.62,284.126 L 3116.58,292.837 L 3111.58,298.928 L 3105.58,313.417 L 3104.76,478.25 L 3105.58,486.581 L 3107.87,494.12 L 3116.58,507.161 L 3129.62,515.872 L 3143,519.41 L 3147.83,524.743 L 3148.16,611.393 L 3149.54,625.407 L 3153.63,638.884 L 3160.27,651.307 L 3169.2,662.193 L 3617.85,1110.35 L 3620.49,1115.05 L 3620.7,1118.67 L 3617.59,1129.17 L 3616.76,1137.5 L 3617.59,1270.83 L 3623.59,1285.32 L 3634.68,1296.41 L 3645.96,1302.97 L 3648.5,1309.63 L 3648.5,2866.24 L 3645.58,2873.31 L 3493.31,3025.57 L 3486.24,3028.5 L 3196.73,3028.38 L 3192.42,3026.59 L 3185.65,3020 L 3165.8,3006.77 L 3163.02,3002.08 L 3162.75,2998.43 L 3166.06,2992.03 L 3181.34,2982.67 L 3196.29,2969.11 L 3208.31,2952.9 L 3218.81,2928.61 L 3214.08,2920 L 3179.37,2920 L 3177.55,2925.62 L 3170.96,2937.03 L 3162.15,2946.81 L 3151.5,2954.55 L 3139.47,2959.91 L 3126.58,2962.65 L 3113.42,2962.65 L 3100.53,2959.91 L 3088.5,2954.55 L 3077.85,2946.81 L 3069.04,2937.03 L 3062.45,2925.62 L 3060.63,2920 L 3025.92,2920 L 3021.19,2928.61 L 3031.69,2952.9 L 3043.71,2969.11 L 3058.65,2982.67 L 3073.94,2992.03 L 3076.19,2994.92 L 3077.28,3000.27 L 3074.2,3006.77 L 3054.34,3020 L 3040,3034.34 L 3028.73,3051.21 L 3020.97,3069.96 L 3017.01,3089.85 L 3017.01,3110.14M 3040,4681.89 L 3138.11,4681.89 L 3138.11,4780 L 3171.47,4780 L 3178.12,4773.35 L 3178.35,4682.37 L 3177.53,4674.05 L 3175.24,4666.51 L 3166.53,4653.47 L 3153.49,4644.76 L 3145.95,4642.47 L 3137.63,4641.65 L 3046.65,4641.88 L 3040,4648.53 L 3040,4681.89M 3140,1637.01 L 3182.99,1637.01 L 3182.99,1680 L 3216.35,1680 L 3223.02,1673.33 L 3222.41,1629.17 L 3216.41,1614.68 L 3211.41,1608.59 L 3198.37,1599.87 L 3190.83,1597.59 L 3182.53,1596.77 L 3146.67,1596.98 L 3140,1603.65 L 3140,1637.01M 3221.19,3628.61 L 3222.96,3634.43 L 3231.69,3652.9 L 3243.7,3669.11 L 3258.65,3682.67 L 3275.96,3693.05 L 3291.66,3698.67 L 3300,3694.12 L 3300,3659.67 L 3288.5,3654.55 L 3277.85,3646.81 L 3269.04,3637.03 L 3262.45,3625.62 L 3260.63,3620 L 3225.92,3620 L 3221.19,3628.61M 3221.19,3571.39 L 3225.92,3580 L 3260.63,3580 L 3262.45,3574.38 L 3269.04,3562.97 L 3277.85,3553.19 L 3288.5,3545.45 L 3300,3540.33 L 3300,3505.88 L 3291.66,3501.33 L 3275.96,3506.95 L 3258.65,3517.33 L 3243.7,3530.89 L 3231.69,3547.1 L 3221.19,3571.39M 3340,3694.12 L 3348.34,3698.67 L 3364.04,3693.05 L 3381.34,3682.67 L 3396.29,3669.11 L 3408.31,3652.9 L 3417.04,3634.43 L 3418.81,3628.61 L 3414.08,3620 L 3379.37,3620 L 3377.55,3625.62 L 3370.96,3637.03 L 3362.15,3646.81 L 3351.5,3654.55 L 3340,3659.67 L 3340,3694.12M 3340,3505.88 L 3340,3540.33 L 3351.5,3545.45 L 3362.15,3553.19 L 3370.96,3562.97 L 3377.55,3574.38 L 3379.37,3580 L 3414.08,3580 L 3418.81,3571.39 L 3417.04,3565.57 L 3408.31,3547.1 L 3396.29,3530.89 L 3381.34,3517.33 L 3364.04,3506.95 L 3348.34,3501.33 L 3340,3505.88M 3616.63,811.358 L 3619.61,831.428 L 3626.52,850.763 L 3629.47,856.272 L 3638.96,859.056 L 3663.79,834.227 L 3658.38,819.396 L 3657.01,806.299 L 3658.38,793.202 L 3663.79,778.369 L 3638.96,753.54 L 3629.74,756.244 L 3622.56,771.417 L 3617.63,791.096 L 3616.63,811.358M 3667.24,887.341 L 3669.94,896.554 L 3685.12,903.734 L 3704.8,908.667 L 3725.06,909.666 L 3745.13,906.69 L 3764.46,899.777 L 3769.97,896.833 L 3772.76,887.341 L 3747.88,862.462 L 3739.47,866.208 L 3726.58,868.946 L 3713.42,868.946 L 3700.53,866.208 L 3692.12,862.462 L 3667.24,887.341M 3667.24,725.255 L 3692.12,750.136 L 3700.53,746.39 L 3713.42,743.652 L 3726.58,743.652 L 3739.47,746.39 L 3747.88,750.135 L 3772.76,725.255 L 3770.05,716.042 L 3754.88,708.863 L 3735.2,703.931 L 3714.94,702.932 L 3694.87,705.906 L 3675.53,712.819 L 3670.03,715.763 L 3667.24,725.255M 3776.21,778.368 L 3781.62,793.202 L 3782.99,806.299 L 3781.62,819.396 L 3776.21,834.228 L 3801.04,859.056 L 3810.25,856.354 L 3817.43,841.179 L 3822.37,821.5 L 3823.37,801.237 L 3820.39,781.168 L 3810.53,756.326 L 3801.04,753.54 L 3776.21,778.368M 4017.01,3110.14 L 4020.97,3130.04 L 4028.73,3148.78 L 4040,3165.65 L 4054.34,3180 L 4071.21,3191.27 L 4089.96,3199.03 L 4109.86,3202.99 L 4130.14,3202.99 L 4150.04,3199.03 L 4168.78,3191.27 L 4185.65,3180 L 4200,3165.65 L 4211.27,3148.78 L 4219.03,3130.04 L 4222.99,3110.14 L 4222.99,3089.85 L 4219.03,3069.96 L 4211.27,3051.21 L 4200,3034.34 L 4185.65,3020 L 4166.77,3007.2 L 4163.76,3000.89 L 4164.7,2995.68 L 4166.77,2992.8 L 4185.65,2980 L 4193.76,2972.59 L 4198.3,2971.5 L 4452.84,2971.5 L 4457.38,2972.59 L 4474.94,2984.29 L 4492.25,2991.46 L 4510.63,2995.12 L 4529.37,2995.12 L 4547.74,2991.46 L 4565.06,2984.29 L 4580.63,2973.88 L 4593.88,2960.63 L 4604.29,2945.06 L 4611.46,2927.74 L 4615.12,2909.37 L 4615.12,2890.63 L 4611.46,2872.26 L 4604.29,2854.94 L 4593.88,2839.36 L 4580.63,2826.12 L 4565.06,2815.71 L 4547.84,2808.4 L 4545.21,2805.93 L 4543.31,2800.91 L 4544.27,2795.62 L 4546.41,2792.72 L 4565.05,2784.29 L 4580.63,2773.88 L 4593.88,2760.63 L 4604.29,2745.06 L 4611.46,2727.74 L 4615.12,2709.37 L 4615.12,2690.63 L 4611.46,2672.26 L 4604.29,2654.94 L 4593.88,2639.36 L 4580.63,2626.11 L 4565.06,2615.71 L 4547.84,2608.4 L 4545.21,2605.93 L 4543.31,2600.91 L 4544.27,2595.62 L 4546.41,2592.72 L 4565.06,2584.29 L 4580.63,2573.88 L 4593.88,2560.63 L 4604.29,2545.06 L 4611.46,2527.74 L 4615.12,2509.37 L 4615.12,2490.63 L 4611.46,2472.26 L 4604.29,2454.94 L 4593.88,2439.36 L 4580.63,2426.12 L 4565.06,2415.71 L 4547.74,2408.54 L 4529.37,2404.88 L 4510.63,2404.88 L 4492.25,2408.54 L 4474.94,2415.71 L 4457.38,2427.41 L 4452.84,2428.5 L 4198.3,2428.5 L 4192.42,2426.59 L 4185.65,2420 L 4168.16,2408.32 L 4165.61,2405.85 L 4163.76,2400.89 L 4164.7,2395.68 L 4166.77,2392.8 L 4185.65,2380 L 4200,2365.65 L 4211.27,2348.78 L 4219.03,2330.04 L 4222.99,2310.14 L 4222.99,2289.85 L 4219.03,2269.96 L 4211.27,2251.21 L 4200,2234.34 L 4193.18,2227.26 L 4191.5,2221.7 L 4191.69,2176.35 L 4193.18,2172.74 L 4200,2165.65 L 4211.27,2148.78 L 4219.03,2130.04 L 4222.99,2110.14 L 4222.99,2089.85 L 4219.03,2069.96 L 4211.27,2051.21 L 4200,2034.34 L 4185.65,2020 L 4165.61,2005.85 L 4163.76,2000.89 L 4164.7,1995.68 L 4168.16,1991.69 L 4185.65,1980 L 4192.42,1973.41 L 4196.73,1971.62 L 4320,1971.84 L 4334.01,1970.46 L 4347.49,1966.37 L 4359.91,1959.73 L 4370.8,1950.8 L 4470.8,1850.8 L 4479.73,1839.91 L 4486.37,1827.49 L 4490.46,1814.01 L 4491.84,1800 L 4491.84,1500 L 4490.46,1485.98 L 4486.37,1472.51 L 4479.73,1460.09 L 4470.8,1449.2 L 4370.8,1349.2 L 4359.91,1340.26 L 4347.49,1333.63 L 4334.01,1329.54 L 4320,1328.16 L 4212.96,1328.5 L 4192.51,1333.63 L 4180.09,1340.26 L 4169.2,1349.2 L 4160.26,1360.09 L 4153.63,1372.51 L 4148.5,1392.96 L 4148.5,1407.04 L 4151.1,1421.11 L 4148.18,1428.18 L 4141.11,1431.1 L 4120,1428.16 L 4099.14,1431.25 L 4080.09,1440.26 L 4064.46,1454.42 L 4053.63,1472.51 L 4048.5,1492.96 L 4048.31,1623.65 L 4046.82,1627.26 L 4040,1634.34 L 4028.73,1651.21 L 4020.97,1669.96 L 4017.01,1689.86 L 4017.01,1710.14 L 4020.97,1730.04 L 4028.73,1748.78 L 4040,1765.65 L 4054.34,1780 L 4073.22,1792.8 L 4076.24,1799.11 L 4075.3,1804.32 L 4073.22,1807.2 L 4054.34,1820 L 4040,1834.34 L 4028.73,1851.21 L 4020.97,1869.96 L 4017.01,1889.86 L 4017.01,1910.14 L 4020.97,1930.04 L 4028.73,1948.78 L 4040,1965.65 L 4054.34,1980 L 4073.22,1992.8 L 4076.24,1999.11 L 4075.3,2004.32 L 4073.22,2007.2 L 4054.34,2020 L 4040,2034.34 L 4028.73,2051.21 L 4020.97,2069.96 L 4017.01,2089.86 L 4017.01,2110.14 L 4020.97,2130.04 L 4028.73,2148.78 L 4040,2165.65 L 4046.82,2172.74 L 4048.31,2176.35 L 4048.5,2221.7 L 4046.59,2227.58 L 4040,2234.35 L 4028.73,2251.21 L 4020.97,2269.96 L 4017.01,2289.86 L 4017.01,2310.14 L 4020.97,2330.04 L 4028.73,2348.78 L 4040,2365.65 L 4054.34,2380 L 4073.22,2392.8 L 4076.24,2399.11 L 4075.3,2404.32 L 4073.22,2407.2 L 4054.34,2420 L 4040,2434.34 L 4028.73,2451.21 L 4020.97,2469.96 L 4017.01,2489.86 L 4017.01,2510.14 L 4020.97,2530.04 L 4028.73,2548.78 L 4040,2565.65 L 4054.34,2580 L 4073.22,2592.8 L 4076.24,2599.11 L 4075.3,2604.32 L 4073.22,2607.2 L 4054.34,2620 L 4040,2634.34 L 4028.73,2651.21 L 4020.97,2669.96 L 4017.01,2689.86 L 4017.01,2710.14 L 4020.97,2730.04 L 4028.73,2748.78 L 4040,2765.65 L 4054.34,2780 L 4073.22,2792.8 L 4076.24,2799.11 L 4075.3,2804.32 L 4073.22,2807.2 L 4054.34,2820 L 4040,2834.34 L 4028.73,2851.21 L 4020.97,2869.96 L 4017.01,2889.86 L 4017.01,2910.14 L 4020.97,2930.04 L 4028.73,2948.78 L 4040,2965.65 L 4054.34,2980 L 4073.22,2992.8 L 4076.24,2999.11 L 4075.3,3004.32 L 4073.22,3007.2 L 4054.34,3020 L 4040,3034.34 L 4028.73,3051.21 L 4020.97,3069.96 L 4017.01,3089.86 L 4017.01,3110.14M 4461.16,4803.17 L 4464.83,4834.1 L 4474.49,4863.81 L 4485.01,4883.48 L 4500.55,4891.17 L 4523.66,4868.06 L 4512.1,4848.04 L 4504.47,4824.56 L 4501.89,4800 L 4504.47,4775.44 L 4512.1,4751.96 L 4523.66,4731.94 L 4500.55,4708.83 L 4485.1,4716.47 L 4472.03,4742.14 L 4463.59,4772.12 L 4461.16,4803.17M 4528.83,4919.45 L 4536.47,4934.89 L 4562.14,4947.97 L 4592.12,4956.41 L 4623.17,4958.84 L 4654.1,4955.17 L 4683.81,4945.51 L 4703.48,4934.99 L 4711.17,4919.45 L 4687.71,4896 L 4679.06,4902.29 L 4656.5,4912.33 L 4632.35,4917.46 L 4607.65,4917.46 L 4583.5,4912.33 L 4560.94,4902.29 L 4552.29,4896 L 4528.83,4919.45M 4528.83,4680.55 L 4552.29,4704 L 4560.94,4697.71 L 4583.5,4687.67 L 4607.65,4682.54 L 4632.35,4682.54 L 4656.5,4687.67 L 4679.06,4697.71 L 4687.71,4704 L 4711.17,4680.55 L 4703.53,4665.1 L 4677.86,4652.03 L 4647.88,4643.59 L 4616.83,4641.16 L 4585.9,4644.83 L 4556.19,4654.49 L 4536.51,4665.01 L 4528.83,4680.55M 4561.65,817.631 L 4562.47,825.949 L 4564.76,833.491 L 4573.47,846.531 L 4586.51,855.243 L 4594.05,857.531 L 4602.37,858.351 L 4693.35,858.12 L 4700,851.468 L 4700,818.11 L 4601.89,818.11 L 4601.89,720 L 4568.53,720 L 4561.88,726.653 L 4561.65,817.631M 4561.65,582.368 L 4561.88,673.347 L 4568.53,680 L 4601.89,680 L 4601.89,581.89 L 4700,581.89 L 4700,548.53 L 4693.35,541.877 L 4602.37,541.647 L 4594.05,542.467 L 4586.51,544.755 L 4573.47,553.467 L 4564.76,566.507 L 4562.47,574.049 L 4561.65,582.368M 4710.33,3905.06 L 4713.31,3925.13 L 4720.22,3944.46 L 4723.17,3949.97 L 4732.66,3952.76 L 4757.49,3927.93 L 4752.09,3913.1 L 4750.71,3900 L 4752.09,3886.9 L 4757.49,3872.07 L 4732.66,3847.24 L 4723.44,3849.94 L 4716.26,3865.12 L 4711.33,3884.8 L 4710.33,3905.06M 4716.34,4731.94 L 4727.9,4751.96 L 4735.53,4775.44 L 4738.11,4800 L 4735.53,4824.56 L 4727.9,4848.04 L 4716.34,4868.06 L 4739.45,4891.17 L 4754.89,4883.53 L 4767.97,4857.86 L 4776.41,4827.88 L 4778.84,4796.83 L 4775.17,4765.9 L 4765.51,4736.19 L 4754.99,4716.51 L 4739.45,4708.83 L 4716.34,4731.94M 4740,581.89 L 4838.11,581.89 L 4838.11,680 L 4871.47,680 L 4878.12,673.347 L 4878.35,582.367 L 4877.53,574.049 L 4875.24,566.507 L 4866.53,553.467 L 4853.49,544.755 L 4845.95,542.467 L 4837.63,541.647 L 4746.65,541.878 L 4740,548.53 L 4740,581.89M 4740,851.468 L 4746.65,858.12 L 4837.63,858.351 L 4845.95,857.531 L 4853.49,855.243 L 4866.53,846.531 L 4875.24,833.491 L 4877.53,825.949 L 4878.35,817.631 L 4878.12,726.653 L 4871.47,720 L 4838.11,720 L 4838.11,818.11 L 4740,818.11 L 4740,851.468M 4760.94,3981.04 L 4763.64,3990.25 L 4778.82,3997.43 L 4798.5,4002.36 L 4818.76,4003.37 L 4838.83,4000.39 L 4858.16,3993.48 L 4863.67,3990.53 L 4866.46,3981.04 L 4841.58,3956.16 L 4833.17,3959.91 L 4820.29,3962.65 L 4807.12,3962.65 L 4794.24,3959.91 L 4785.82,3956.16 L 4760.94,3981.04M 4760.94,3818.96 L 4785.82,3843.84 L 4794.24,3840.09 L 4807.12,3837.35 L 4820.29,3837.35 L 4833.17,3840.09 L 4841.58,3843.84 L 4866.46,3818.96 L 4863.75,3809.74 L 4848.58,3802.56 L 4828.9,3797.63 L 4808.64,3796.63 L 4788.57,3799.61 L 4769.24,3806.52 L 4763.73,3809.46 L 4760.94,3818.96M 4869.91,3872.07 L 4875.32,3886.9 L 4876.69,3900 L 4875.32,3913.1 L 4869.91,3927.93 L 4894.74,3952.76 L 4903.96,3950.05 L 4911.14,3934.88 L 4916.07,3915.2 L 4917.07,3894.94 L 4914.09,3874.87 L 4904.23,3850.03 L 4894.74,3847.24 L 4869.91,3872.07 z " style="fill-opacity:1.000000;fill:rgb(74,236,41);stroke:rgb(0,0,0);stroke-width:2"/></g>
<g fill-rule="evenodd"><path d="M 188.504,4600 L 188.504,1100 L 189.109,1093.86 L 193.812,1082.5 L 202.502,1073.81 L 213.855,1069.11 L 220,1068.5 L 1206.95,1068.5 L 1388.5,886.954 L 1388.5,766.535 L 1372.83,766.535 L 1357.69,764.944 L 1343.21,760.239 L 1330.02,752.625 L 1318.71,742.437 L 1309.76,730.118 L 1303.56,716.208 L 1300.4,701.314 L 1300.4,686.087 L 1303.56,671.194 L 1309.76,657.283 L 1318.71,644.965 L 1330.02,634.776 L 1343.21,627.163 L 1357.69,622.458 L 1372.83,620.866 L 1467.17,620.866 L 1482.31,622.458 L 1496.79,627.163 L 1509.98,634.776 L 1521.29,644.965 L 1530.24,657.283 L 1532.43,662.204 L 2291.82,662.204 L 2294.01,657.283 L 2302.96,644.965 L 2314.28,634.776 L 2327.46,627.163 L 2341.94,622.458 L 2357.09,620.866 L 2451.42,620.866 L 2466.56,622.458 L 2481.04,627.163 L 2494.23,634.776 L 2505.54,644.965 L 2514.49,657.283 L 2520.69,671.194 L 2523.85,686.087 L 2523.85,701.314 L 2520.69,716.208 L 2514.49,730.118 L 2505.54,742.437 L 2494.23,752.625 L 2481.04,760.239 L 2466.56,764.944 L 2451.42,766.535 L 2357.09,766.535 L 2341.94,764.944 L 2327.46,760.239 L 2314.28,752.625 L 2302.96,742.437 L 2294.01,730.118 L 2291.82,725.196 L 1532.43,725.196 L 1530.24,730.118 L 1521.29,742.437 L 1509.98,752.625 L 1496.79,760.239 L 1482.31,764.944 L 1467.17,766.535 L 1451.5,766.535 L 1451.5,900 L 1450.89,906.145 L 1446.19,917.498 L 1242.27,1122.27 L 1234.3,1128.06 L 1224.93,1131.11 L 251.496,1131.5 L 251.496,4568.5 L 665.846,4568.5 L 669.038,4562.97 L 677.85,4553.19 L 688.504,4545.45 L 700.534,4540.09 L 713.416,4537.35 L 726.584,4537.35 L 739.466,4540.09 L 751.496,4545.45 L 762.15,4553.19 L 770.962,4562.97 L 777.546,4574.38 L 781.616,4586.9 L 782.992,4600 L 781.616,4613.1 L 777.546,4625.62 L 770.962,4637.03 L 762.15,4646.81 L 751.496,4654.55 L 739.466,4659.91 L 726.584,4662.65 L 713.416,4662.65 L 700.534,4659.91 L 688.504,4654.55 L 677.85,4646.81 L 669.038,4637.03 L 665.846,4631.5 L 220,4631.5 L 207.947,4629.1 L 202.502,4626.19 L 193.812,4617.5 L 189.109,4606.14 L 188.504,4600 z " style="fill-opacity:1.000000;fill:rgb(205,186,171);stroke:rgb(0,0,0);stroke-width:2"/></g>
<g fill-rule="evenodd"><path d="M 388.504,5100 L 391.227,5087.19 L 394.519,5081.49 L 402.502,5073.81 L 410.267,5070.05 L 416.708,5068.68 L 423.292,5068.68 L 432.053,5070.9 L 442.271,5077.73 L 533.046,5168.5 L 3006.95,5168.5 L 3317.71,4857.75 L 3312.1,4848.04 L 3304.47,4824.56 L 3301.89,4800 L 3304.47,4775.44 L 3312.1,4751.96 L 3324.45,4730.58 L 3340.97,4712.23 L 3360.94,4697.71 L 3383.5,4687.67 L 3407.65,4682.54 L 3432.35,4682.54 L 3456.5,4687.67 L 3479.06,4697.71 L 3499.03,4712.23 L 3515.55,4730.58 L 3527.9,4751.96 L 3535.53,4775.44 L 3538.11,4800 L 3535.53,4824.56 L 3527.9,4848.04 L 3515.55,4869.42 L 3499.03,4887.77 L 3479.06,4902.29 L 3456.5,4912.33 L 3432.35,4917.46 L 3407.65,4917.46 L 3383.5,4912.33 L 3361.85,4902.69 L 3042.27,5222.27 L 3032.05,5229.1 L 3020,5231.5 L 520,5231.5 L 507.947,5229.1 L 497.729,5222.27 L 397.729,5122.27 L 390.901,5112.05 L 388.504,5100 z " style="fill-opacity:1.000000;fill:rgb(242,251,227);stroke:rgb(0,0,0);stroke-width:2"/></g>
<g fill-rule="evenodd"><path d="M 388.504,4300 L 389.109,2593.86 L 390.901,2587.95 L 397.729,2577.73 L 407.947,2570.9 L 420,2568.5 L 665.846,2568.5 L 669.038,2562.97 L 677.85,2553.19 L 688.504,2545.45 L 700.534,2540.09 L 713.416,2537.35 L 726.584,2537.35 L 739.466,2540.09 L 751.496,2545.45 L 762.15,2553.19 L 770.962,2562.97 L 777.546,2574.38 L 781.616,2586.9 L 782.992,2600 L 781.616,2613.1 L 777.546,2625.62 L 770.962,2637.03 L 762.15,2646.81 L 751.496,2654.55 L 739.466,2659.91 L 726.584,2662.65 L 713.416,2662.65 L 700.534,2659.91 L 688.504,2654.55 L 677.85,2646.81 L 669.038,2637.03 L 665.846,2631.5 L 451.496,2631.5 L 451.496,4300 L 448.773,4312.81 L 441.075,4323.41 L 429.733,4329.95 L 416.708,4331.32 L 407.947,4329.1 L 397.729,4322.27 L 390.901,4312.05 L 388.504,4300 z " style="fill-opacity:1.000000;fill:rgb(70,124,194);stroke:rgb(0,0,0);stroke-width:2"/></g>
<g fill-rule="evenodd"><path d="M 657.008,4400 L 658.384,4386.9 L 662.454,4374.38 L 669.038,4362.97 L 677.85,4353.19 L 688.504,4345.45 L 700.534,4340.09 L 713.416,4337.35 L 726.584,4337.35 L 739.466,4340.09 L 751.496,4345.45 L 762.15,4353.19 L 770.962,4362.97 L 777.546,4374.38 L 781.616,4386.9 L 782.992,4400 L 781.616,4413.1 L 777.546,4425.62 L 770.962,4437.03 L 762.15,4446.81 L 751.496,4454.55 L 739.466,4459.91 L 726.584,4462.65 L 713.416,4462.65 L 700.534,4459.91 L 688.504,4454.55 L 677.85,4446.81 L 669.038,4437.03 L 662.454,4425.62 L 658.384,4413.1 L 657.008,4400 z " style="fill-opacity:1.000000;fill:rgb(84,248,27);stroke:rgb(0,0,0);stroke-width:2"/></g>
<g fill-rule="evenodd"><path d="M 657.008,4200 L 658.384,4186.9 L 662.454,4174.38 L 669.038,4162.97 L 677.85,4153.19 L 688.504,4145.45 L 700.534,4140.09 L 713.416,4137.35 L 726.584,4137.35 L 739.466,4140.09 L 751.496,4145.45 L 762.15,4153.19 L 770.962,4162.97 L 777.546,4174.38 L 781.616,4186.9 L 782.992,4200 L 781.616,4213.1 L 777.546,4225.62 L 770.962,4237.03 L 762.15,4246.81 L 751.496,4254.55 L 739.466,4259.91 L 726.584,4262.65 L 713.416,4262.65 L 700.534,4259.91 L 688.504,4254.55 L 677.85,4246.81 L 669.038,4237.03 L 662.454,4225.62 L 658.384,4213.1 L 657.008,4200 z " style="fill-opacity:1.000000;fill:rgb(232,231,141);stroke:rgb(0,0,0);stroke-width:2"/></g>
<g fill-rule="evenodd"><path d="M 657.008,4000 L 658.384,3986.9 L 662.454,3974.38 L 669.038,3962.97 L 677.85,3953.19 L 688.504,3945.45 L 700.534,3940.09 L 713.416,3937.35 L 726.584,3937.35 L 739.466,3940.09 L 751.496,3945.45 L 762.15,3953.19 L 770.962,3962.97 L 777.546,3974.38 L 781.616,3986.9 L 782.992,4000 L 781.616,4013.1 L 777.546,4025.62 L 770.962,4037.03 L 762.15,4046.81 L 751.496,4054.55 L 739.466,4059.91 L 726.584,4062.65 L 713.416,4062.65 L 700.534,4059.91 L 688.504,4054.55 L 677.85,4046.81 L 669.038,4037.03 L 662.454,4025.62 L 658.384,4013.1 L 657.008,4000 z " style="fill-opacity:1.000000;fill:rgb(118,90,46);stroke:rgb(0,0,0);stroke-width:2"/></g>
<g fill-rule="evenodd"><path d="M 657.008,3800 L 658.384,3786.9 L 662.454,3774.38 L 669.038,3762.97 L 677.85,3753.19 L 688.504,3745.45 L 700.534,3740.09 L 713.416,3737.35 L 726.584,3737.35 L 739.466,3740.09 L 751.496,3745.45 L 762.15,3753.19 L 770.962,3762.97 L 777.546,3774.38 L 781.616,3786.9 L 782.992,3800 L 781.616,3813.1 L 777.546,3825.62 L 770.962,3837.03 L 762.15,3846.81 L 751.496,3854.55 L 739.466,3859.91 L 726.584,3862.65 L 713.416,3862.65 L 700.534,3859.91 L 688.504,3854.55 L 677.85,3846.81 L 669.038,3837.03 L 662.454,3825.62 L 658.384,3813.1 L 657.008,3800 z " style="fill-opacity:1.000000;fill:rgb(99,51,159);stroke:rgb(0,0,0);stroke-width:2"/></g>
<g fill-rule="evenodd"><path d="M 657.008,3600 L 658.384,3586.9 L 662.454,3574.38 L 669.038,3562.97 L 677.85,3553.19 L 688.504,3545.45 L 700.534,3540.09 L 713.416,3537.35 L 726.584,3537.35 L 739.466,3540.09 L 751.496,3545.45 L 762.15,3553.19 L 770.962,3562.97 L 777.546,3574.38 L 781.616,3586.9 L 782.992,3600 L 781.616,3613.1 L 777.546,3625.62 L 770.962,3637.03 L 762.15,3646.81 L 751.496,3654.55 L 739.466,3659.91 L 726.584,3662.65 L 713.416,3662.65 L 700.534,3659.91 L 688.504,3654.55 L 677.85,3646.81 L 669.038,3637.03 L 662.454,3625.62 L 658.384,3613.1 L 657.008,3600 z " style="fill-opacity:1.000000;fill:rgb(201,154,102);stroke:rgb(0,0,0);stroke-width:2"/></g>
<g fill-rule="evenodd"><path d="M 657.008,3400 L 658.384,3386.9 L 662.454,3374.38 L 669.038,3362.97 L 677.85,3353.19 L 688.504,3345.45 L 700.534,3340.09 L 713.416,3337.35 L 726.584,3337.35 L 739.466,3340.09 L 751.496,3345.45 L 762.15,3353.19 L 770.962,3362.97 L 777.546,3374.38 L 781.616,3386.9 L 782.992,3400 L 781.616,3413.1 L 777.546,3425.62 L 770.962,3437.03 L 762.15,3446.81 L 751.496,3454.55 L 739.466,3459.91 L 726.584,3462.65 L 713.416,3462.65 L 700.534,3459.91 L 688.504,3454.55 L 677.85,3446.81 L 669.038,3437.03 L 662.454,3425.62 L 658.384,3413.1 L 657.008,3400 z " style="fill-opacity:1.000000;fill:rgb(50,13,183);stroke:rgb(0,0,0);stroke-width:2"/></g>
<g fill-rule="evenodd"><path d="M 657.008,3200 L 658.384,3186.9 L 662.454,3174.38 L 669.038,3162.97 L 677.85,3153.19 L 688.504,3145.45 L 700.534,3140.09 L 713.416,3137.35 L 726.584,3137.35 L 739.466,3140.09 L 751.496,3145.45 L 762.15,3153.19 L 770.962,3162.97 L 777.546,3174.38 L 781.616,3186.9 L 782.992,3200 L 781.616,3213.1 L 777.546,3225.62 L 770.962,3237.03 L 762.15,3246.81 L 751.496,3254.55 L 739.466,3259.91 L 726.584,3262.65 L 713.416,3262.65 L 700.534,3259.91 L 688.504,3254.55 L 677.85,3246.81 L 669.038,3237.03 L 662.454,3225.62 L 658.384,3213.1 L 657.008,3200 z " style="fill-opacity:1.000000;fill:rgb(49,88,163);stroke:rgb(0,0,0);stroke-width:2"/></g>
<g fill-rule="evenodd"><path d="M 657.008,3000 L 658.384,2986.9 L 662.454,2974.38 L 669.038,2962.97 L 677.85,2953.19 L 688.504,2945.45 L 700.534,2940.09 L 713.416,2937.35 L 726.584,2937.35 L 739.466,2940.09 L 751.496,2945.45 L 762.15,2953.19 L 770.962,2962.97 L 774.154,2968.5 L 1106.95,2968.5 L 1288.5,2786.95 L 1288.5,2000 L 1290.9,1987.95 L 1297.73,1977.73 L 1697.73,1577.73 L 1705.7,1571.94 L 1720,1568.5 L 2206.95,1568.5 L 2302.5,1473.81 L 2313.86,1469.11 L 2323.29,1468.68 L 2332.05,1470.9 L 2342.27,1477.73 L 2349.1,1487.95 L 2351.5,1500 L 2349.1,1512.05 L 2345.48,1518.51 L 2242.27,1622.27 L 2229.73,1629.95 L 2220,1631.5 L 1733.05,1631.5 L 1351.5,2013.05 L 1351.5,2800 L 1350.89,2806.14 L 1346.19,2817.5 L 1142.27,3022.27 L 1129.73,3029.95 L 1120,3031.5 L 774.154,3031.5 L 770.962,3037.03 L 762.15,3046.81 L 751.496,3054.55 L 739.466,3059.91 L 726.584,3062.65 L 713.416,3062.65 L 700.534,3059.91 L 688.504,3054.55 L 677.85,3046.81 L 669.038,3037.03 L 662.454,3025.62 L 658.384,3013.1 L 657.008,3000 z " style="fill-opacity:1.000000;fill:rgb(90,37,93);stroke:rgb(0,0,0);stroke-width:2"/></g>
<g fill-rule="evenodd"><path d="M 657.008,2800 L 658.384,2786.9 L 662.454,2774.38 L 669.038,2762.97 L 677.85,2753.19 L 688.504,2745.45 L 700.534,2740.09 L 713.416,2737.35 L 726.584,2737.35 L 736.085,2739.37 L 988.504,2486.95 L 988.504,1700 L 990.901,1687.95 L 997.729,1677.73 L 1297.73,1377.73 L 1310.27,1370.05 L 1320,1368.5 L 2120,1368.5 L 2132.05,1370.9 L 2142.27,1377.73 L 2148.77,1387.19 L 2150.89,1393.86 L 2150.89,1406.14 L 2149.1,1412.05 L 2145.48,1418.51 L 2137.5,1426.19 L 2129.73,1429.95 L 2123.29,1431.32 L 1333.05,1431.5 L 1051.5,1713.05 L 1051.5,2500 L 1049.1,2512.05 L 1042.27,2522.27 L 780.64,2783.9 L 782.992,2800 L 781.616,2813.1 L 777.546,2825.62 L 770.962,2837.03 L 762.15,2846.81 L 751.496,2854.55 L 739.466,2859.91 L 726.584,2862.65 L 713.416,2862.65 L 700.534,2859.91 L 688.504,2854.55 L 677.85,2846.81 L 669.038,2837.03 L 662.454,2825.62 L 658.384,2813.1 L 657.008,2800 z " style="fill-opacity:1.000000;fill:rgb(5,23,88);stroke:rgb(0,0,0);stroke-width:2"/></g>
<g fill-rule="evenodd"><path d="M 657.008,2200 L 658.384,2186.9 L 662.454,2174.38 L 669.038,2162.97 L 677.85,2153.19 L 688.504,2145.45 L 700.534,2140.09 L 713.416,2137.35 L 726.584,2137.35 L 739.466,2140.09 L 751.496,2145.45 L 762.15,2153.19 L 770.962,2162.97 L 777.546,2174.38 L 781.616,2186.9 L 782.992,2200 L 781.616,2213.1 L 777.546,2225.62 L 770.962,2237.03 L 762.15,2246.81 L 751.496,2254.55 L 739.466,2259.91 L 726.584,2262.65 L 713.416,2262.65 L 700.534,2259.91 L 688.504,2254.55 L 677.85,2246.81 L 669.038,2237.03 L 662.454,2225.62 L 658.384,2213.1 L 657.008,2200 z " style="fill-opacity:1.000000;fill:rgb(233,94,212);stroke:rgb(0,0,0);stroke-width:2"/></g>
<g fill-rule="evenodd"><path d="M 657.008,2000 L 658.384,1986.9 L 662.454,1974.38 L 669.038,1962.97 L 677.85,1953.19 L 688.504,1945.45 L 700.534,1940.09 L 713.416,1937.35 L 726.584,1937.35 L 739.466,1940.09 L 751.496,1945.45 L 762.15,1953.19 L 770.962,1962.97 L 777.546,1974.38 L 781.616,1986.9 L 782.992,2000 L 781.616,2013.1 L 777.546,2025.62 L 770.962,2037.03 L 762.15,2046.81 L 751.496,2054.55 L 739.466,2059.91 L 726.584,2062.65 L 713.416,2062.65 L 700.534,2059.91 L 688.504,2054.55 L 677.85,2046.81 L 669.038,2037.03 L 662.454,2025.62 L 658.384,2013.1 L 657.008,2000 z " style="fill-opacity:1.000000;fill:rgb(171,178,205);stroke:rgb(0,0,0);stroke-width:2"/></g>
<g fill-rule="evenodd"><path d="M 657.008,1862.99 L 657.008,1737.01 L 782.992,1737.01 L 782.992,1862.99 L 657.008,1862.99 z " style="fill-opacity:1.000000;fill:rgb(198,155,180);stroke:rgb(0,0,0);stroke-width:2"/></g>
<g fill-rule="evenodd"><path d="M 1857.01,4400 L 1858.38,4386.9 L 1862.45,4374.38 L 1869.04,4362.97 L 1877.85,4353.19 L 1888.5,4345.45 L 1900.53,4340.09 L 1913.42,4337.35 L 1926.58,4337.35 L 1939.47,4340.09 L 1951.5,4345.45 L 1962.15,4353.19 L 1970.96,4362.97 L 1977.55,4374.38 L 1981.62,4386.9 L 1982.99,4400 L 1981.62,4413.1 L 1977.55,4425.62 L 1970.96,4437.03 L 1962.15,4446.81 L 1951.5,4454.55 L 1939.47,4459.91 L 1926.58,4462.65 L 1913.42,4462.65 L 1900.53,4459.91 L 1888.5,4454.55 L 1877.85,4446.81 L 1869.04,4437.03 L 1862.45,4425.62 L 1858.38,4413.1 L 1857.01,4400 z " style="fill-opacity:1.000000;fill:rgb(84,17,14);stroke:rgb(0,0,0);stroke-width:2"/></g>
<g fill-rule="evenodd"><path d="M 1857.01,4200 L 1858.38,4186.9 L 1862.45,4174.38 L 1869.04,4162.97 L 1877.85,4153.19 L 1888.5,4145.45 L 1900.53,4140.09 L 1913.42,4137.35 L 1926.58,4137.35 L 1939.47,4140.09 L 1951.5,4145.45 L 1962.15,4153.19 L 1970.96,4162.97 L 1977.55,4174.38 L 1981.62,4186.9 L 1982.99,4200 L 1981.62,4213.1 L 1977.55,4225.62 L 1970.96,4237.03 L 1962.15,4246.81 L 1951.5,4254.55 L 1939.47,4259.91 L 1926.58,4262.65 L 1913.42,4262.65 L 1900.53,4259.91 L 1888.5,4254.55 L 1877.85,4246.81 L 1869.04,4237.03 L 1862.45,4225.62 L 1858.38,4213.1 L 1857.01,4200 z " style="fill-opacity:1.000000;fill:rgb(130,116,65);stroke:rgb(0,0,0);stroke-width:2"/></g>
<g fill-rule="evenodd"><path d="M 1857.01,4000 L 1858.38,3986.9 L 1862.45,3974.38 L 1869.04,3962.97 L 1877.85,3953.19 L 1888.5,3945.45 L 1900.53,3940.09 L 1913.42,3937.35 L 1926.58,3937.35 L 1939.47,3940.09 L 1951.5,3945.45 L 1962.15,3953.19 L 1970.96,3962.97 L 1977.55,3974.38 L 1981.62,3986.9 L 1982.99,4000 L 1981.62,4013.1 L 1977.55,4025.62 L 1970.96,4037.03 L 1962.15,4046.81 L 1951.5,4054.55 L 1939.47,4059.91 L 1926.58,4062.65 L 1913.42,4062.65 L 1900.53,4059.91 L 1888.5,4054.55 L 1877.85,4046.81 L 1869.04,4037.03 L 1862.45,4025.62 L 1858.38,4013.1 L 1857.01,4000 z " style="fill-opacity:1.000000;fill:rgb(33,61,220);stroke:rgb(0,0,0);stroke-width:2"/></g>
<g fill-rule="evenodd"><path d="M 1857.01,3800 L 1858.38,3786.9 L 1862.45,3774.38 L 1869.04,3762.97 L 1877.85,3753.19 L 1888.5,3745.45 L 1900.53,3740.09 L 1913.42,3737.35 L 1926.58,3737.35 L 1939.47,3740.09 L 1951.5,3745.45 L 1962.15,3753.19 L 1970.96,3762.97 L 1977.55,3774.38 L 1981.62,3786.9 L 1982.99,3800 L 1981.62,3813.1 L 1977.55,3825.62 L 1970.96,3837.03 L 1962.15,3846.81 L 1951.5,3854.55 L 1939.47,3859.91 L 1926.58,3862.65 L 1913.42,3862.65 L 1900.53,3859.91 L 1888.5,3854.55 L 1877.85,3846.81 L 1869.04,3837.03 L 1862.45,3825.62 L 1858.38,3813.1 L 1857.01,3800 z " style="fill-opacity:1.000000;fill:rgb(135,112,233);stroke:rgb(0,0,0);stroke-width:2"/></g>
<g fill-rule="evenodd"><path d="M 1857.01,3600 L 1858.38,3586.9 L 1862.45,3574.38 L 1869.04,3562.97 L 1877.85,3553.19 L 1888.5,3545.45 L 1900.53,3540.09 L 1913.42,3537.35 L 1926.58,3537.35 L 1939.47,3540.09 L 1951.5,3545.45 L 1962.15,3553.19 L 1970.96,3562.97 L 1977.55,3574.38 L 1981.62,3586.9 L 1982.99,3600 L 1981.62,3613.1 L 1977.55,3625.62 L 1970.96,3637.03 L 1962.15,3646.81 L 1951.5,3654.55 L 1939.47,3659.91 L 1926.58,3662.65 L 1913.42,3662.65 L 1900.53,3659.91 L 1888.5,3654.55 L 1877.85,3646.81 L 1869.04,3637.03 L 1862.45,3625.62 L 1858.38,3613.1 L 1857.01,3600 z " style="fill-opacity:1.000000;fill:rgb(62,161,65);stroke:rgb(0,0,0);stroke-width:2"/></g>
<g fill-rule="evenodd"><path d="M 1857.01,3400 L 1858.38,3386.9 L 1862.45,3374.38 L 1869.04,3362.97 L 1877.85,3353.19 L 1888.5,3345.45 L 1900.53,3340.09 L 1913.42,3337.35 L 1926.58,3337.35 L 1939.47,3340.09 L 1951.5,3345.45 L 1962.15,3353.19 L 1970.96,3362.97 L 1974.15,3368.5 L 2324.93,3368.89 L 2334.3,3371.94 L 2342.27,3377.73 L 2503.91,3539.37 L 2513.42,3537.35 L 2526.58,3537.35 L 2539.47,3540.09 L 2551.5,3545.45 L 2562.15,3553.19 L 2570.96,3562.97 L 2574.15,3568.5 L 2831.39,3568.5 L 2845.69,3571.94 L 2853.66,3577.73 L 3244.44,3968.5 L 3265.85,3968.5 L 3269.04,3962.97 L 3277.85,3953.19 L 3288.5,3945.45 L 3300.53,3940.09 L 3313.42,3937.35 L 3326.58,3937.35 L 3339.47,3940.09 L 3351.5,3945.45 L 3362.15,3953.19 L 3370.96,3962.97 L 3377.55,3974.38 L 3381.62,3986.9 L 3382.99,4000 L 3381.62,4013.1 L 3377.55,4025.62 L 3370.96,4037.03 L 3362.15,4046.81 L 3351.5,4054.55 L 3339.47,4059.91 L 3326.58,4062.65 L 3313.42,4062.65 L 3300.53,4059.91 L 3288.5,4054.55 L 3277.85,4046.81 L 3269.04,4037.03 L 3265.85,4031.5 L 3225.25,4030.89 L 3213.89,4026.19 L 2818.35,3631.5 L 2574.15,3631.5 L 2570.96,3637.03 L 2562.15,3646.81 L 2551.5,3654.55 L 2539.47,3659.91 L 2526.58,3662.65 L 2513.42,3662.65 L 2500.53,3659.91 L 2488.5,3654.55 L 2477.85,3646.81 L 2469.04,3637.03 L 2462.45,3625.62 L 2458.38,3613.1 L 2457.01,3600 L 2459.36,3583.9 L 2306.95,3431.5 L 1974.15,3431.5 L 1970.96,3437.03 L 1962.15,3446.81 L 1951.5,3454.55 L 1939.47,3459.91 L 1926.58,3462.65 L 1913.42,3462.65 L 1900.53,3459.91 L 1888.5,3454.55 L 1877.85,3446.81 L 1869.04,3437.03 L 1862.45,3425.62 L 1858.38,3413.1 L 1857.01,3400 z " style="fill-opacity:1.000000;fill:rgb(225,252,103);stroke:rgb(0,0,0);stroke-width:2"/></g>
<g fill-rule="evenodd"><path d="M 1857.01,3200 L 1858.38,3186.9 L 1862.45,3174.38 L 1869.04,3162.97 L 1877.85,3153.19 L 1888.5,3145.45 L 1900.53,3140.09 L 1913.42,3137.35 L 1926.58,3137.35 L 1939.47,3140.09 L 1951.5,3145.45 L 1962.15,3153.19 L 1970.96,3162.97 L 1977.55,3174.38 L 1981.62,3186.9 L 1982.99,3200 L 1981.62,3213.1 L 1977.55,3225.62 L 1970.96,3237.03 L 1962.15,3246.81 L 1951.5,3254.55 L 1939.47,3259.91 L 1926.58,3262.65 L 1913.42,3262.65 L 1900.53,3259.91 L 1888.5,3254.55 L 1877.85,3246.81 L 1869.04,3237.03 L 1862.45,3225.62 L 1858.38,3213.1 L 1857.01,3200 z " style="fill-opacity:1.000000;fill:rgb(62,1,126);stroke:rgb(0,0,0);stroke-width:2"/></g>
<g fill-rule="evenodd"><path d="M 1857.01,3000 L 1858.38,2986.9 L 1862.45,2974.38 L 1869.04,2962.97 L 1877.85,2953.19 L 1888.5,2945.45 L 1900.53,2940.09 L 1913.42,2937.35 L 1926.58,2937.35 L 1939.47,2940.09 L 1951.5,2945.45 L 1962.15,2953.19 L 1970.96,2962.97 L 1977.55,2974.38 L 1981.62,2986.9 L 1982.99,3000 L 1981.62,3013.1 L 1977.55,3025.62 L 1970.96,3037.03 L 1962.15,3046.81 L 1951.5,3054.55 L 1939.47,3059.91 L 1926.58,3062.65 L 1913.42,3062.65 L 1900.53,3059.91 L 1888.5,3054.55 L 1877.85,3046.81 L 1869.04,3037.03 L 1862.45,3025.62 L 1858.38,3013.1 L 1857.01,3000 z " style="fill-opacity:1.000000;fill:rgb(151,234,220);stroke:rgb(0,0,0);stroke-width:2"/></g>
<g fill-rule="evenodd"><path d="M 1857.01,2800 L 1858.38,2786.9 L 1862.45,2774.38 L 1869.04,2762.97 L 1877.85,2753.19 L 1888.5,2745.45 L 1900.53,2740.09 L 1913.42,2737.35 L 1926.58,2737.35 L 1939.47,2740.09 L 1951.5,2745.45 L 1962.15,2753.19 L 1970.96,2762.97 L 1977.55,2774.38 L 1981.62,2786.9 L 1982.99,2800 L 1981.62,2813.1 L 1977.55,2825.62 L 1970.96,2837.03 L 1962.15,2846.81 L 1951.5,2854.55 L 1939.47,2859.91 L 1926.58,2862.65 L 1913.42,2862.65 L 1900.53,2859.91 L 1888.5,2854.55 L 1877.85,2846.81 L 1869.04,2837.03 L 1862.45,2825.62 L 1858.38,2813.1 L 1857.01,2800 z " style="fill-opacity:1.000000;fill:rgb(107,150,143);stroke:rgb(0,0,0);stroke-width:2"/></g>
<g fill-rule="evenodd"><path d="M 1857.01,2600 L 1858.38,2586.9 L 1862.45,2574.38 L 1869.04,2562.97 L 1877.85,2553.19 L 1888.5,2545.45 L 1900.53,2540.09 L 1913.42,2537.35 L 1926.58,2537.35 L 1939.47,2540.09 L 1951.5,2545.45 L 1962.15,2553.19 L 1970.96,2562.97 L 1977.55,2574.38 L 1981.62,2586.9 L 1982.99,2600 L 1981.62,2613.1 L 1977.55,2625.62 L 1970.96,2637.03 L 1962.15,2646.81 L 1951.5,2654.55 L 1939.47,2659.91 L 1926.58,2662.65 L 1913.42,2662.65 L 1900.53,2659.91 L 1888.5,2654.55 L 1877.85,2646.81 L 1869.04,2637.03 L 1862.45,2625.62 L 1858.38,2613.1 L 1857.01,2600 z " style="fill-opacity:1.000000;fill:rgb(56,92,42);stroke:rgb(0,0,0);stroke-width:2"/></g>
<g fill-rule="evenodd"><path d="M 1857.01,2400 L 1858.38,2386.9 L 1862.45,2374.38 L 1869.04,2362.97 L 1877.85,2353.19 L 1888.5,2345.45 L 1900.53,2340.09 L 1913.42,2337.35 L 1926.58,2337.35 L 1939.47,2340.09 L 1951.5,2345.45 L 1962.15,2353.19 L 1970.96,2362.97 L 1977.55,2374.38 L 1981.62,2386.9 L 1982.99,2400 L 1981.62,2413.1 L 1977.55,2425.62 L 1970.96,2437.03 L 1962.15,2446.81 L 1951.5,2454.55 L 1939.47,2459.91 L 1926.58,2462.65 L 1913.42,2462.65 L 1900.53,2459.91 L 1888.5,2454.55 L 1877.85,2446.81 L 1869.04,2437.03 L 1862.45,2425.62 L 1858.38,2413.1 L 1857.01,2400 z " style="fill-opacity:1.000000;fill:rgb(236,176,59);stroke:rgb(0,0,0);stroke-width:2"/></g>
<g fill-rule="evenodd"><path d="M 1857.01,2200 L 1858.38,2186.9 L 1862.45,2174.38 L 1869.04,2162.97 L 1877.85,2153.19 L 1888.5,2145.45 L 1900.53,2140.09 L 1913.42,2137.35 L 1926.58,2137.35 L 1939.47,2140.09 L 1951.5,2145.45 L 1962.15,2153.19 L 1970.96,2162.97 L 1977.55,2174.38 L 1981.62,2186.9 L 1982.99,2200 L 1981.62,2213.1 L 1977.55,2225.62 L 1970.96,2237.03 L 1962.15,2246.81 L 1951.5,2254.55 L 1939.47,2259.91 L 1926.58,2262.65 L 1913.42,2262.65 L 1900.53,2259.91 L 1888.5,2254.55 L 1877.85,2246.81 L 1869.04,2237.03 L 1862.45,2225.62 L 1858.38,2213.1 L 1857.01,2200 z " style="fill-opacity:1.000000;fill:rgb(251,50,175);stroke:rgb(0,0,0);stroke-width:2"/></g>
<g fill-rule="evenodd"><path d="M 2457.01,4000 L 2458.38,3986.9 L 2462.45,3974.38 L 2469.04,3962.97 L 2477.85,3953.19 L 2488.5,3945.45 L 2500.53,3940.09 L 2513.42,3937.35 L 2526.58,3937.35 L 2539.47,3940.09 L 2551.5,3945.45 L 2562.15,3953.19 L 2570.96,3962.97 L 2577.55,3974.38 L 2581.62,3986.9 L 2582.99,4000 L 2581.62,4013.1 L 2577.55,4025.62 L 2570.96,4037.03 L 2562.15,4046.81 L 2551.5,4054.55 L 2551.5,4186.95 L 2733.05,4368.5 L 3820,4368.5 L 3832.05,4370.9 L 3842.27,4377.73 L 4146.43,4681.89 L 4338.11,4681.89 L 4338.11,4918.11 L 4101.89,4918.11 L 4101.89,4726.43 L 3806.95,4431.5 L 2720,4431.5 L 2707.95,4429.1 L 2697.73,4422.27 L 2493.81,4217.5 L 2489.11,4206.14 L 2488.5,4200 L 2488.5,4054.55 L 2477.85,4046.81 L 2469.04,4037.03 L 2462.45,4025.62 L 2458.38,4013.1 L 2457.01,4000 z " style="fill-opacity:1.000000;fill:rgb(60,84,236);stroke:rgb(0,0,0);stroke-width:2"/></g>
<g fill-rule="evenodd"><path d="M 2543.23,2052.75 L 2546.54,2041.82 L 2551.98,2036.39 L 2559.07,2033.45 L 2677.09,2033.07 L 2684.62,2034.57 L 2693.45,2041.82 L 2696.39,2048.91 L 2696.77,2068.5 L 3065.85,2068.5 L 3069.04,2062.97 L 3077.85,2053.19 L 3088.5,2045.45 L 3100.53,2040.09 L 3113.42,2037.35 L 3126.58,2037.35 L 3139.47,2040.09 L 3151.5,2045.45 L 3162.15,2053.19 L 3170.96,2062.97 L 3177.55,2074.38 L 3181.62,2086.9 L 3182.99,2100 L 3181.62,2113.1 L 3177.55,2125.62 L 3170.96,2137.03 L 3162.15,2146.81 L 3151.5,2154.55 L 3139.47,2159.91 L 3126.58,2162.65 L 3113.42,2162.65 L 3100.53,2159.91 L 3088.5,2154.55 L 3077.85,2146.81 L 3069.04,2137.03 L 3065.85,2131.5 L 2696.77,2131.5 L 2696.77,2147.24 L 2695.27,2154.78 L 2691.01,2161.16 L 2680.93,2166.55 L 2562.91,2166.93 L 2555.38,2165.43 L 2548.99,2161.16 L 2543.61,2151.08 L 2543.23,2052.75 z " style="fill-opacity:1.000000;fill:rgb(24,219,92);stroke:rgb(0,0,0);stroke-width:2"/></g>
<g fill-rule="evenodd"><path d="M 2543.59,2697.55 L 2543.59,2683.56 L 2546.5,2669.87 L 2552.2,2657.09 L 2560.42,2645.77 L 2570.82,2636.4 L 2582.93,2629.41 L 2596.24,2625.08 L 2610.16,2623.62 L 2629.84,2623.62 L 2643.76,2625.08 L 2657.07,2629.41 L 2669.18,2636.4 L 2679.58,2645.77 L 2688.68,2659.05 L 2727.31,2659.44 L 2736.68,2662.49 L 2744.88,2668.5 L 3065.85,2668.5 L 3069.04,2662.97 L 3077.85,2653.19 L 3088.5,2645.45 L 3100.53,2640.09 L 3113.42,2637.35 L 3126.58,2637.35 L 3139.47,2640.09 L 3151.5,2645.45 L 3162.15,2653.19 L 3170.96,2662.97 L 3177.55,2674.38 L 3181.62,2686.9 L 3182.99,2700 L 3181.62,2713.1 L 3177.55,2725.62 L 3170.96,2737.03 L 3162.15,2746.81 L 3151.5,2754.55 L 3139.47,2759.91 L 3126.58,2762.65 L 3113.42,2762.65 L 3100.53,2759.91 L 3088.5,2754.55 L 3077.85,2746.81 L 3069.04,2737.03 L 3065.85,2731.5 L 2731.83,2731.5 L 2717.54,2728.06 L 2709.34,2722.05 L 2688.68,2722.05 L 2679.58,2735.34 L 2669.18,2744.7 L 2657.07,2751.69 L 2643.76,2756.02 L 2629.84,2757.48 L 2610.16,2757.48 L 2596.24,2756.02 L 2582.93,2751.69 L 2570.82,2744.7 L 2560.42,2735.34 L 2552.2,2724.02 L 2546.5,2711.23 L 2543.59,2697.55 z " style="fill-opacity:1.000000;fill:rgb(2,26,254);stroke:rgb(0,0,0);stroke-width:2"/></g>
<g fill-rule="evenodd"><path d="M 2543.59,2500.7 L 2543.59,2486.7 L 2546.5,2473.02 L 2552.2,2460.24 L 2560.42,2448.92 L 2570.82,2439.55 L 2582.93,2432.56 L 2596.24,2428.23 L 2610.16,2426.77 L 2629.84,2426.77 L 2643.76,2428.23 L 2657.07,2432.56 L 2669.18,2439.55 L 2679.58,2448.92 L 2688.68,2462.2 L 2727.31,2462.59 L 2736.68,2465.64 L 2741.23,2468.5 L 3065.85,2468.5 L 3069.04,2462.97 L 3077.85,2453.19 L 3088.5,2445.45 L 3100.53,2440.09 L 3113.42,2437.35 L 3126.58,2437.35 L 3139.47,2440.09 L 3151.5,2445.45 L 3162.15,2453.19 L 3170.96,2462.97 L 3177.55,2474.38 L 3181.62,2486.9 L 3182.99,2500 L 3181.62,2513.1 L 3177.55,2525.62 L 3170.96,2537.03 L 3162.15,2546.81 L 3151.5,2554.55 L 3139.47,2559.91 L 3126.58,2562.65 L 3113.42,2562.65 L 3100.53,2559.91 L 3088.5,2554.55 L 3077.85,2546.81 L 3069.04,2537.03 L 3065.85,2531.5 L 2728.68,2531.5 L 2718.95,2529.95 L 2709.84,2525.2 L 2688.68,2525.2 L 2679.58,2538.49 L 2669.18,2547.85 L 2657.07,2554.84 L 2643.76,2559.17 L 2629.84,2560.63 L 2610.16,2560.63 L 2596.24,2559.17 L 2582.93,2554.84 L 2570.82,2547.85 L 2560.42,2538.49 L 2552.2,2527.17 L 2546.5,2514.38 L 2543.59,2500.7 z " style="fill-opacity:1.000000;fill:rgb(67,251,250);stroke:rgb(0,0,0);stroke-width:2"/></g>
<g fill-rule="evenodd"><path d="M 2543.59,2303.85 L 2543.59,2289.85 L 2546.5,2276.17 L 2552.2,2263.39 L 2560.42,2252.07 L 2570.82,2242.7 L 2582.93,2235.71 L 2596.24,2231.38 L 2610.16,2229.92 L 2629.84,2229.92 L 2643.76,2231.38 L 2657.07,2235.71 L 2669.18,2242.7 L 2679.58,2252.07 L 2688.68,2265.35 L 2722.38,2265.35 L 2736,2268.5 L 3065.85,2268.5 L 3069.04,2262.97 L 3077.85,2253.19 L 3088.5,2245.45 L 3100.53,2240.09 L 3113.42,2237.35 L 3126.58,2237.35 L 3139.47,2240.09 L 3151.5,2245.45 L 3162.15,2253.19 L 3170.96,2262.97 L 3177.55,2274.38 L 3181.62,2286.9 L 3182.99,2300 L 3181.62,2313.1 L 3177.55,2325.62 L 3170.96,2337.03 L 3162.15,2346.81 L 3151.5,2354.55 L 3139.47,2359.91 L 3126.58,2362.65 L 3113.42,2362.65 L 3100.53,2359.91 L 3088.5,2354.55 L 3077.85,2346.81 L 3069.04,2337.03 L 3065.85,2331.5 L 2725.53,2331.5 L 2711.92,2328.35 L 2688.68,2328.35 L 2679.58,2341.63 L 2669.18,2351 L 2657.07,2357.99 L 2643.76,2362.32 L 2629.84,2363.78 L 2610.16,2363.78 L 2596.24,2362.32 L 2582.93,2357.99 L 2570.82,2351 L 2560.42,2341.63 L 2552.2,2330.31 L 2546.5,2317.53 L 2543.59,2303.85 z " style="fill-opacity:1.000000;fill:rgb(170,58,251);stroke:rgb(0,0,0);stroke-width:2"/></g>
<g fill-rule="evenodd"><path d="M 3057.01,3100 L 3058.38,3086.9 L 3062.45,3074.38 L 3069.04,3062.97 L 3077.85,3053.19 L 3088.5,3045.45 L 3100.53,3040.09 L 3113.42,3037.35 L 3126.58,3037.35 L 3139.47,3040.09 L 3151.5,3045.45 L 3162.15,3053.19 L 3170.96,3062.97 L 3174.15,3068.5 L 3507.27,3068.5 L 3688.5,2886.95 L 3688.5,1262.99 L 3657.01,1262.99 L 3657.01,1137.01 L 3688.5,1137.01 L 3688.5,1124.44 L 3193.81,628.89 L 3190.9,623.445 L 3188.5,611.392 L 3188.5,478.74 L 3145,478.74 L 3145,321.26 L 3295,321.26 L 3295,478.74 L 3251.5,478.74 L 3251.5,598.346 L 3742.27,1089.12 L 3746.19,1093.89 L 3750.89,1105.25 L 3751.5,1137.01 L 3782.99,1137.01 L 3782.99,1168.5 L 4606.95,1168.5 L 4617.71,1157.75 L 4612.1,1148.04 L 4604.47,1124.56 L 4601.89,1100 L 4604.47,1075.44 L 4612.1,1051.96 L 4624.45,1030.58 L 4640.97,1012.23 L 4660.94,997.714 L 4683.5,987.67 L 4707.65,982.537 L 4732.35,982.537 L 4756.5,987.67 L 4779.06,997.714 L 4799.03,1012.23 L 4815.55,1030.58 L 4827.9,1051.96 L 4835.53,1075.44 L 4838.11,1100 L 4835.53,1124.56 L 4827.9,1148.04 L 4815.55,1169.42 L 4799.03,1187.77 L 4779.06,1202.29 L 4756.5,1212.33 L 4732.35,1217.46 L 4707.65,1217.46 L 4683.5,1212.33 L 4661.85,1202.69 L 4637.5,1226.19 L 4626.14,1230.89 L 4620,1231.5 L 3782.99,1231.5 L 3782.99,1262.99 L 3751.5,1262.99 L 3751.11,2904.93 L 3748.06,2914.3 L 3742.27,2922.27 L 3570.24,3094.3 L 4344.44,3868.5 L 4357.01,3868.5 L 4357.01,3837.01 L 4482.99,3837.01 L 4482.99,3962.99 L 4357.01,3962.99 L 4357.01,3931.49 L 4325.25,3930.89 L 4319.34,3929.1 L 4309.12,3922.27 L 3518.35,3131.5 L 3174.15,3131.5 L 3170.96,3137.03 L 3162.15,3146.81 L 3151.5,3154.55 L 3139.47,3159.91 L 3126.58,3162.65 L 3113.42,3162.65 L 3100.53,3159.91 L 3088.5,3154.55 L 3077.85,3146.81 L 3069.04,3137.03 L 3062.45,3125.62 L 3058.38,3113.1 L 3057.01,3100 z " style="fill-opacity:1.000000;fill:rgb(41,209,230);stroke:rgb(0,0,0);stroke-width:2"/></g>
<g fill-rule="evenodd"><path d="M 4057.01,3100 L 4058.38,3086.9 L 4062.45,3074.38 L 4069.04,3062.97 L 4077.85,3053.19 L 4088.5,3045.45 L 4100.53,3040.09 L 4113.42,3037.35 L 4126.58,3037.35 L 4139.47,3040.09 L 4151.5,3045.45 L 4162.15,3053.19 L 4170.96,3062.97 L 4177.55,3074.38 L 4181.62,3086.9 L 4182.99,3100 L 4181.62,3113.1 L 4177.55,3125.62 L 4170.96,3137.03 L 4162.15,3146.81 L 4151.5,3154.55 L 4139.47,3159.91 L 4126.58,3162.65 L 4113.42,3162.65 L 4100.53,3159.91 L 4088.5,3154.55 L 4077.85,3146.81 L 4069.04,3137.03 L 4062.45,3125.62 L 4058.38,3113.1 L 4057.01,3100 z " style="fill-opacity:1.000000;fill:rgb(5,60,124);stroke:rgb(0,0,0);stroke-width:2"/></g>
<g fill-rule="evenodd"><path d="M 4057.01,2900 L 4058.38,2886.9 L 4062.45,2874.38 L 4069.04,2862.97 L 4077.85,2853.19 L 4088.5,2845.45 L 4100.53,2840.09 L 4113.42,2837.35 L 4126.58,2837.35 L 4139.47,2840.09 L 4151.5,2845.45 L 4162.15,2853.19 L 4170.96,2862.97 L 4174.15,2868.5 L 4474.89,2868.5 L 4483.12,2859.04 L 4492.44,2852.27 L 4502.97,2847.58 L 4514.24,2845.18 L 4525.76,2845.18 L 4537.03,2847.58 L 4547.56,2852.27 L 4556.88,2859.04 L 4564.59,2867.6 L 4570.35,2877.58 L 4573.91,2888.54 L 4575.12,2900 L 4573.91,2911.46 L 4570.35,2922.42 L 4564.59,2932.4 L 4556.88,2940.96 L 4547.56,2947.73 L 4537.03,2952.42 L 4525.76,2954.82 L 4514.24,2954.82 L 4502.97,2952.42 L 4492.44,2947.73 L 4483.12,2940.96 L 4474.89,2931.5 L 4174.15,2931.5 L 4170.96,2937.03 L 4162.15,2946.81 L 4151.5,2954.55 L 4139.47,2959.91 L 4126.58,2962.65 L 4113.42,2962.65 L 4100.53,2959.91 L 4088.5,2954.55 L 4077.85,2946.81 L 4069.04,2937.03 L 4062.45,2925.62 L 4058.38,2913.1 L 4057.01,2900 z " style="fill-opacity:1.000000;fill:rgb(148,117,216);stroke:rgb(0,0,0);stroke-width:2"/></g>
<g fill-rule="evenodd"><path d="M 4057.01,2700 L 4058.38,2686.9 L 4062.45,2674.38 L 4069.04,2662.97 L 4077.85,2653.19 L 4088.5,2645.45 L 4100.53,2640.09 L 4113.42,2637.35 L 4126.58,2637.35 L 4139.47,2640.09 L 4151.5,2645.45 L 4162.15,2653.19 L 4170.96,2662.97 L 4174.15,2668.5 L 4474.89,2668.5 L 4483.12,2659.04 L 4492.44,2652.27 L 4502.97,2647.58 L 4514.24,2645.18 L 4525.76,2645.18 L 4537.03,2647.58 L 4547.56,2652.27 L 4556.88,2659.04 L 4564.59,2667.6 L 4570.35,2677.58 L 4573.91,2688.54 L 4575.12,2700 L 4573.91,2711.46 L 4570.35,2722.42 L 4564.59,2732.4 L 4556.88,2740.96 L 4547.56,2747.73 L 4537.03,2752.42 L 4525.76,2754.82 L 4514.24,2754.82 L 4502.97,2752.42 L 4492.44,2747.73 L 4483.12,2740.96 L 4474.89,2731.5 L 4174.15,2731.5 L 4170.96,2737.03 L 4162.15,2746.81 L 4151.5,2754.55 L 4139.47,2759.91 L 4126.58,2762.65 L 4113.42,2762.65 L 4100.53,2759.91 L 4088.5,2754.55 L 4077.85,2746.81 L 4069.04,2737.03 L 4062.45,2725.62 L 4058.38,2713.1 L 4057.01,2700 z " style="fill-opacity:1.000000;fill:rgb(190,97,137);stroke:rgb(0,0,0);stroke-width:2"/></g>
<g fill-rule="evenodd"><path d="M 4057.01,2500 L 4058.38,2486.9 L 4062.45,2474.38 L 4069.04,2462.97 L 4077.85,2453.19 L 4088.5,2445.45 L 4100.53,2440.09 L 4113.42,2437.35 L 4126.58,2437.35 L 4139.47,2440.09 L 4151.5,2445.45 L 4162.15,2453.19 L 4170.96,2462.97 L 4174.15,2468.5 L 4474.89,2468.5 L 4483.12,2459.04 L 4492.44,2452.27 L 4502.97,2447.58 L 4514.24,2445.18 L 4525.76,2445.18 L 4537.03,2447.58 L 4547.56,2452.27 L 4556.88,2459.04 L 4564.59,2467.6 L 4570.35,2477.58 L 4573.91,2488.54 L 4575.12,2500 L 4573.91,2511.46 L 4570.35,2522.42 L 4564.59,2532.4 L 4556.88,2540.96 L 4547.56,2547.73 L 4537.03,2552.42 L 4525.76,2554.82 L 4514.24,2554.82 L 4502.97,2552.42 L 4492.44,2547.73 L 4483.12,2540.96 L 4474.89,2531.5 L 4174.15,2531.5 L 4170.96,2537.03 L 4162.15,2546.81 L 4151.5,2554.55 L 4139.47,2559.91 L 4126.58,2562.65 L 4113.42,2562.65 L 4100.53,2559.91 L 4088.5,2554.55 L 4077.85,2546.81 L 4069.04,2537.03 L 4062.45,2525.62 L 4058.38,2513.1 L 4057.01,2500 z " style="fill-opacity:1.000000;fill:rgb(249,92,187);stroke:rgb(0,0,0);stroke-width:2"/></g>
<g fill-rule="evenodd"><path d="M 4057.01,2300 L 4058.38,2286.9 L 4062.45,2274.38 L 4069.04,2262.97 L 4077.85,2253.19 L 4088.5,2245.45 L 4088.5,2154.55 L 4077.85,2146.81 L 4069.04,2137.03 L 4062.45,2125.62 L 4058.38,2113.1 L 4057.01,2100 L 4058.38,2086.9 L 4062.45,2074.38 L 4069.04,2062.97 L 4077.85,2053.19 L 4088.5,2045.45 L 4100.53,2040.09 L 4113.42,2037.35 L 4126.58,2037.35 L 4139.47,2040.09 L 4151.5,2045.45 L 4162.15,2053.19 L 4170.96,2062.97 L 4177.55,2074.38 L 4181.62,2086.9 L 4182.99,2100 L 4181.62,2113.1 L 4177.55,2125.62 L 4170.96,2137.03 L 4162.15,2146.81 L 4151.5,2154.55 L 4151.5,2245.45 L 4162.15,2253.19 L 4170.96,2262.97 L 4177.55,2274.38 L 4181.62,2286.9 L 4182.99,2300 L 4181.62,2313.1 L 4177.55,2325.62 L 4170.96,2337.03 L 4162.15,2346.81 L 4151.5,2354.55 L 4139.47,2359.91 L 4126.58,2362.65 L 4113.42,2362.65 L 4100.53,2359.91 L 4088.5,2354.55 L 4077.85,2346.81 L 4069.04,2337.03 L 4062.45,2325.62 L 4058.38,2313.1 L 4057.01,2300 z " style="fill-opacity:1.000000;fill:rgb(168,153,15);stroke:rgb(0,0,0);stroke-width:2"/></g>
<g fill-rule="evenodd"><path d="M 4057.01,1900 L 4058.38,1886.9 L 4062.45,1874.38 L 4069.04,1862.97 L 4077.85,1853.19 L 4088.5,1845.45 L 4100.53,1840.09 L 4113.42,1837.35 L 4126.58,1837.35 L 4139.47,1840.09 L 4151.5,1845.45 L 4162.15,1853.19 L 4170.96,1862.97 L 4174.15,1868.5 L 4306.95,1868.5 L 4388.5,1786.95 L 4388.5,1513.05 L 4306.95,1431.5 L 4213.86,1430.89 L 4204.25,1427.28 L 4197.73,1422.27 L 4191.23,1412.81 L 4189.11,1406.14 L 4189.11,1393.86 L 4193.81,1382.5 L 4202.5,1373.81 L 4213.86,1369.11 L 4320,1368.5 L 4329.73,1370.05 L 4342.27,1377.73 L 4442.27,1477.73 L 4446.19,1482.5 L 4450.89,1493.86 L 4451.5,1800 L 4449.1,1812.05 L 4442.27,1822.27 L 4342.27,1922.27 L 4334.3,1928.06 L 4320,1931.5 L 4174.15,1931.5 L 4170.96,1937.03 L 4162.15,1946.81 L 4151.5,1954.55 L 4139.47,1959.91 L 4126.58,1962.65 L 4113.42,1962.65 L 4100.53,1959.91 L 4088.5,1954.55 L 4077.85,1946.81 L 4069.04,1937.03 L 4062.45,1925.62 L 4058.38,1913.1 L 4057.01,1900 z " style="fill-opacity:1.000000;fill:rgb(149,177,235);stroke:rgb(0,0,0);stroke-width:2"/></g>
<g fill-rule="evenodd"><path d="M 4057.01,1700 L 4058.38,1686.9 L 4062.45,1674.38 L 4069.04,1662.97 L 4077.85,1653.19 L 4088.5,1645.45 L 4089.19,1493.45 L 4093.81,1482.5 L 4102.5,1473.81 L 4113.86,1469.11 L 4126.14,1469.11 L 4135.75,1472.72 L 4142.27,1477.73 L 4148.77,1487.19 L 4150.81,1493.45 L 4151.5,1645.45 L 4162.15,1653.19 L 4170.96,1662.97 L 4177.55,1674.38 L 4181.62,1686.9 L 4182.99,1700 L 4181.62,1713.1 L 4177.55,1725.62 L 4170.96,1737.03 L 4162.15,1746.81 L 4151.5,1754.55 L 4139.47,1759.91 L 4126.58,1762.65 L 4113.42,1762.65 L 4100.53,1759.91 L 4088.5,1754.55 L 4077.85,1746.81 L 4069.04,1737.03 L 4062.45,1725.62 L 4058.38,1713.1 L 4057.01,1700 z " style="fill-opacity:1.000000;fill:rgb(241,179,5);stroke:rgb(0,0,0);stroke-width:2"/></g>
</svg>
