<?xml version="1.0" standalone="no"?>
<!DOCTYPE svg PUBLIC "-//W3C//DTD SVG 1.1//EN"
"http://www.w3.org/Graphics/SVG/1.1/DTD/svg11.dtd">
<svg width="260.16" height="254.4" viewBox="0 0 5420 5300" version="1.1"
xmlns="http://www.w3.org/2000/svg"
xmlns:xlink="http://www.w3.org/1999/xlink">
<polyline points="181,4646.42 173.488,4625.91 169.998,4600 169.998,1100 173.488,1074.08 181.372,1052.68 188.384,1039.73 208.28,1012.59 323.146,896.848 921.192,896.848 944.862,903.304 993.87,912.914 1026.03,916.304 1057.09,917.518 1144.41,917.518 1166.29,908 1180.87,901.046 1219.65,879.084 1241.14,864.332 1262.12,847.888 1262.12,688.516 1244.55,668.858 1228.71,642.16 1217.12,627.992 1204.33,617.282 1191.09,609.754 1169.57,602.442 1151.42,600.866 1057.09,600.866 1038.93,602.442 1021.5,607.774 1005.44,616.406 991.232,628.118 979.272,640.302 965.058,642.202 257.42,642.124 244.958,640.338 233.014,628.118 218.806,616.406 202.752,607.774 184.418,602.34 167.164,600.866 68.278,601.048 54.592,602.452 25.586,610.85 -0.002,612.926 0,5300 5420,5300 5420,0 0,0 -0.002,219.224 25.584,217.148 54.594,208.752 68.282,207.346 167.164,207.162 185.314,208.74 202.752,214.074 218.808,222.706 233.014,234.416 244.974,246.602 259.186,248.502 965.064,248.502 979.274,246.6 1000.84,226.156 1021.2,214.2 1038.93,208.742 1057.09,207.162 1151.42,207.162 1169.57,208.74 1187,214.074 1202.82,222.572 1219,236.318 1229.15,246.75 1239.67,248.19 1280.51,248.5 1295.02,246.602 1306.98,234.416 1321.19,222.706 1337.24,214.076 1354.68,208.742 1372.83,207.162 1467.16,207.162 1485.31,208.74 1503.05,214.2 1523.41,226.156 1544.98,246.602 1559.18,248.502 2265.06,248.502 2279.27,246.602 2291.23,234.418 2305.44,222.706 2321.2,214.2 2335.72,209.606 2354.99,207.218 2411.83,207.162 2423.71,205.84 2431.61,199.676 2567.75,63.496 2575.67,57.22 2584.54,52.412 2594.18,49.4 2605.25,48.522 4624.71,48.888 4639.7,52.422 4648.58,57.22 4657.23,64.162 5155.83,562.762 5167.69,580.242 5171.67,600.988 5170.63,2210.07 5165.83,2223.23 5155.82,2237.24 4901.45,2491.91 4896.25,2498.28 4891.94,2521.75 4886.3,2535.41 4872.84,2555.13 4871.5,2567.22 4871.59,2634.84 4872.85,2644.86 4882.08,2657.5 4889.41,2671.39 4893,2682.34 4895.06,2697.9 4893.85,2713.56 4889.41,2728.61 4881.95,2742.42 4872.73,2755.09 4871.5,2767.22 4871.59,2834.84 4872.85,2844.86 4886.15,2864.29 4891.92,2878.18 4894.78,2892.63 4893.85,2913.56 4891.92,2921.81 4886.29,2935.43 4878.12,2947.7 4867.71,2958.14 4855.47,2966.36 4841.85,2972.04 4827.38,2974.93 4812.62,2974.93 4798.14,2972.04 4784.53,2966.36 4768.22,2954.37 4760.45,2945.86 4752.24,2932.47 4748.08,2921.81 4745.21,2907.36 4745.21,2892.63 4748.08,2878.18 4753.69,2864.58 4767.16,2844.86 4768.5,2832.8 4768.44,2765.55 4767.09,2755.16 4752.24,2732.47 4748.08,2721.81 4745.21,2707.36 4745.21,2692.63 4748.08,2678.18 4753.7,2664.58 4767.16,2644.86 4768.5,2632.8 4768.44,2565.55 4767.09,2555.16 4753.87,2535.76 4746.99,2517.66 4744.93,2497.9 4748.08,2478.18 4752.24,2467.53 4758.05,2457.58 4772.28,2441.86 4784.53,2433.64 4798.12,2427.97 4821.06,2424.05 4831.08,2416.09 5059.72,2187.45 5067.12,2178.1 5068.44,2167.81 5068.5,633.754 5066.95,621.972 5059.7,612.53 4605.08,158.258 4598.17,152.704 4586.22,151.494 3697.65,151.874 3683.08,154.484 3676.75,156.752 3672.79,169.76 3671.5,181.52 3671.57,303.216 3672.58,312.204 3674.48,317.106 3687.13,328.9 3698.17,342.076 3707.92,359.838 3713.54,379.232 3714.97,402.32 3713.38,422.312 3707.92,440.158 3699.09,456.586 3681.97,475.702 3669.32,484.964 3651.34,493.416 3638.54,496.938 3620,498.76 3607.99,497.952 3592.65,494.672 3570.68,484.966 3554.84,472.96 3534.6,449.966 3520,437.53 3520,362.456 3532.78,351.554 3552.79,328.972 3566.58,315.774 3567.86,308.574 3568.06,175.562 3563.24,156.752 3552.64,153.44 3540.45,151.59 2636.44,151.556 2626.15,152.87 2616.71,160.366 2542.18,235.344 2534.43,246.144 2532.96,249.044 2542.48,281.814 2543.9,292.384 2543.47,311.782 2537.72,340.702 2540.22,345.104 2547,354.058 2755.84,562.766 2767.69,580.242 2771.67,600.982 2771.5,1018.48 2772.8,1030.24 2776.75,1043.24 2787.35,1046.55 2800.19,1048.4 2814.59,1048.17 2827.35,1045.96 2832.7,1044.19 2840.34,1025.86 2842.83,1022.83 2853.18,1017.47 2857,1017.27 2986.9,1017.34 2997.06,1022.93 3001.84,1030.27 3003.11,1038.43 3002.53,1166.81 2997.83,1176.42 2986.9,1182.65 2853.18,1182.53 2845.95,1179.54 2839.61,1172.98 2832.81,1155.69 2810.37,1151.5 2601.5,1151.5 2589.76,1152.79 2576.72,1156.72 2572.79,1169.76 2571.5,1181.5 2571.59,1720.46 2575.76,1740.3 2576.75,1743.24 2589.75,1747.2 2601.53,1748.5 2819.02,1748.33 2832.88,1750.19 2840.32,1752.77 2856.5,1763.5 2932.5,1839.67 2941.97,1846.95 2945.8,1847.71 3043.69,1848.4 3053.71,1847.14 3075.66,1827.77 3095.33,1801.66 3126.58,1800.17 3144.73,1801.67 3157.99,1820.54 3184.16,1847.24 3193.23,1860.85 3199.45,1875.9 3201.55,1884.8 3202.62,1908.13 3200.7,1919.3 3196.61,1931.81 3193.23,1939.14 3184.21,1952.69 3172.66,1964.27 3148.49,1980.19 3126.41,2000 3144.41,2016.8 3172.66,2035.72 3185.92,2049.5 3193.23,2060.85 3199.45,2075.9 3202.62,2091.86 3202.94,2102.1 3200.7,2119.3 3196.61,2131.81 3193.23,2139.14 3184.21,2152.69 3172.66,2164.27 3148.49,2180.19 3126.41,2200 3144.41,2216.8 3172.66,2235.72 3185.92,2249.5 3193.23,2260.85 3199.45,2275.9 3202.62,2291.86 3202.94,2302.1 3200.7,2319.3 3196.61,2331.81 3193.23,2339.14 3184.21,2352.69 3172.66,2364.27 3148.49,2380.19 3126.41,2400 2756.35,2400 2719.87,2396.88 2716.31,2395.27 2589.77,2395.27 2572.06,2376.83 2548.6,2358.34 2537.83,2345.18 2528.15,2325.7 2523.54,2303.85 2524.87,2279.88 2528.15,2268 2533.88,2255.23 2544.19,2240.28 2563.75,2219.63 2575.54,2201.6 2563.75,2219.63 2544.19,2240.28 2533.88,2255.23 2528.15,2268 2524.87,2279.88 2523.54,2303.85 2528.15,2325.7 2537.83,2345.18 2548.6,2358.34 2572.06,2376.83 2589.77,2395.27 2572.06,2413.71 2548.6,2432.2 2535.92,2448.41 2529.81,2460.42 2524.87,2476.73 2523.2,2493.7 2524.87,2510.66 2529.8,2526.98 2535.92,2538.98 2544.19,2550.27 2557.42,2562.72 2572.05,2573.7 2589.82,2592.12 2713.13,2592.12 2719.34,2595.08 2747.58,2597.07 2764.75,2600 3126.41,2600 3144.41,2616.8 3172.66,2635.72 3185.92,2649.5 3193.23,2660.85 3199.45,2675.9 3202.62,2691.86 3202.94,2702.1 3200.7,2719.3 3196.61,2731.81 3193.23,2739.14 3184.21,2752.69 3172.72,2764.22 3148.38,2779.93 3125.36,2800 3114.57,2800 3095.65,2782.86 3067.16,2764.14 3054.49,2752.99 3043.25,2751.56 2732.82,2751.67 2721.34,2750.13 2701.71,2745.31 2678.27,2762.89 2663.17,2771.01 2646.84,2776 2631.94,2777.42 2610.16,2777.48 2593.16,2776 2576.68,2770.94 2560.72,2762.18 2544.19,2747.12 2535.92,2735.83 2529.8,2723.83 2524.87,2707.51 2523.2,2690.55 2523.97,2679.38 2526.9,2665.7 2533.88,2648.93 2544.19,2633.98 2557.42,2621.52 2572.05,2610.55 2589.82,2592.12 2713.13,2592.12 2719.34,2595.08 2747.58,2597.07 2764.75,2600 3126.41,2600 3148.49,2580.19 3172.66,2564.27 3184.21,2552.69 3193.23,2539.14 3200.7,2519.3 3202.94,2502.1 3201.55,2484.8 3196.61,2468.19 3188.32,2452.95 3174,2436.87 3144.41,2416.8 3126.41,2400 3148.49,2380.19 3172.66,2364.27 3185.92,2350.49 3193.23,2339.14 3199.45,2324.1 3202.62,2308.13 3202.94,2297.9 3200.7,2280.7 3196.61,2268.19 3193.23,2260.85 3184.21,2247.3 3172.66,2235.72 3144.41,2216.8 3126.41,2200 2747.44,2200 2715.43,2210.41 2647.15,2199.11 2606.85,2198.44 2575.54,2201.6 2534.37,2174.83 2525.79,2160.6 2523.94,2154.99 2523.28,2145.76 2523.11,2054.23 2526.51,2037.67 2529.87,2030.68 2534.95,2024.79 2540.84,2019.72 2547.78,2016.22 2555.16,2013.78 2564.4,2013.13 2675.6,2012.95 2684.8,2013.97 2692.29,2016.04 2704.59,2024.6 2719.08,2045.56 2735.89,2048.42 3043.26,2048.44 3054.48,2047 3067.23,2035.8 3091.5,2019.8 3113.58,2000 3126.41,2000 3113.58,2000 3095.58,1983.2 3067.23,1964.2 3054.48,1953.02 3041.64,1951.49 2920.96,1951.67 2909.96,1950.46 2900.29,1947.57 2883.5,1936.5 2807.5,1860.33 2798.02,1853.05 2794.2,1852.29 1996.34,1851.59 1985.49,1852.95 1972.89,1864.11 1941.44,1885.13 1925.43,1900 1914.64,1900 1891.62,1879.93 1876.71,1870.78 1862.94,1860.23 1854.08,1850.49 1846.76,1839.14 1840.55,1824.1 1837.38,1808.13 1838.45,1784.8 1843.39,1768.19 1851.68,1752.95 1865.99,1736.87 1880.28,1726.98 1895.85,1720.41 1911.84,1717.21 1928.15,1717.21 1944.14,1720.41 1963.3,1729.2 1972.87,1735.88 1985.5,1747.03 1998.3,1748.5 2438.5,1748.5 2452.4,1746.67 2463.35,1743.32 2466.19,1734.74 2468.22,1721.93 2469.37,1089.93 2472.31,1080.24 2483.5,1063.5 2491.32,1057.08 2509.93,1049.37 2638.44,1048.59 2652.41,1046.73 2663.31,1043.39 2666.18,1034.73 2668.2,1021.95 2668.5,633.784 2666.95,621.972 2659.71,612.534 2447.64,400.55 2439.44,394.208 2433.91,393.334 2357.08,392.832 2338.93,391.254 2321.49,385.92 2305.44,377.29 2291.23,365.578 2279.27,353.394 2265.06,351.496 1559.18,351.496 1544.97,353.394 1523.41,373.84 1503.05,385.796 1485.31,391.254 1467.16,392.832 1372.83,392.832 1354.68,391.254 1337.24,385.92 1321.42,377.422 1305.25,363.678 1295.1,353.246 1284.58,351.806 1243.74,351.496 1229.22,353.394 1217.27,365.578 1203.06,377.29 1187,385.92 1169.57,391.254 1151.42,392.832 1057.09,392.832 1038.93,391.254 1021.2,385.796 1000.84,373.84 979.274,353.394 965.064,351.496 259.186,351.496 244.974,353.394 233.016,365.578 218.808,377.29 202.752,385.92 185.314,391.254 167.164,392.832 68.284,392.65 54.596,391.244 21.448,382.244 -0.002,380.562 -0.002,219.224 -0.002,774.37 27.234,776.974 48.956,783.386 64.446,789.838 67.38,800.744 68.5,811.648 68.328,4834.42 72.306,4855.17 83.496,4871.92 128.83,4916.53 141.936,4924.64 151.604,4927.52 162.634,4928.73 1558.26,4928.29 1574.08,4924.75 1591.56,4912.9 1834.55,4669.77 1841.43,4664.25 1853.82,4657.3 1880.72,4673.27 1895.85,4679.58 1911.84,4682.79 1928.15,4682.79 1944.14,4679.58 1959.72,4673.02 1974,4663.13 1988.32,4647.05 1994.95,4635.67 1999.45,4624.1 2002.62,4608.13 2002.62,4591.86 2000.7,4580.7 1996.61,4568.19 1988.32,4552.95 1977.05,4539.76 1963.32,4529.17 1948.49,4519.8 1926.41,4500 1942.67,4484.66 1974,4463.13 1984.21,4452.69 1993.23,4439.14 1999.45,4424.1 2002.62,4408.13 2002.62,4391.86 1999.45,4375.89 1994.95,4364.33 1988.32,4352.95 1974,4336.87 1948.49,4319.8 1926.41,4300 1913.58,4300 1895.58,4283.2 1867.34,4264.27 1855.79,4252.69 1846.76,4239.14 1843.39,4231.81 1839.29,4219.3 1837.06,4202.1 1837.38,4191.86 1840.55,4175.9 1846.76,4160.85 1855.79,4147.3 1867.34,4135.72 1891.5,4119.8 1913.58,4100 1926.41,4100 1942.67,4084.66 1977.05,4060.23 1985.92,4050.49 1994.95,4035.67 2000.7,4019.3 2002.94,4002.1 2002.62,3991.86 1999.45,3975.89 1993.23,3960.85 1984.2,3947.3 1972.66,3935.72 1948.49,3919.8 1926.41,3900 1913.58,3900 1895.58,3883.2 1862.94,3860.23 1854.08,3850.49 1845.05,3835.67 1839.29,3819.3 1837.06,3802.1 1837.38,3791.86 1840.55,3775.9 1846.76,3760.85 1855.79,3747.3 1867.34,3735.72 1891.5,3719.8 1913.58,3700 1926.41,3700 1942.67,3684.66 1977.05,3660.23 1985.92,3650.49 1994.95,3635.67 2000.7,3619.3 2002.94,3602.1 2002.62,3591.86 1999.45,3575.89 1993.23,3560.85 1984.21,3547.3 1972.66,3535.72 1942.68,3515.34 1926.72,3500 1913.58,3500 1895.58,3483.2 1865.99,3463.13 1855.79,3452.69 1846.76,3439.14 1840.55,3424.1 1837.38,3408.13 1837.38,3391.86 1840.55,3375.9 1846.76,3360.85 1855.79,3347.3 1867.34,3335.72 1891.5,3319.8 1913.58,3300 1926.41,3300 1944.42,3283.22 1974,3263.13 1984.21,3252.69 1993.23,3239.14 1999.45,3224.1 2002.62,3208.13 2002.62,3191.86 1999.45,3175.89 1993.23,3160.85 1984.21,3147.3 1972.66,3135.72 1948.49,3119.8 1926.41,3100 1913.58,3100 1895.58,3083.2 1865.99,3063.13 1855.79,3052.69 1846.76,3039.14 1840.55,3024.1 1837.38,3008.13 1837.38,2991.86 1840.55,2975.9 1846.76,2960.85 1855.79,2947.3 1867.34,2935.72 1891.5,2919.8 1913.58,2900 1926.41,2900 1942.67,2884.66 1974,2863.13 1984.21,2852.69 1993.23,2839.14 1999.45,2824.1 2002.62,2808.13 2002.62,2791.86 1999.45,2775.89 1993.23,2760.85 1984.21,2747.3 1972.66,2735.72 1948.49,2719.8 1926.41,2700 1913.58,2700 1895.58,2683.2 1865.99,2663.13 1855.79,2652.69 1846.76,2639.14 1840.55,2624.1 1837.38,2608.13 1837.38,2591.86 1840.55,2575.9 1846.76,2560.85 1855.79,2547.3 1867.34,2535.72 1891.5,2519.8 1913.58,2500 1926.41,2500 1942.67,2484.66 1974,2463.13 1984.21,2452.69 1993.23,2439.14 1999.45,2424.1 2001.55,2415.19 2002.94,2397.9 2000.7,2380.7 1993.23,2360.85 1984.21,2347.3 1972.66,2335.72 1948.49,2319.8 1926.41,2300 1913.58,2300 1895.58,2283.2 1865.99,2263.13 1851.68,2247.05 1845.05,2235.67 1840.55,2224.1 1837.38,2208.13 1837.38,2191.86 1840.55,2175.9 1846.76,2160.85 1855.79,2147.3 1865.99,2136.87 1891.62,2120.07 1914.64,2100 1925.43,2100 1941.44,2114.86 1972.72,2135.78 1985.92,2149.5 1994.95,2164.33 2000.7,2180.7 2002.94,2197.9 2000.7,2219.3 1993.23,2239.14 1984.21,2252.69 1974,2263.13 1942.67,2284.66 1926.41,2300 1913.58,2300 1891.5,2319.8 1867.34,2335.72 1855.79,2347.3 1846.76,2360.85 1839.29,2380.7 1837.06,2397.9 1838.45,2415.19 1840.55,2424.1 1846.76,2439.14 1855.79,2452.69 1865.99,2463.13 1895.58,2483.2 1913.58,2500 1926.41,2500 1948.49,2519.8 1972.66,2535.72 1984.21,2547.3 1993.23,2560.85 1999.45,2575.89 2002.62,2591.86 2002.62,2608.13 1999.45,2624.1 1993.23,2639.14 1984.21,2652.69 1974,2663.13 1942.67,2684.66 1926.41,2700 1913.58,2700 1891.5,2719.8 1867.34,2735.72 1855.79,2747.3 1846.76,2760.85 1840.55,2775.9 1837.38,2791.86 1837.38,2808.13 1840.55,2824.1 1846.76,2839.14 1855.79,2852.69 1865.99,2863.13 1895.58,2883.2 1913.58,2900 1926.41,2900 1948.49,2919.8 1972.66,2935.72 1984.21,2947.3 1993.23,2960.85 1999.45,2975.89 2002.62,2991.86 2002.62,3008.13 1999.45,3024.1 1994.95,3035.67 1985.92,3050.49 1977.05,3060.23 1942.67,3084.66 1926.41,3100 1913.58,3100 1891.5,3119.8 1865.99,3136.87 1855.79,3147.3 1846.76,3160.85 1840.55,3175.9 1838.45,3184.8 1837.38,3208.13 1839.29,3219.3 1843.39,3231.81 1854.08,3250.49 1867.34,3264.27 1895.58,3283.2 1913.58,3300 1926.41,3300 1944.42,3316.77 1972.62,3335.67 1985.53,3346.99 1998.32,3348.51 2319.01,3348.52 2330.06,3349.4 2339.71,3352.41 2348.58,3357.22 2357.23,3364.16 2508.71,3514.62 2510.91,3516.09 2527.95,3517.18 2547.64,3521.73 2563.3,3529.2 2574.06,3536.79 2585.45,3547.12 2594.43,3548.12 2830.38,3548.33 2851.1,3552.42 2859.97,3557.22 2868.62,3564.16 3239.91,3934.73 3253.81,3942.52 3280.26,3926.94 3295.85,3920.41 3311.84,3917.21 3326.58,3917.18 3347.64,3921.73 3359.72,3926.98 3374,3936.87 3388.32,3952.95 3394.95,3964.33 3399.45,3975.89 3402.94,3997.9 3402.62,4008.13 3399.45,4024.1 3394.95,4035.67 3388.32,4047.05 3372.71,4064.23 3359.71,4073.02 3347.64,4078.27 3328.15,4082.79 3311.84,4082.79 3295.85,4079.58 3276.7,4070.79 3265.94,4063.21 3254.37,4052.75 3220.98,4050.54 3202.71,4042.92 2809.58,3652.68 2592.37,3651.93 2585.5,3652.97 2572.88,3664.11 2563.3,3670.79 2544.14,3679.58 2526.58,3682.82 2511.84,3682.79 2495.85,3679.58 2480.81,3673.31 2467.28,3664.23 2451.68,3647.05 2445.05,3635.67 2440.55,3624.1 2437.35,3607.93 2436.48,3591.49 2429.51,3582.47 2305.07,3458.24 2298.17,3452.7 2286.21,3451.49 1995.17,3451.74 1985.47,3452.91 1973.39,3463.76 1942.67,3484.66 1926.72,3500 1913.58,3500 1891.5,3519.8 1865.99,3536.87 1855.79,3547.3 1846.76,3560.85 1840.55,3575.9 1837.38,3591.86 1837.38,3608.13 1840.55,3624.1 1846.76,3639.14 1855.79,3652.69 1867.34,3664.27 1895.58,3683.2 1913.58,3700 1926.41,3700 1948.49,3719.8 1974,3736.87 1984.21,3747.3 1993.23,3760.85 1999.45,3775.89 2002.62,3791.86 2002.62,3808.13 1999.45,3824.1 1993.23,3839.14 1984.21,3852.69 1972.66,3864.27 1942.68,3884.65 1926.41,3900 1913.58,3900 1891.5,3919.8 1865.99,3936.87 1855.79,3947.3 1846.76,3960.85 1840.55,3975.89 1837.38,3991.86 1837.38,4008.13 1840.54,4024.1 1846.76,4039.14 1855.79,4052.69 1867.34,4064.27 1895.58,4083.2 1913.58,4100 1926.41,4100 1948.49,4119.8 1974,4136.87 1984.21,4147.3 1993.23,4160.85 1999.45,4175.89 2001.55,4184.8 2002.94,4202.1 2000.7,4219.3 1993.23,4239.14 1984.21,4252.69 1972.66,4264.27 1944.41,4283.2 1926.41,4300 1913.58,4300 1891.5,4319.8 1865.99,4336.87 1855.79,4347.3 1846.76,4360.85 1839.29,4380.7 1837.06,4397.9 1839.29,4419.3 1845.05,4435.67 1854.08,4450.49 1867.48,4464.4 1895.58,4483.22 1913.58,4500 1926.41,4500 1913.58,4500 1895.58,4516.8 1866.74,4536.15 1854.37,4547.25 1820.98,4549.45 1806.19,4555.22 1799.68,4559.56 1537.28,4820.67 1532.47,4824.24 1522.53,4825.47 201.498,4825.56 184.094,4822.86 174.202,4812.96 171.494,4795.57 171.494,4679.55 172.668,4668.4 177.514,4653.35 181,4646.42 220.916,4651.67 641.682,4651.5 654.478,4653.02 676.7,4670.79 695.854,4679.58 711.844,4682.79 728.15,4682.79 747.638,4678.27 759.716,4673.02 772.712,4664.23 785.918,4650.49 796.606,4631.81 800.704,4619.3 802.62,4608.13 802.62,4591.86 800.704,4580.7 796.606,4568.19 785.918,4549.5 772.656,4535.72 744.414,4516.8 726.412,4500 713.582,4500 695.582,4483.2 662.942,4460.23 654.078,4450.49 645.048,4435.67 640.546,4424.1 637.376,4408.13 637.376,4391.86 640.546,4375.89 646.76,4360.85 654.076,4349.5 667.338,4335.72 697.314,4315.34 713.582,4300 691.502,4280.19 667.338,4264.27 655.788,4252.69 646.76,4239.14 643.39,4231.81 639.292,4219.3 637.376,4208.13 637.376,4191.86 640.546,4175.89 646.76,4160.85 654.076,4149.5 667.338,4135.72 697.314,4115.34 713.582,4100 691.502,4080.19 667.336,4064.27 655.788,4052.69 646.76,4039.14 643.39,4031.81 639.292,4019.3 637.376,4008.13 637.376,3991.86 640.546,3975.89 646.762,3960.85 654.076,3949.5 667.336,3935.72 691.502,3919.8 713.582,3900 695.582,3883.2 667.338,3864.27 655.788,3852.69 646.76,3839.14 643.39,3831.81 639.292,3819.3 637.376,3808.13 637.376,3791.86 640.546,3775.89 646.76,3760.85 654.076,3749.5 667.338,3735.72 697.314,3715.34 713.582,3700 691.502,3680.19 667.338,3664.27 655.788,3652.69 646.76,3639.14 643.39,3631.81 639.292,3619.3 637.376,3608.13 637.376,3591.86 640.546,3575.89 646.76,3560.85 654.076,3549.5 667.338,3535.72 695.582,3516.8 713.582,3500 691.502,3480.19 667.338,3464.27 655.788,3452.69 646.76,3439.14 639.292,3419.3 637.06,3402.1 638.448,3384.8 643.39,3368.19 651.676,3352.95 667.338,3335.72 695.582,3316.8 713.582,3300 691.502,3280.19 665.994,3263.13 651.678,3247.05 643.39,3231.81 638.448,3215.19 637.06,3197.9 639.292,3180.7 646.76,3160.85 655.788,3147.3 665.994,3136.87 695.582,3116.8 713.582,3100 726.72,3100 744.464,3083.43 772.82,3064.15 785.51,3052.99 796.744,3051.56 1119.01,3051.67 1130.03,3050.46 1139.7,3047.57 1157.23,3035.83 1362.92,2828.68 1370.63,2810.07 1371.67,2799.01 1371.5,2033.76 1372.82,2021.88 1378.98,2013.98 1734.91,1658.26 1741.83,1652.7 1753.77,1651.5 2219.01,1651.67 2232.88,1649.8 2239.7,1647.57 2248.44,1642.57 2257.22,1635.85 2359.83,1532.72 2365.43,1524.28 2368.9,1515.99 2371.59,1499.5 2367.85,1480.71 2359.44,1466.97 2353.49,1460.94 2344.25,1454.63 2334.94,1450.73 2325.06,1448.63 2315.45,1448.76 2300.38,1452.64 2287,1460.59 2207.49,1539.75 2197.44,1547.28 2187.8,1548.44 1720.98,1548.33 1700.29,1552.42 1691.42,1557.22 1682.76,1564.16 1284.16,1962.76 1272.31,1980.24 1268.33,2000.98 1268.5,2766.23 1267.18,2778.12 1261.04,2785.99 1107.47,2939.7 1098.17,2947.29 1089.36,2948.26 788.75,2947.65 785.51,2947 772.766,2935.8 742.68,2915.34 726.72,2900 742.674,2884.66 772.656,2864.27 785.918,2850.49 793.234,2839.14 799.45,2824.1 802.65,2807.94 803.518,2791.49 810.472,2782.49 1055.83,2537.23 1067.69,2519.75 1070.33,2510.01 1071.67,2499.01 1071.5,1733.76 1073.05,1721.97 1080.28,1712.54 1332.54,1460.28 1341.83,1452.7 1350.65,1451.74 2125.05,1451.37 2134.98,1449.39 2144.27,1445.41 2152.64,1439.77 2159.85,1432.7 2165.43,1424.28 2170.07,1411.96 2171.14,1405.54 2170.57,1389.94 2165.15,1375.3 2159.77,1367.36 2153.49,1360.94 2139.73,1352.36 2120,1348.5 1320.99,1348.33 1307.12,1350.19 1300.29,1352.42 1291.55,1357.42 1282.76,1364.16 984.164,1662.76 977.328,1671.49 972.306,1680.24 968.328,1700.98 968.5,2466.23 967.178,2478.12 961.044,2485.99 848.442,2598.45 830.66,2609.35 814.568,2614.35 806.236,2597.55 794.948,2564.33 784.206,2547.3 772.72,2535.78 748.376,2520.07 725.358,2500 714.568,2500 698.556,2514.87 666.9,2536.04 654.536,2547.12 651.094,2547.67 641.668,2548.5 420.974,2548.33 404.018,2551.16 391.488,2557.33 383.496,2563.5 372.306,2580.24 368.982,2593.85 368.5,4299.99 372.362,4319.73 380.936,4333.49 387.364,4339.76 396.776,4345.81 409.964,4350.44 418.786,4351.14 434.98,4349.39 452.718,4339.87 465.432,4324.28 469.156,4314.91 471.496,4300 471.592,2679.54 472.852,2669.48 476.642,2656.64 485.888,2653.81 501.512,2651.5 651.244,2652.35 654.488,2652.99 667.228,2664.2 691.502,2680.19 713.582,2700 722.63,2700 750.778,2685.33 776.052,2665.95 788.7,2652.99 800.06,2638.62 814.568,2614.35 803.254,2633.97 791.974,2649.16 779.632,2662.55 766.01,2674.53 750.778,2685.33 733.478,2695.08 722.63,2700 713.582,2700 695.582,2716.8 662.942,2739.76 654.076,2749.5 645.048,2764.33 639.292,2780.7 637.06,2797.9 637.376,2808.13 640.546,2824.1 646.76,2839.14 655.788,2852.69 667.338,2864.27 691.502,2880.19 713.582,2900 726.72,2900 713.582,2900 695.582,2916.8 667.338,2935.72 651.676,2952.95 645.048,2964.33 640.546,2975.89 637.376,2991.86 637.376,3008.13 639.292,3019.3 643.39,3031.81 654.078,3050.49 667.338,3064.27 691.502,3080.19 713.582,3100 726.72,3100 742.68,3115.34 777.054,3139.76 785.918,3149.5 794.948,3164.33 799.45,3175.9 802.62,3191.86 802.62,3208.13 799.45,3224.1 793.234,3239.14 784.206,3252.69 772.656,3264.27 748.494,3280.19 726.412,3300 713.582,3300 726.412,3300 744.414,3316.8 777.054,3339.76 785.918,3349.5 794.948,3364.33 799.45,3375.9 802.62,3391.86 802.62,3408.13 799.45,3424.1 793.234,3439.14 784.206,3452.69 772.656,3464.27 748.494,3480.19 726.412,3500 713.582,3500 726.412,3500 744.414,3516.8 777.054,3539.76 785.918,3549.5 794.948,3564.33 799.45,3575.9 802.62,3591.86 802.62,3608.13 799.45,3624.1 793.234,3639.14 784.206,3652.69 772.656,3664.27 748.494,3680.19 726.412,3700 713.582,3700 726.412,3700 742.68,3715.34 777.054,3739.76 785.918,3749.5 794.948,3764.32 799.45,3775.9 802.62,3791.86 802.62,3808.13 799.45,3824.1 793.236,3839.14 784.206,3852.69 772.656,3864.27 748.494,3880.19 726.412,3900 713.582,3900 726.412,3900 744.414,3916.79 777.054,3939.76 785.92,3949.5 793.232,3960.85 799.45,3975.89 801.548,3984.8 802.936,4002.1 800.704,4019.3 794.948,4035.67 785.918,4050.49 772.658,4064.27 748.494,4080.19 726.412,4100 713.582,4100 726.412,4100 744.414,4116.8 774.002,4136.87 788.318,4152.95 794.948,4164.33 799.45,4175.9 802.62,4191.86 801.548,4215.19 796.606,4231.81 788.318,4247.05 774.002,4263.13 748.494,4280.19 726.412,4300 713.582,4300 726.412,4300 744.414,4316.8 772.656,4335.72 785.918,4349.5 794.948,4364.33 800.704,4380.7 802.936,4397.9 800.704,4419.3 793.234,4439.14 784.206,4452.69 774.002,4463.13 748.494,4480.19 726.412,4500 713.582,4500 695.582,4516.8 667.174,4535.84 654.474,4546.98 641.688,4548.5 299.532,4548.4 289.476,4547.14 276.642,4543.36 273.808,4534.11 271.496,4518.5 271.496,1181.5 272.794,1169.76 276.724,1156.71 289.758,1152.79 301.502,1151.48 1219,1151.47 1230.06,1150.6 1246.11,1144.32 1257.23,1135.83 1462.92,928.674 1469.48,913.842 1471.47,901.97 1471.82,808.01 1475.75,790.022 1503.04,779.498 1518.57,771.124 1534.75,757.38 1544.9,746.946 1555.71,745.504 2265.05,745.196 2279.27,747.096 2291.23,759.28 2305.44,770.99 2321.49,779.622 2338.93,784.954 2357.08,786.532 2455.97,786.35 2469.57,784.954 2487.3,779.498 2504.33,770.114 2519.03,757.412 2528.65,745.308 2537.22,729.238 2542.49,711.814 2544.27,693.698 2542.49,675.582 2537.22,658.156 2528.65,642.088 2517.12,627.992 2503.06,616.406 2487,607.774 2469.57,602.442 2451.42,600.866 2357.08,600.866 2338.93,602.442 2321.49,607.774 2305.44,616.406 2291.23,628.118 2279.27,640.302 2265.06,642.202 1559.18,642.202 1544.98,640.302 1533.01,628.116 1518.81,616.406 1502.75,607.774 1485.32,602.442 1467.16,600.866 1368.28,601.048 1354.68,602.442 1337.24,607.776 1316.59,619.856 1302.48,633.174 1293.46,645.442 1281.42,666.484 1262.12,688.516" style="stroke:rgb(103,198,105);stroke-width:0.000000;fill:none;stroke-opacity:0.5;stroke-linecap:round;stroke-linejoin:round;;fill:none"/>
<polyline points="181,4646.42 173.488,4625.91 169.998,4600 169.998,1100 173.488,1074.08 181.372,1052.68 188.384,1039.73 208.28,1012.59 323.146,896.848 921.192,896.848 944.862,903.304 993.87,912.914 1026.03,916.304 1057.09,917.518 1144.41,917.518 1166.29,908 1180.87,901.046 1219.65,879.084 1241.14,864.332 1262.12,847.888 1262.12,688.516 1244.55,668.858 1228.71,642.16 1217.12,627.992 1204.33,617.282 1191.09,609.754 1169.57,602.442 1151.42,600.866 1057.09,600.866 1038.93,602.442 1021.5,607.774 1005.44,616.406 991.232,628.118 979.272,640.302 965.058,642.202 257.42,642.124 244.958,640.338 233.014,628.118 218.806,616.406 202.752,607.774 184.418,602.34 167.164,600.866 68.278,601.048 54.592,602.452 25.586,610.85 -0.002,612.926 0,5300 5420,5300 5420,0 0,0 -0.002,219.224 25.584,217.148 54.594,208.752 68.282,207.346 167.164,207.162 185.314,208.74 202.752,214.074 218.808,222.706 233.014,234.416 244.974,246.602 259.186,248.502 965.064,248.502 979.274,246.6 1000.84,226.156 1021.2,214.2 1038.93,208.742 1057.09,207.162 1151.42,207.162 1169.57,208.74 1187,214.074 1202.82,222.572 1219,236.318 1229.15,246.75 1239.67,248.19 1280.51,248.5 1295.02,246.602 1306.98,234.416 1321.19,222.706 1337.24,214.076 1354.68,208.742 1372.83,207.162 1467.16,207.162 1485.31,208.74 1503.05,214.2 1523.41,226.156 1544.98,246.602 1559.18,248.502 2265.06,248.502 2279.27,246.602 2291.23,234.418 2305.44,222.706 2321.2,214.2 2335.72,209.606 2354.99,207.218 2411.83,207.162 2423.71,205.84 2431.61,199.676 2567.75,63.496 2575.67,57.22 2584.54,52.412 2594.18,49.4 2605.25,48.522 4624.71,48.888 4639.7,52.422 4648.58,57.22 4657.23,64.162 5155.83,562.762 5167.69,580.242 5171.67,600.988 5170.63,2210.07 5165.83,2223.23 5155.82,2237.24 4901.45,2491.91 4896.25,2498.28 4891.94,2521.75 4886.3,2535.41 4872.84,2555.13 4871.5,2567.22 4871.59,2634.84 4872.85,2644.86 4882.08,2657.5 4889.41,2671.39 4893,2682.34 4895.06,2697.9 4893.85,2713.56 4889.41,2728.61 4881.95,2742.42 4872.73,2755.09 4871.5,2767.22 4871.59,2834.84 4872.85,2844.86 4886.15,2864.29 4891.92,2878.18 4894.78,2892.63 4893.85,2913.56 4891.92,2921.81 4886.29,2935.43 4878.12,2947.7 4867.71,2958.14 4855.47,2966.36 4841.85,2972.04 4827.38,2974.93 4812.62,2974.93 4798.14,2972.04 4784.53,2966.36 4768.22,2954.37 4760.45,2945.86 4752.24,2932.47 4748.08,2921.81 4745.21,2907.36 4745.21,2892.63 4748.08,2878.18 4753.69,2864.58 4767.16,2844.86 4768.5,2832.8 4768.44,2765.55 4767.09,2755.16 4752.24,2732.47 4748.08,2721.81 4745.21,2707.36 4745.21,2692.63 4748.08,2678.18 4753.7,2664.58 4767.16,2644.86 4768.5,2632.8 4768.44,2565.55 4767.09,2555.16 4753.87,2535.76 4746.99,2517.66 4744.93,2497.9 4748.08,2478.18 4752.24,2467.53 4758.05,2457.58 4772.28,2441.86 4784.53,2433.64 4798.12,2427.97 4821.06,2424.05 4831.08,2416.09 5059.72,2187.45 5067.12,2178.1 5068.44,2167.81 5068.5,633.754 5066.95,621.972 5059.7,612.53 4605.08,158.258 4598.17,152.704 4586.22,151.494 3697.65,151.874 3683.08,154.484 3676.75,156.752 3672.79,169.76 3671.5,181.52 3671.57,303.216 3672.58,312.204 3674.48,317.106 3687.13,328.9 3698.17,342.076 3707.92,359.838 3713.54,379.232 3714.97,402.32 3713.38,422.312 3707.92,440.158 3699.09,456.586 3681.97,475.702 3669.32,484.964 3651.34,493.416 3638.54,496.938 3620,498.76 3607.99,497.952 3592.65,494.672 3570.68,484.966 3554.84,472.96 3534.6,449.966 3520,437.53 3520,362.456 3532.78,351.554 3552.79,328.972 3566.58,315.774 3567.86,308.574 3568.06,175.562 3563.24,156.752 3552.64,153.44 3540.45,151.59 2636.44,151.556 2626.15,152.87 2616.71,160.366 2542.18,235.344 2534.43,246.144 2532.96,249.044 2542.48,281.814 2543.9,292.384 2543.47,311.782 2537.72,340.702 2540.22,345.104 2547,354.058 2755.84,562.766 2767.69,580.242 2771.67,600.982 2771.5,1018.48 2772.8,1030.24 2776.75,1043.24 2787.35,1046.55 2800.19,1048.4 2814.59,1048.17 2827.35,1045.96 2832.7,1044.19 2840.34,1025.86 2842.83,1022.83 2853.18,1017.47 2857,1017.27 2986.9,1017.34 2997.06,1022.93 3001.84,1030.27 3003.11,1038.43 3002.53,1166.81 2997.83,1176.42 2986.9,1182.65 2853.18,1182.53 2845.95,1179.54 2839.61,1172.98 2832.81,1155.69 2810.37,1151.5 2601.5,1151.5 2589.76,1152.79 2576.72,1156.72 2572.79,1169.76 2571.5,1181.5 2571.59,1720.46 2575.76,1740.3 2576.75,1743.24 2589.75,1747.2 2601.53,1748.5 2819.02,1748.33 2832.88,1750.19 2840.32,1752.77 2856.5,1763.5 2932.5,1839.67 2941.97,1846.95 2945.8,1847.71 3043.69,1848.4 3053.71,1847.14 3075.66,1827.77 3095.33,1801.66 3126.58,1800.17 3144.73,1801.67 3157.99,1820.54 3184.16,1847.24 3193.23,1860.85 3199.45,1875.9 3201.55,1884.8 3202.62,1908.13 3200.7,1919.3 3196.61,1931.81 3193.23,1939.14 3184.21,1952.69 3172.66,1964.27 3148.49,1980.19 3126.41,2000 3144.41,2016.8 3172.66,2035.72 3185.92,2049.5 3193.23,2060.85 3199.45,2075.9 3202.62,2091.86 3202.94,2102.1 3200.7,2119.3 3196.61,2131.81 3193.23,2139.14 3184.21,2152.69 3172.66,2164.27 3148.49,2180.19 3126.41,2200 3144.41,2216.8 3172.66,2235.72 3185.92,2249.5 3193.23,2260.85 3199.45,2275.9 3202.62,2291.86 3202.94,2302.1 3200.7,2319.3 3196.61,2331.81 3193.23,2339.14 3184.21,2352.69 3172.66,2364.27 3148.49,2380.19 3126.41,2400 2756.35,2400 2719.87,2396.88 2716.31,2395.27 2589.77,2395.27 2572.06,2376.83 2548.6,2358.34 2537.83,2345.18 2528.15,2325.7 2523.54,2303.85 2524.87,2279.88 2528.15,2268 2533.88,2255.23 2544.19,2240.28 2563.75,2219.63 2575.54,2201.6 2563.75,2219.63 2544.19,2240.28 2533.88,2255.23 2528.15,2268 2524.87,2279.88 2523.54,2303.85 2528.15,2325.7 2537.83,2345.18 2548.6,2358.34 2572.06,2376.83 2589.77,2395.27 2572.06,2413.71 2548.6,2432.2 2535.92,2448.41 2529.81,2460.42 2524.87,2476.73 2523.2,2493.7 2524.87,2510.66 2529.8,2526.98 2535.92,2538.98 2544.19,2550.27 2557.42,2562.72 2572.05,2573.7 2589.82,2592.12 2713.13,2592.12 2719.34,2595.08 2747.58,2597.07 2764.75,2600 3126.41,2600 3144.41,2616.8 3172.66,2635.72 3185.92,2649.5 3193.23,2660.85 3199.45,2675.9 3202.62,2691.86 3202.94,2702.1 3200.7,2719.3 3196.61,2731.81 3193.23,2739.14 3184.21,2752.69 3172.72,2764.22 3148.38,2779.93 3125.36,2800 3114.57,2800 3095.65,2782.86 3067.16,2764.14 3054.49,2752.99 3043.25,2751.56 2732.82,2751.67 2721.34,2750.13 2701.71,2745.31 2678.27,2762.89 2663.17,2771.01 2646.84,2776 2631.94,2777.42 2610.16,2777.48 2593.16,2776 2576.68,2770.94 2560.72,2762.18 2544.19,2747.12 2535.92,2735.83 2529.8,2723.83 2524.87,2707.51 2523.2,2690.55 2523.97,2679.38 2526.9,2665.7 2533.88,2648.93 2544.19,2633.98 2557.42,2621.52 2572.05,2610.55 2589.82,2592.12 2713.13,2592.12 2719.34,2595.08 2747.58,2597.07 2764.75,2600 3126.41,2600 3148.49,2580.19 3172.66,2564.27 3184.21,2552.69 3193.23,2539.14 3200.7,2519.3 3202.94,2502.1 3201.55,2484.8 3196.61,2468.19 3188.32,2452.95 3174,2436.87 3144.41,2416.8 3126.41,2400 3148.49,2380.19 3172.66,2364.27 3185.92,2350.49 3193.23,2339.14 3199.45,2324.1 3202.62,2308.13 3202.94,2297.9 3200.7,2280.7 3196.61,2268.19 3193.23,2260.85 3184.21,2247.3 3172.66,2235.72 3144.41,2216.8 3126.41,2200 2747.44,2200 2715.43,2210.41 2647.15,2199.11 2606.85,2198.44 2575.54,2201.6 2534.37,2174.83 2525.79,2160.6 2523.94,2154.99 2523.28,2145.76 2523.11,2054.23 2526.51,2037.67 2529.87,2030.68 2534.95,2024.79 2540.84,2019.72 2547.78,2016.22 2555.16,2013.78 2564.4,2013.13 2675.6,2012.95 2684.8,2013.97 2692.29,2016.04 2704.59,2024.6 2719.08,2045.56 2735.89,2048.42 3043.26,2048.44 3054.48,2047 3067.23,2035.8 3091.5,2019.8 3113.58,2000 3126.41,2000 3113.58,2000 3095.58,1983.2 3067.23,1964.2 3054.48,1953.02 3041.64,1951.49 2920.96,1951.67 2909.96,1950.46 2900.29,1947.57 2883.5,1936.5 2807.5,1860.33 2798.02,1853.05 2794.2,1852.29 1996.34,1851.59 1985.49,1852.95 1972.89,1864.11 1941.44,1885.13 1925.43,1900 1914.64,1900 1891.62,1879.93 1876.71,1870.78 1862.94,1860.23 1854.08,1850.49 1846.76,1839.14 1840.55,1824.1 1837.38,1808.13 1838.45,1784.8 1843.39,1768.19 1851.68,1752.95 1865.99,1736.87 1880.28,1726.98 1895.85,1720.41 1911.84,1717.21 1928.15,1717.21 1944.14,1720.41 1963.3,1729.2 1972.87,1735.88 1985.5,1747.03 1998.3,1748.5 2438.5,1748.5 2452.4,1746.67 2463.35,1743.32 2466.19,1734.74 2468.22,1721.93 2469.37,1089.93 2472.31,1080.24 2483.5,1063.5 2491.32,1057.08 2509.93,1049.37 2638.44,1048.59 2652.41,1046.73 2663.31,1043.39 2666.18,1034.73 2668.2,1021.95 2668.5,633.784 2666.95,621.972 2659.71,612.534 2447.64,400.55 2439.44,394.208 2433.91,393.334 2357.08,392.832 2338.93,391.254 2321.49,385.92 2305.44,377.29 2291.23,365.578 2279.27,353.394 2265.06,351.496 1559.18,351.496 1544.97,353.394 1523.41,373.84 1503.05,385.796 1485.31,391.254 1467.16,392.832 1372.83,392.832 1354.68,391.254 1337.24,385.92 1321.42,377.422 1305.25,363.678 1295.1,353.246 1284.58,351.806 1243.74,351.496 1229.22,353.394 1217.27,365.578 1203.06,377.29 1187,385.92 1169.57,391.254 1151.42,392.832 1057.09,392.832 1038.93,391.254 1021.2,385.796 1000.84,373.84 979.274,353.394 965.064,351.496 259.186,351.496 244.974,353.394 233.016,365.578 218.808,377.29 202.752,385.92 185.314,391.254 167.164,392.832 68.284,392.65 54.596,391.244 21.448,382.244 -0.002,380.562 -0.002,219.224 -0.002,774.37 27.234,776.974 48.956,783.386 64.446,789.838 67.38,800.744 68.5,811.648 68.328,4834.42 72.306,4855.17 83.496,4871.92 128.83,4916.53 141.936,4924.64 151.604,4927.52 162.634,4928.73 1558.26,4928.29 1574.08,4924.75 1591.56,4912.9 1834.55,4669.77 1841.43,4664.25 1853.82,4657.3 1880.72,4673.27 1895.85,4679.58 1911.84,4682.79 1928.15,4682.79 1944.14,4679.58 1959.72,4673.02 1974,4663.13 1988.32,4647.05 1994.95,4635.67 1999.45,4624.1 2002.62,4608.13 2002.62,4591.86 2000.7,4580.7 1996.61,4568.19 1988.32,4552.95 1977.05,4539.76 1963.32,4529.17 1948.49,4519.8 1926.41,4500 1942.67,4484.66 1974,4463.13 1984.21,4452.69 1993.23,4439.14 1999.45,4424.1 2002.62,4408.13 2002.62,4391.86 1999.45,4375.89 1994.95,4364.33 1988.32,4352.95 1974,4336.87 1948.49,4319.8 1926.41,4300 1913.58,4300 1895.58,4283.2 1867.34,4264.27 1855.79,4252.69 1846.76,4239.14 1843.39,4231.81 1839.29,4219.3 1837.06,4202.1 1837.38,4191.86 1840.55,4175.9 1846.76,4160.85 1855.79,4147.3 1867.34,4135.72 1891.5,4119.8 1913.58,4100 1926.41,4100 1942.67,4084.66 1977.05,4060.23 1985.92,4050.49 1994.95,4035.67 2000.7,4019.3 2002.94,4002.1 2002.62,3991.86 1999.45,3975.89 1993.23,3960.85 1984.2,3947.3 1972.66,3935.72 1948.49,3919.8 1926.41,3900 1913.58,3900 1895.58,3883.2 1862.94,3860.23 1854.08,3850.49 1845.05,3835.67 1839.29,3819.3 1837.06,3802.1 1837.38,3791.86 1840.55,3775.9 1846.76,3760.85 1855.79,3747.3 1867.34,3735.72 1891.5,3719.8 1913.58,3700 1926.41,3700 1942.67,3684.66 1977.05,3660.23 1985.92,3650.49 1994.95,3635.67 2000.7,3619.3 2002.94,3602.1 2002.62,3591.86 1999.45,3575.89 1993.23,3560.85 1984.21,3547.3 1972.66,3535.72 1942.68,3515.34 1926.72,3500 1913.58,3500 1895.58,3483.2 1865.99,3463.13 1855.79,3452.69 1846.76,3439.14 1840.55,3424.1 1837.38,3408.13 1837.38,3391.86 1840.55,3375.9 1846.76,3360.85 1855.79,3347.3 1867.34,3335.72 1891.5,3319.8 1913.58,3300 1926.41,3300 1944.42,3283.22 1974,3263.13 1984.21,3252.69 1993.23,3239.14 1999.45,3224.1 2002.62,3208.13 2002.62,3191.86 1999.45,3175.89 1993.23,3160.85 1984.21,3147.3 1972.66,3135.72 1948.49,3119.8 1926.41,3100 1913.58,3100 1895.58,3083.2 1865.99,3063.13 1855.79,3052.69 1846.76,3039.14 1840.55,3024.1 1837.38,3008.13 1837.38,2991.86 1840.55,2975.9 1846.76,2960.85 1855.79,2947.3 1867.34,2935.72 1891.5,2919.8 1913.58,2900 1926.41,2900 1942.67,2884.66 1974,2863.13 1984.21,2852.69 1993.23,2839.14 1999.45,2824.1 2002.62,2808.13 2002.62,2791.86 1999.45,2775.89 1993.23,2760.85 1984.21,2747.3 1972.66,2735.72 1948.49,2719.8 1926.41,2700 1913.58,2700 1895.58,2683.2 1865.99,2663.13 1855.79,2652.69 1846.76,2639.14 1840.55,2624.1 1837.38,2608.13 1837.38,2591.86 1840.55,2575.9 1846.76,2560.85 1855.79,2547.3 1867.34,2535.72 1891.5,2519.8 1913.58,2500 1926.41,2500 1942.67,2484.66 1974,2463.13 1984.21,2452.69 1993.23,2439.14 1999.45,2424.1 2001.55,2415.19 2002.94,2397.9 2000.7,2380.7 1993.23,2360.85 1984.21,2347.3 1972.66,2335.72 1948.49,2319.8 1926.41,2300 1913.58,2300 1895.58,2283.2 1865.99,2263.13 1851.68,2247.05 1845.05,2235.67 1840.55,2224.1 1837.38,2208.13 1837.38,2191.86 1840.55,2175.9 1846.76,2160.85 1855.79,2147.3 1865.99,2136.87 1891.62,2120.07 1914.64,2100 1925.43,2100 1941.44,2114.86 1972.72,2135.78 1985.92,2149.5 1994.95,2164.33 2000.7,2180.7 2002.94,2197.9 2000.7,2219.3 1993.23,2239.14 1984.21,2252.69 1974,2263.13 1942.67,2284.66 1926.41,2300 1913.58,2300 1891.5,2319.8 1867.34,2335.72 1855.79,2347.3 1846.76,2360.85 1839.29,2380.7 1837.06,2397.9 1838.45,2415.19 1840.55,2424.1 1846.76,2439.14 1855.79,2452.69 1865.99,2463.13 1895.58,2483.2 1913.58,2500 1926.41,2500 1948.49,2519.8 1972.66,2535.72 1984.21,2547.3 1993.23,2560.85 1999.45,2575.89 2002.62,2591.86 2002.62,2608.13 1999.45,2624.1 1993.23,2639.14 1984.21,2652.69 1974,2663.13 1942.67,2684.66 1926.41,2700 1913.58,2700 1891.5,2719.8 1867.34,2735.72 1855.79,2747.3 1846.76,2760.85 1840.55,2775.9 1837.38,2791.86 1837.38,2808.13 1840.55,2824.1 1846.76,2839.14 1855.79,2852.69 1865.99,2863.13 1895.58,2883.2 1913.58,2900 1926.41,2900 1948.49,2919.8 1972.66,2935.72 1984.21,2947.3 1993.23,2960.85 1999.45,2975.89 2002.62,2991.86 2002.62,3008.13 1999.45,3024.1 1994.95,3035.67 1985.92,3050.49 1977.05,3060.23 1942.67,3084.66 1926.41,3100 1913.58,3100 1891.5,3119.8 1865.99,3136.87 1855.79,3147.3 1846.76,3160.85 1840.55,3175.9 1838.45,3184.8 1837.38,3208.13 1839.29,3219.3 1843.39,3231.81 1854.08,3250.49 1867.34,3264.27 1895.58,3283.2 1913.58,3300 1926.41,3300 1944.42,3316.77 1972.62,3335.67 1985.53,3346.99 1998.32,3348.51 2319.01,3348.52 2330.06,3349.4 2339.71,3352.41 2348.58,3357.22 2357.23,3364.16 2508.71,3514.62 2510.91,3516.09 2527.95,3517.18 2547.64,3521.73 2563.3,3529.2 2574.06,3536.79 2585.45,3547.12 2594.43,3548.12 2830.38,3548.33 2851.1,3552.42 2859.97,3557.22 2868.62,3564.16 3239.91,3934.73 3253.81,3942.52 3280.26,3926.94 3295.85,3920.41 3311.84,3917.21 3326.58,3917.18 3347.64,3921.73 3359.72,3926.98 3374,3936.87 3388.32,3952.95 3394.95,3964.33 3399.45,3975.89 3402.94,3997.9 3402.62,4008.13 3399.45,4024.1 3394.95,4035.67 3388.32,4047.05 3372.71,4064.23 3359.71,4073.02 3347.64,4078.27 3328.15,4082.79 3311.84,4082.79 3295.85,4079.58 3276.7,4070.79 3265.94,4063.21 3254.37,4052.75 3220.98,4050.54 3202.71,4042.92 2809.58,3652.68 2592.37,3651.93 2585.5,3652.97 2572.88,3664.11 2563.3,3670.79 2544.14,3679.58 2526.58,3682.82 2511.84,3682.79 2495.85,3679.58 2480.81,3673.31 2467.28,3664.23 2451.68,3647.05 2445.05,3635.67 2440.55,3624.1 2437.35,3607.93 2436.48,3591.49 2429.51,3582.47 2305.07,3458.24 2298.17,3452.7 2286.21,3451.49 1995.17,3451.74 1985.47,3452.91 1973.39,3463.76 1942.67,3484.66 1926.72,3500 1913.58,3500 1891.5,3519.8 1865.99,3536.87 1855.79,3547.3 1846.76,3560.85 1840.55,3575.9 1837.38,3591.86 1837.38,3608.13 1840.55,3624.1 1846.76,3639.14 1855.79,3652.69 1867.34,3664.27 1895.58,3683.2 1913.58,3700 1926.41,3700 1948.49,3719.8 1974,3736.87 1984.21,3747.3 1993.23,3760.85 1999.45,3775.89 2002.62,3791.86 2002.62,3808.13 1999.45,3824.1 1993.23,3839.14 1984.21,3852.69 1972.66,3864.27 1942.68,3884.65 1926.41,3900 1913.58,3900 1891.5,3919.8 1865.99,3936.87 1855.79,3947.3 1846.76,3960.85 1840.55,3975.89 1837.38,3991.86 1837.38,4008.13 1840.54,4024.1 1846.76,4039.14 1855.79,4052.69 1867.34,4064.27 1895.58,4083.2 1913.58,4100 1926.41,4100 1948.49,4119.8 1974,4136.87 1984.21,4147.3 1993.23,4160.85 1999.45,4175.89 2001.55,4184.8 2002.94,4202.1 2000.7,4219.3 1993.23,4239.14 1984.21,4252.69 1972.66,4264.27 1944.41,4283.2 1926.41,4300 1913.58,4300 1891.5,4319.8 1865.99,4336.87 1855.79,4347.3 1846.76,4360.85 1839.29,4380.7 1837.06,4397.9 1839.29,4419.3 1845.05,4435.67 1854.08,4450.49 1867.48,4464.4 1895.58,4483.22 1913.58,4500 1926.41,4500 1913.58,4500 1895.58,4516.8 1866.74,4536.15 1854.37,4547.25 1820.98,4549.45 1806.19,4555.22 1799.68,4559.56 1537.28,4820.67 1532.47,4824.24 1522.53,4825.47 201.498,4825.56 184.094,4822.86 174.202,4812.96 171.494,4795.57 171.494,4679.55 172.668,4668.4 177.514,4653.35 181,4646.42 220.916,4651.67 641.682,4651.5 654.478,4653.02 676.7,4670.79 695.854,4679.58 711.844,4682.79 728.15,4682.79 747.638,4678.27 759.716,4673.02 772.712,4664.23 785.918,4650.49 796.606,4631.81 800.704,4619.3 802.62,4608.13 802.62,4591.86 800.704,4580.7 796.606,4568.19 785.918,4549.5 772.656,4535.72 744.414,4516.8 726.412,4500 713.582,4500 695.582,4483.2 662.942,4460.23 654.078,4450.49 645.048,4435.67 640.546,4424.1 637.376,4408.13 637.376,4391.86 640.546,4375.89 646.76,4360.85 654.076,4349.5 667.338,4335.72 697.314,4315.34 713.582,4300 691.502,4280.19 667.338,4264.27 655.788,4252.69 646.76,4239.14 643.39,4231.81 639.292,4219.3 637.376,4208.13 637.376,4191.86 640.546,4175.89 646.76,4160.85 654.076,4149.5 667.338,4135.72 697.314,4115.34 713.582,4100 691.502,4080.19 667.336,4064.27 655.788,4052.69 646.76,4039.14 643.39,4031.81 639.292,4019.3 637.376,4008.13 637.376,3991.86 640.546,3975.89 646.762,3960.85 654.076,3949.5 667.336,3935.72 691.502,3919.8 713.582,3900 695.582,3883.2 667.338,3864.27 655.788,3852.69 646.76,3839.14 643.39,3831.81 639.292,3819.3 637.376,3808.13 637.376,3791.86 640.546,3775.89 646.76,3760.85 654.076,3749.5 667.338,3735.72 697.314,3715.34 713.582,3700 691.502,3680.19 667.338,3664.27 655.788,3652.69 646.76,3639.14 643.39,3631.81 639.292,3619.3 637.376,3608.13 637.376,3591.86 640.546,3575.89 646.76,3560.85 654.076,3549.5 667.338,3535.72 695.582,3516.8 713.582,3500 691.502,3480.19 667.338,3464.27 655.788,3452.69 646.76,3439.14 639.292,3419.3 637.06,3402.1 638.448,3384.8 643.39,3368.19 651.676,3352.95 667.338,3335.72 695.582,3316.8 713.582,3300 691.502,3280.19 665.994,3263.13 651.678,3247.05 643.39,3231.81 638.448,3215.19 637.06,3197.9 639.292,3180.7 646.76,3160.85 655.788,3147.3 665.994,3136.87 695.582,3116.8 713.582,3100 726.72,3100 744.464,3083.43 772.82,3064.15 785.51,3052.99 796.744,3051.56 1119.01,3051.67 1130.03,3050.46 1139.7,3047.57 1157.23,3035.83 1362.92,2828.68 1370.63,2810.07 1371.67,2799.01 1371.5,2033.76 1372.82,2021.88 1378.98,2013.98 1734.91,1658.26 1741.83,1652.7 1753.77,1651.5 2219.01,1651.67 2232.88,1649.8 2239.7,1647.57 2248.44,1642.57 2257.22,1635.85 2359.83,1532.72 2365.43,1524.28 2368.9,1515.99 2371.59,1499.5 2367.85,1480.71 2359.44,1466.97 2353.49,1460.94 2344.25,1454.63 2334.94,1450.73 2325.06,1448.63 2315.45,1448.76 2300.38,1452.64 2287,1460.59 2207.49,1539.75 2197.44,1547.28 2187.8,1548.44 1720.98,1548.33 1700.29,1552.42 1691.42,1557.22 1682.76,1564.16 1284.16,1962.76 1272.31,1980.24 1268.33,2000.98 1268.5,2766.23 1267.18,2778.12 1261.04,2785.99 1107.47,2939.7 1098.17,2947.29 1089.36,2948.26 788.75,2947.65 785.51,2947 772.766,2935.8 742.68,2915.34 726.72,2900 742.674,2884.66 772.656,2864.27 785.918,2850.49 793.234,2839.14 799.45,2824.1 802.65,2807.94 803.518,2791.49 810.472,2782.49 1055.83,2537.23 1067.69,2519.75 1070.33,2510.01 1071.67,2499.01 1071.5,1733.76 1073.05,1721.97 1080.28,1712.54 1332.54,1460.28 1341.83,1452.7 1350.65,1451.74 2125.05,1451.37 2134.98,1449.39 2144.27,1445.41 2152.64,1439.77 2159.85,1432.7 2165.43,1424.28 2170.07,1411.96 2171.14,1405.54 2170.57,1389.94 2165.15,1375.3 2159.77,1367.36 2153.49,1360.94 2139.73,1352.36 2120,1348.5 1320.99,1348.33 1307.12,1350.19 1300.29,1352.42 1291.55,1357.42 1282.76,1364.16 984.164,1662.76 977.328,1671.49 972.306,1680.24 968.328,1700.98 968.5,2466.23 967.178,2478.12 961.044,2485.99 848.442,2598.45 830.66,2609.35 814.568,2614.35 806.236,2597.55 794.948,2564.33 784.206,2547.3 772.72,2535.78 748.376,2520.07 725.358,2500 714.568,2500 698.556,2514.87 666.9,2536.04 654.536,2547.12 651.094,2547.67 641.668,2548.5 420.974,2548.33 404.018,2551.16 391.488,2557.33 383.496,2563.5 372.306,2580.24 368.982,2593.85 368.5,4299.99 372.362,4319.73 380.936,4333.49 387.364,4339.76 396.776,4345.81 409.964,4350.44 418.786,4351.14 434.98,4349.39 452.718,4339.87 465.432,4324.28 469.156,4314.91 471.496,4300 471.592,2679.54 472.852,2669.48 476.642,2656.64 485.888,2653.81 501.512,2651.5 651.244,2652.35 654.488,2652.99 667.228,2664.2 691.502,2680.19 713.582,2700 722.63,2700 750.778,2685.33 776.052,2665.95 788.7,2652.99 800.06,2638.62 814.568,2614.35 803.254,2633.97 791.974,2649.16 779.632,2662.55 766.01,2674.53 750.778,2685.33 733.478,2695.08 722.63,2700 713.582,2700 695.582,2716.8 662.942,2739.76 654.076,2749.5 645.048,2764.33 639.292,2780.7 637.06,2797.9 637.376,2808.13 640.546,2824.1 646.76,2839.14 655.788,2852.69 667.338,2864.27 691.502,2880.19 713.582,2900 726.72,2900 713.582,2900 695.582,2916.8 667.338,2935.72 651.676,2952.95 645.048,2964.33 640.546,2975.89 637.376,2991.86 637.376,3008.13 639.292,3019.3 643.39,3031.81 654.078,3050.49 667.338,3064.27 691.502,3080.19 713.582,3100 726.72,3100 742.68,3115.34 777.054,3139.76 785.918,3149.5 794.948,3164.33 799.45,3175.9 802.62,3191.86 802.62,3208.13 799.45,3224.1 793.234,3239.14 784.206,3252.69 772.656,3264.27 748.494,3280.19 726.412,3300 713.582,3300 726.412,3300 744.414,3316.8 777.054,3339.76 785.918,3349.5 794.948,3364.33 799.45,3375.9 802.62,3391.86 802.62,3408.13 799.45,3424.1 793.234,3439.14 784.206,3452.69 772.656,3464.27 748.494,3480.19 726.412,3500 713.582,3500 726.412,3500 744.414,3516.8 777.054,3539.76 785.918,3549.5 794.948,3564.33 799.45,3575.9 802.62,3591.86 802.62,3608.13 799.45,3624.1 793.234,3639.14 784.206,3652.69 772.656,3664.27 748.494,3680.19 726.412,3700 713.582,3700 726.412,3700 742.68,3715.34 777.054,3739.76 785.918,3749.5 794.948,3764.32 799.45,3775.9 802.62,3791.86 802.62,3808.13 799.45,3824.1 793.236,3839.14 784.206,3852.69 772.656,3864.27 748.494,3880.19 726.412,3900 713.582,3900 726.412,3900 744.414,3916.79 777.054,3939.76 785.92,3949.5 793.232,3960.85 799.45,3975.89 801.548,3984.8 802.936,4002.1 800.704,4019.3 794.948,4035.67 785.918,4050.49 772.658,4064.27 748.494,4080.19 726.412,4100 713.582,4100 726.412,4100 744.414,4116.8 774.002,4136.87 788.318,4152.95 794.948,4164.33 799.45,4175.9 802.62,4191.86 801.548,4215.19 796.606,4231.81 788.318,4247.05 774.002,4263.13 748.494,4280.19 726.412,4300 713.582,4300 726.412,4300 744.414,4316.8 772.656,4335.72 785.918,4349.5 794.948,4364.33 800.704,4380.7 802.936,4397.9 800.704,4419.3 793.234,4439.14 784.206,4452.69 774.002,4463.13 748.494,4480.19 726.412,4500 713.582,4500 695.582,4516.8 667.174,4535.84 654.474,4546.98 641.688,4548.5 299.532,4548.4 289.476,4547.14 276.642,4543.36 273.808,4534.11 271.496,4518.5 271.496,1181.5 272.794,1169.76 276.724,1156.71 289.758,1152.79 301.502,1151.48 1219,1151.47 1230.06,1150.6 1246.11,1144.32 1257.23,1135.83 1462.92,928.674 1469.48,913.842 1471.47,901.97 1471.82,808.01 1475.75,790.022 1503.04,779.498 1518.57,771.124 1534.75,757.38 1544.9,746.946 1555.71,745.504 2265.05,745.196 2279.27,747.096 2291.23,759.28 2305.44,770.99 2321.49,779.622 2338.93,784.954 2357.08,786.532 2455.97,786.35 2469.57,784.954 2487.3,779.498 2504.33,770.114 2519.03,757.412 2528.65,745.308 2537.22,729.238 2542.49,711.814 2544.27,693.698 2542.49,675.582 2537.22,658.156 2528.65,642.088 2517.12,627.992 2503.06,616.406 2487,607.774 2469.57,602.442 2451.42,600.866 2357.08,600.866 2338.93,602.442 2321.49,607.774 2305.44,616.406 2291.23,628.118 2279.27,640.302 2265.06,642.202 1559.18,642.202 1544.98,640.302 1533.01,628.116 1518.81,616.406 1502.75,607.774 1485.32,602.442 1467.16,600.866 1368.28,601.048 1354.68,602.442 1337.24,607.776 1316.59,619.856 1302.48,633.174 1293.46,645.442 1281.42,666.484 1262.12,688.516" style="stroke:rgb(0,0,0);stroke-width:1px;fill:none;stroke-opacity:1;stroke-linecap:round;stroke-linejoin:round;;fill:none"/>
<polyline points="695.008,1901.69 682.01,1920.54 654.076,1949.5 643.39,1968.19 639.292,1980.7 637.06,1997.9 638.448,2015.19 643.39,2031.81 654.078,2050.49 667.338,2064.27 691.502,2080.19 713.582,2100 726.412,2100 748.494,2119.8 763.322,2129.17 777.054,2139.76 785.918,2149.51 794.948,2164.33 799.45,2175.9 802.62,2191.86 802.62,2208.13 799.45,2224.1 793.234,2239.14 785.918,2250.49 772.722,2264.22 744.342,2282.86 725.426,2300 714.636,2300 691.62,2279.93 667.274,2264.22 655.788,2252.69 646.762,2239.14 640.546,2224.1 637.376,2208.13 637.376,2191.86 640.546,2175.9 645.048,2164.33 654.076,2149.5 662.942,2139.76 695.582,2116.8 713.582,2100 726.412,2100 742.674,2084.66 772.656,2064.27 788.318,2047.05 794.948,2035.67 799.45,2024.1 802.62,2008.13 802.62,1991.86 799.45,1975.9 794.948,1964.33 784.158,1947.24 757.986,1920.54 744.986,1901.69 767.164,1887.99 794.036,1879.55 799.538,1874.05 802.788,1865.91 802.528,1733.18 799.056,1725.07 794.92,1720.94 782.992,1716.96 657.006,1717.27 653.184,1717.47 645.074,1720.94 640.938,1725.07 637.208,1734.08 636.888,1738.42 637.27,1862.99 637.466,1866.81 640.938,1874.92 650.646,1882.02 676.57,1889.68 695.008,1901.69 713.414,1900.17 744.986,1901.69" style="stroke:rgb(103,198,105);stroke-width:0.000000;fill:none;stroke-opacity:0.5;stroke-linecap:round;stroke-linejoin:round;;fill:none"/>
<polyline points="695.008,1901.69 682.01,1920.54 654.076,1949.5 643.39,1968.19 639.292,1980.7 637.06,1997.9 638.448,2015.19 643.39,2031.81 654.078,2050.49 667.338,2064.27 691.502,2080.19 713.582,2100 726.412,2100 748.494,2119.8 763.322,2129.17 777.054,2139.76 785.918,2149.51 794.948,2164.33 799.45,2175.9 802.62,2191.86 802.62,2208.13 799.45,2224.1 793.234,2239.14 785.918,2250.49 772.722,2264.22 744.342,2282.86 725.426,2300 714.636,2300 691.62,2279.93 667.274,2264.22 655.788,2252.69 646.762,2239.14 640.546,2224.1 637.376,2208.13 637.376,2191.86 640.546,2175.9 645.048,2164.33 654.076,2149.5 662.942,2139.76 695.582,2116.8 713.582,2100 726.412,2100 742.674,2084.66 772.656,2064.27 788.318,2047.05 794.948,2035.67 799.45,2024.1 802.62,2008.13 802.62,1991.86 799.45,1975.9 794.948,1964.33 784.158,1947.24 757.986,1920.54 744.986,1901.69 767.164,1887.99 794.036,1879.55 799.538,1874.05 802.788,1865.91 802.528,1733.18 799.056,1725.07 794.92,1720.94 782.992,1716.96 657.006,1717.27 653.184,1717.47 645.074,1720.94 640.938,1725.07 637.208,1734.08 636.888,1738.42 637.27,1862.99 637.466,1866.81 640.938,1874.92 650.646,1882.02 676.57,1889.68 695.008,1901.69 713.414,1900.17 744.986,1901.69" style="stroke:rgb(0,0,0);stroke-width:1px;fill:none;stroke-opacity:1;stroke-linecap:round;stroke-linejoin:round;;fill:none"/>
<polyline points="2867.24,625.254 2870.03,615.762 2875.53,612.818 2894.87,605.904 2914.94,602.932 2935.2,603.93 2954.88,608.862 2970.05,616.042 2972.76,625.254 2947.88,650.134 2939.46,646.39 2926.58,643.652 2913.41,643.652 2900.53,646.39 2892.12,650.134 2867.24,625.254" style="stroke:rgb(103,198,105);stroke-width:0.000000;fill:none;stroke-opacity:0.5;stroke-linecap:round;stroke-linejoin:round;;fill:none"/>
<polyline points="2867.24,625.254 2870.03,615.762 2875.53,612.818 2894.87,605.904 2914.94,602.932 2935.2,603.93 2954.88,608.862 2970.05,616.042 2972.76,625.254 2947.88,650.134 2939.46,646.39 2926.58,643.652 2913.41,643.652 2900.53,646.39 2892.12,650.134 2867.24,625.254" style="stroke:rgb(0,0,0);stroke-width:1px;fill:none;stroke-opacity:1;stroke-linecap:round;stroke-linejoin:round;;fill:none"/>
<polyline points="2976.21,734.228 2981.61,719.396 2982.99,706.298 2981.61,693.202 2976.21,678.368 3001.04,653.538 3010.53,656.324 3020.39,681.168 3023.36,701.236 3022.37,721.498 3017.43,741.178 3010.25,756.352 3001.04,759.056 2976.21,734.228" style="stroke:rgb(103,198,105);stroke-width:0.000000;fill:none;stroke-opacity:0.5;stroke-linecap:round;stroke-linejoin:round;;fill:none"/>
<polyline points="2976.21,734.228 2981.61,719.396 2982.99,706.298 2981.61,693.202 2976.21,678.368 3001.04,653.538 3010.53,656.324 3020.39,681.168 3023.36,701.236 3022.37,721.498 3017.43,741.178 3010.25,756.352 3001.04,759.056 2976.21,734.228" style="stroke:rgb(0,0,0);stroke-width:1px;fill:none;stroke-opacity:1;stroke-linecap:round;stroke-linejoin:round;;fill:none"/>
<polyline points="2816.63,711.356 2819.6,731.426 2826.52,750.762 2829.46,756.27 2838.96,759.056 2863.78,734.226 2858.38,719.396 2857.01,706.298 2858.38,693.202 2863.79,678.368 2838.96,653.538 2829.74,656.244 2822.56,671.416 2817.63,691.096 2816.63,711.356" style="stroke:rgb(103,198,105);stroke-width:0.000000;fill:none;stroke-opacity:0.5;stroke-linecap:round;stroke-linejoin:round;;fill:none"/>
<polyline points="2816.63,711.356 2819.6,731.426 2826.52,750.762 2829.46,756.27 2838.96,759.056 2863.78,734.226 2858.38,719.396 2857.01,706.298 2858.38,693.202 2863.79,678.368 2838.96,653.538 2829.74,656.244 2822.56,671.416 2817.63,691.096 2816.63,711.356" style="stroke:rgb(0,0,0);stroke-width:1px;fill:none;stroke-opacity:1;stroke-linecap:round;stroke-linejoin:round;;fill:none"/>
<polyline points="2867.24,787.34 2892.12,762.462 2900.53,766.208 2913.41,768.946 2926.58,768.946 2939.46,766.208 2947.88,762.462 2972.76,787.34 2969.97,796.832 2964.46,799.776 2945.13,806.69 2925.06,809.664 2904.8,808.666 2885.12,803.732 2869.94,796.552 2867.24,787.34" style="stroke:rgb(103,198,105);stroke-width:0.000000;fill:none;stroke-opacity:0.5;stroke-linecap:round;stroke-linejoin:round;;fill:none"/>
<polyline points="2867.24,787.34 2892.12,762.462 2900.53,766.208 2913.41,768.946 2926.58,768.946 2939.46,766.208 2947.88,762.462 2972.76,787.34 2969.97,796.832 2964.46,799.776 2945.13,806.69 2925.06,809.664 2904.8,808.666 2885.12,803.732 2869.94,796.552 2867.24,787.34" style="stroke:rgb(0,0,0);stroke-width:1px;fill:none;stroke-opacity:1;stroke-linecap:round;stroke-linejoin:round;;fill:none"/>
<polyline points="3016.77,1637.47 3017.58,1629.17 3019.87,1621.62 3028.58,1608.58 3034.68,1603.59 3049.17,1597.58 3093.33,1596.98 3100,1603.65 3100,1637.01 3057.01,1637.01 3057.01,1680 3023.65,1680 3016.98,1673.33 3016.77,1637.47" style="stroke:rgb(103,198,105);stroke-width:0.000000;fill:none;stroke-opacity:0.5;stroke-linecap:round;stroke-linejoin:round;;fill:none"/>
<polyline points="3016.77,1637.47 3017.58,1629.17 3019.87,1621.62 3028.58,1608.58 3034.68,1603.59 3049.17,1597.58 3093.33,1596.98 3100,1603.65 3100,1637.01 3057.01,1637.01 3057.01,1680 3023.65,1680 3016.98,1673.33 3016.77,1637.47" style="stroke:rgb(0,0,0);stroke-width:1px;fill:none;stroke-opacity:1;stroke-linecap:round;stroke-linejoin:round;;fill:none"/>
<polyline points="3140,1637.01 3182.99,1637.01 3182.99,1680 3216.35,1680 3223.02,1673.33 3222.41,1629.17 3216.41,1614.68 3211.41,1608.58 3198.37,1599.87 3190.83,1597.58 3182.53,1596.77 3146.67,1596.98 3140,1603.65 3140,1637.01" style="stroke:rgb(103,198,105);stroke-width:0.000000;fill:none;stroke-opacity:0.5;stroke-linecap:round;stroke-linejoin:round;;fill:none"/>
<polyline points="3140,1637.01 3182.99,1637.01 3182.99,1680 3216.35,1680 3223.02,1673.33 3222.41,1629.17 3216.41,1614.68 3211.41,1608.58 3198.37,1599.87 3190.83,1597.58 3182.53,1596.77 3146.67,1596.98 3140,1603.65 3140,1637.01" style="stroke:rgb(0,0,0);stroke-width:1px;fill:none;stroke-opacity:1;stroke-linecap:round;stroke-linejoin:round;;fill:none"/>
<polyline points="3667.24,887.34 3669.94,896.552 3685.12,903.732 3704.8,908.666 3725.06,909.664 3745.13,906.69 3764.46,899.776 3769.97,896.832 3772.76,887.34 3747.88,862.462 3739.46,866.208 3726.58,868.946 3713.41,868.946 3700.53,866.208 3692.12,862.46 3667.24,887.34" style="stroke:rgb(103,198,105);stroke-width:0.000000;fill:none;stroke-opacity:0.5;stroke-linecap:round;stroke-linejoin:round;;fill:none"/>
<polyline points="3667.24,887.34 3669.94,896.552 3685.12,903.732 3704.8,908.666 3725.06,909.664 3745.13,906.69 3764.46,899.776 3769.97,896.832 3772.76,887.34 3747.88,862.462 3739.46,866.208 3726.58,868.946 3713.41,868.946 3700.53,866.208 3692.12,862.46 3667.24,887.34" style="stroke:rgb(0,0,0);stroke-width:1px;fill:none;stroke-opacity:1;stroke-linecap:round;stroke-linejoin:round;;fill:none"/>
<polyline points="3616.63,811.356 3617.63,791.096 3622.56,771.416 3629.74,756.244 3638.96,753.538 3663.79,778.368 3658.38,793.202 3657.01,806.298 3658.38,819.396 3663.78,834.226 3638.96,859.056 3629.46,856.27 3626.52,850.762 3619.6,831.426 3616.63,811.356" style="stroke:rgb(103,198,105);stroke-width:0.000000;fill:none;stroke-opacity:0.5;stroke-linecap:round;stroke-linejoin:round;;fill:none"/>
<polyline points="3616.63,811.356 3617.63,791.096 3622.56,771.416 3629.74,756.244 3638.96,753.538 3663.79,778.368 3658.38,793.202 3657.01,806.298 3658.38,819.396 3663.78,834.226 3638.96,859.056 3629.46,856.27 3626.52,850.762 3619.6,831.426 3616.63,811.356" style="stroke:rgb(0,0,0);stroke-width:1px;fill:none;stroke-opacity:1;stroke-linecap:round;stroke-linejoin:round;;fill:none"/>
<polyline points="3667.24,725.254 3670.03,715.762 3675.53,712.818 3694.87,705.904 3714.94,702.932 3735.2,703.93 3754.88,708.862 3770.05,716.042 3772.76,725.254 3747.88,750.134 3739.46,746.39 3726.58,743.652 3713.41,743.652 3700.53,746.39 3692.12,750.134 3667.24,725.254" style="stroke:rgb(103,198,105);stroke-width:0.000000;fill:none;stroke-opacity:0.5;stroke-linecap:round;stroke-linejoin:round;;fill:none"/>
<polyline points="3667.24,725.254 3670.03,715.762 3675.53,712.818 3694.87,705.904 3714.94,702.932 3735.2,703.93 3754.88,708.862 3770.05,716.042 3772.76,725.254 3747.88,750.134 3739.46,746.39 3726.58,743.652 3713.41,743.652 3700.53,746.39 3692.12,750.134 3667.24,725.254" style="stroke:rgb(0,0,0);stroke-width:1px;fill:none;stroke-opacity:1;stroke-linecap:round;stroke-linejoin:round;;fill:none"/>
<polyline points="3776.21,834.228 3781.61,819.396 3782.99,806.298 3781.61,793.202 3776.21,778.368 3801.04,753.538 3810.53,756.324 3820.39,781.168 3823.36,801.236 3822.37,821.498 3817.43,841.178 3810.25,856.352 3801.04,859.056 3776.21,834.228" style="stroke:rgb(103,198,105);stroke-width:0.000000;fill:none;stroke-opacity:0.5;stroke-linecap:round;stroke-linejoin:round;;fill:none"/>
<polyline points="3776.21,834.228 3781.61,819.396 3782.99,806.298 3781.61,793.202 3776.21,778.368 3801.04,753.538 3810.53,756.324 3820.39,781.168 3823.36,801.236 3822.37,821.498 3817.43,841.178 3810.25,856.352 3801.04,859.056 3776.21,834.228" style="stroke:rgb(0,0,0);stroke-width:1px;fill:none;stroke-opacity:1;stroke-linecap:round;stroke-linejoin:round;;fill:none"/>
<polyline points="4561.65,582.366 4561.88,673.346 4568.53,679.998 4601.89,679.998 4601.89,581.888 4700,581.888 4700,548.53 4693.35,541.876 4594.05,542.466 4586.51,544.754 4573.47,553.466 4564.75,566.506 4562.47,574.048 4561.65,582.366" style="stroke:rgb(103,198,105);stroke-width:0.000000;fill:none;stroke-opacity:0.5;stroke-linecap:round;stroke-linejoin:round;;fill:none"/>
<polyline points="4561.65,582.366 4561.88,673.346 4568.53,679.998 4601.89,679.998 4601.89,581.888 4700,581.888 4700,548.53 4693.35,541.876 4594.05,542.466 4586.51,544.754 4573.47,553.466 4564.75,566.506 4562.47,574.048 4561.65,582.366" style="stroke:rgb(0,0,0);stroke-width:1px;fill:none;stroke-opacity:1;stroke-linecap:round;stroke-linejoin:round;;fill:none"/>
<polyline points="4740,581.888 4740,548.53 4746.65,541.876 4837.63,541.646 4845.95,542.466 4853.49,544.754 4866.53,553.466 4875.24,566.506 4877.53,574.048 4878.12,673.346 4871.47,680 4838.11,680 4838.11,581.888 4740,581.888" style="stroke:rgb(103,198,105);stroke-width:0.000000;fill:none;stroke-opacity:0.5;stroke-linecap:round;stroke-linejoin:round;;fill:none"/>
<polyline points="4740,581.888 4740,548.53 4746.65,541.876 4837.63,541.646 4845.95,542.466 4853.49,544.754 4866.53,553.466 4875.24,566.506 4877.53,574.048 4878.12,673.346 4871.47,680 4838.11,680 4838.11,581.888 4740,581.888" style="stroke:rgb(0,0,0);stroke-width:1px;fill:none;stroke-opacity:1;stroke-linecap:round;stroke-linejoin:round;;fill:none"/>
<polyline points="4561.65,817.63 4561.88,726.652 4568.53,719.998 4601.89,719.998 4601.89,818.11 4700,818.108 4700,851.466 4693.35,858.12 4594.05,857.53 4586.51,855.242 4573.47,846.53 4564.75,833.49 4562.47,825.948 4561.65,817.63" style="stroke:rgb(103,198,105);stroke-width:0.000000;fill:none;stroke-opacity:0.5;stroke-linecap:round;stroke-linejoin:round;;fill:none"/>
<polyline points="4561.65,817.63 4561.88,726.652 4568.53,719.998 4601.89,719.998 4601.89,818.11 4700,818.108 4700,851.466 4693.35,858.12 4594.05,857.53 4586.51,855.242 4573.47,846.53 4564.75,833.49 4562.47,825.948 4561.65,817.63" style="stroke:rgb(0,0,0);stroke-width:1px;fill:none;stroke-opacity:1;stroke-linecap:round;stroke-linejoin:round;;fill:none"/>
<polyline points="4740,851.466 4740,818.108 4838.11,818.11 4838.11,719.998 4871.47,719.998 4878.12,726.652 4878.35,817.63 4877.53,825.948 4875.24,833.49 4866.53,846.53 4853.49,855.242 4845.95,857.53 4837.63,858.35 4746.65,858.12 4740,851.466" style="stroke:rgb(103,198,105);stroke-width:0.000000;fill:none;stroke-opacity:0.5;stroke-linecap:round;stroke-linejoin:round;;fill:none"/>
<polyline points="4740,851.466 4740,818.108 4838.11,818.11 4838.11,719.998 4871.47,719.998 4878.12,726.652 4878.35,817.63 4877.53,825.948 4875.24,833.49 4866.53,846.53 4853.49,855.242 4845.95,857.53 4837.63,858.35 4746.65,858.12 4740,851.466" style="stroke:rgb(0,0,0);stroke-width:1px;fill:none;stroke-opacity:1;stroke-linecap:round;stroke-linejoin:round;;fill:none"/>
<polyline points="4176.52,1456.64 4173.69,1430.46 4168.89,1406.14 4169,1393.85 4172.8,1379.9 4177.08,1371.32 4191.32,1357.08 4199.9,1352.8 4215.49,1348.8 4319.04,1348.33 4330.03,1349.54 4339.7,1352.42 4356.5,1363.5 4457.78,1464.99 4462.92,1471.32 4467.41,1480.36 4470.63,1489.93 4471.37,1501 4471.23,1803.93 4467.69,1819.75 4456.5,1836.5 4357.23,1935.83 4346.11,1944.32 4339.03,1947.76 4320,1951.62 4196.77,1951.56 4185.51,1952.99 4172.82,1964.15 4144.41,1983.2 4126.41,2000 4144.42,2016.77 4172.51,2035.6 4184.21,2047.3 4193.23,2060.85 4200.7,2080.7 4202.94,2102.1 4199.45,2124.1 4194.95,2135.67 4188.32,2147.05 4172.96,2165.49 4171.59,2176.26 4171.5,2221.61 4172.97,2234.5 4188.32,2252.95 4194.95,2264.33 4199.45,2275.9 4202.62,2291.86 4202.62,2308.13 4199.45,2324.1 4194.95,2335.67 4185.92,2350.49 4177.05,2360.23 4144.41,2383.2 4126.41,2400 4113.58,2400 4095.58,2416.8 4067.34,2435.72 4054.08,2449.5 4043.39,2468.19 4038.45,2484.8 4037.06,2502.1 4040.55,2524.1 4046.76,2539.14 4055.79,2552.69 4065.99,2563.13 4091.5,2580.19 4113.58,2600 4095.58,2616.8 4065.99,2636.87 4055.79,2647.3 4046.76,2660.85 4040.55,2675.89 4037.38,2691.86 4037.38,2708.13 4040.55,2724.1 4046.76,2739.14 4054.08,2750.49 4062.94,2760.23 4076.67,2770.83 4091.5,2780.19 4113.58,2800 4091.5,2780.19 4067.34,2764.27 4055.79,2752.69 4046.76,2739.14 4043.39,2731.81 4039.29,2719.3 4037.06,2702.1 4037.38,2691.86 4040.55,2675.89 4046.76,2660.85 4054.08,2649.5 4067.34,2635.72 4095.58,2616.8 4113.58,2600 4495.15,2600 4525.76,2620.74 4555.39,2633.59 4567.71,2641.86 4581.95,2657.58 4587.75,2667.53 4591.92,2678.18 4594.79,2692.63 4593.85,2713.56 4587.75,2732.47 4578.12,2747.7 4568.73,2757.27 4559.35,2763.97 4523.63,2780.44 4495.15,2800 4518.11,2816.2 4532.84,2824.32 4555.39,2833.59 4571.78,2845.62 4581.95,2857.58 4589.41,2871.39 4593.85,2886.44 4595.06,2902.1 4593,2917.66 4589.41,2928.61 4586.29,2935.43 4578.12,2947.7 4567.71,2958.14 4555.47,2966.36 4541.85,2972.04 4527.38,2974.93 4512.62,2974.93 4498.14,2972.04 4484.22,2966.19 4465.19,2952.78 4457.56,2951.77 4198.3,2951.49 4185.46,2952.88 4173.03,2964.01 4144.41,2983.2 4126.41,3000 4113.58,3000 4095.58,3016.8 4065.99,3036.87 4055.79,3047.3 4046.76,3060.85 4039.29,3080.7 4037.06,3097.9 4039.29,3119.3 4046.76,3139.14 4055.79,3152.69 4067.28,3164.23 4080.28,3173.02 4092.36,3178.27 4111.84,3182.79 4126.58,3182.82 4144.14,3179.58 4159.18,3173.31 4174,3163.13 4185.92,3150.49 4194.95,3135.67 4200.7,3119.3 4202.94,3102.1 4200.7,3080.7 4193.23,3060.85 4184.21,3047.3 4174,3036.87 4148.49,3019.8 4126.41,3000 4113.58,3000 4091.5,2980.19 4065.99,2963.13 4051.68,2947.05 4045.05,2935.67 4040.55,2924.1 4037.06,2902.1 4037.38,2891.86 4040.55,2875.89 4045.05,2864.33 4051.68,2852.95 4067.34,2835.72 4095.58,2816.8 4113.58,2800 4495.15,2800 4523.63,2780.44 4559.35,2763.97 4568.73,2757.27 4579.55,2745.86 4586.29,2735.43 4591.92,2721.81 4594.79,2707.36 4595.06,2697.9 4593,2682.34 4589.41,2671.39 4579.55,2654.14 4567.71,2641.86 4555.39,2633.59 4525.76,2620.74 4495.15,2600 4523.63,2580.44 4555.19,2566.51 4571.78,2554.37 4581.95,2542.42 4589.41,2528.61 4593.85,2513.56 4595.06,2497.9 4593,2482.34 4589.41,2471.39 4586.29,2464.56 4578.12,2452.3 4567.71,2441.86 4555.47,2433.64 4541.85,2427.96 4527.38,2425.06 4512.62,2425.06 4498.14,2427.96 4484.22,2433.81 4465.19,2447.21 4457.57,2448.22 4198.3,2448.5 4185.52,2446.98 4172.82,2435.84 4144.42,2416.77 4126.41,2400 4113.58,2400 4091.5,2380.19 4065.99,2363.13 4051.68,2347.05 4045.05,2335.67 4039.29,2319.3 4037.38,2308.13 4037.38,2291.86 4040.55,2275.9 4046.76,2260.85 4054.08,2249.5 4066.98,2234.48 4068.5,2221.61 4068.4,2176.26 4067.04,2165.49 4051.68,2147.05 4045.05,2135.67 4040.55,2124.1 4037.06,2102.1 4039.29,2080.7 4046.76,2060.85 4055.79,2047.3 4065.99,2036.87 4095.58,2016.8 4113.58,2000 4126.41,2000 4113.58,2000 4091.5,1980.19 4065.99,1963.13 4051.68,1947.05 4045.05,1935.67 4040.55,1924.1 4037.38,1908.13 4037.38,1891.86 4039.29,1880.7 4043.39,1868.19 4051.68,1852.95 4062.94,1839.76 4095.58,1816.8 4113.58,1800 4205.32,1800 4229.5,1789.73 4260.03,1773.25 4266.01,1769.67 4282.87,1743.2 4284.77,1723.95 4285.46,1689.22 4282.46,1654.14 4275.45,1617.84 4269.89,1597.54 4269.81,1562.21 4261.07,1541.25 4176.52,1456.64 4120.09,1448.74 4105.08,1450.83 4091.35,1457.13 4079.59,1468.28 4072.62,1480.38 4070.84,1485.71 4068.84,1495.48 4067.64,1631.65 4067.07,1634.47 4054.08,1649.5 4045.05,1664.33 4039.29,1680.7 4037.06,1697.9 4037.38,1708.13 4040.55,1724.1 4046.76,1739.14 4054.08,1750.49 4067.34,1764.27 4091.5,1780.19 4113.58,1800" style="stroke:rgb(103,198,105);stroke-width:0.000000;fill:none;stroke-opacity:0.5;stroke-linecap:round;stroke-linejoin:round;;fill:none"/>
<polyline points="4176.52,1456.64 4173.69,1430.46 4168.89,1406.14 4169,1393.85 4172.8,1379.9 4177.08,1371.32 4191.32,1357.08 4199.9,1352.8 4215.49,1348.8 4319.04,1348.33 4330.03,1349.54 4339.7,1352.42 4356.5,1363.5 4457.78,1464.99 4462.92,1471.32 4467.41,1480.36 4470.63,1489.93 4471.37,1501 4471.23,1803.93 4467.69,1819.75 4456.5,1836.5 4357.23,1935.83 4346.11,1944.32 4339.03,1947.76 4320,1951.62 4196.77,1951.56 4185.51,1952.99 4172.82,1964.15 4144.41,1983.2 4126.41,2000 4144.42,2016.77 4172.51,2035.6 4184.21,2047.3 4193.23,2060.85 4200.7,2080.7 4202.94,2102.1 4199.45,2124.1 4194.95,2135.67 4188.32,2147.05 4172.96,2165.49 4171.59,2176.26 4171.5,2221.61 4172.97,2234.5 4188.32,2252.95 4194.95,2264.33 4199.45,2275.9 4202.62,2291.86 4202.62,2308.13 4199.45,2324.1 4194.95,2335.67 4185.92,2350.49 4177.05,2360.23 4144.41,2383.2 4126.41,2400 4113.58,2400 4095.58,2416.8 4067.34,2435.72 4054.08,2449.5 4043.39,2468.19 4038.45,2484.8 4037.06,2502.1 4040.55,2524.1 4046.76,2539.14 4055.79,2552.69 4065.99,2563.13 4091.5,2580.19 4113.58,2600 4095.58,2616.8 4065.99,2636.87 4055.79,2647.3 4046.76,2660.85 4040.55,2675.89 4037.38,2691.86 4037.38,2708.13 4040.55,2724.1 4046.76,2739.14 4054.08,2750.49 4062.94,2760.23 4076.67,2770.83 4091.5,2780.19 4113.58,2800 4091.5,2780.19 4067.34,2764.27 4055.79,2752.69 4046.76,2739.14 4043.39,2731.81 4039.29,2719.3 4037.06,2702.1 4037.38,2691.86 4040.55,2675.89 4046.76,2660.85 4054.08,2649.5 4067.34,2635.72 4095.58,2616.8 4113.58,2600 4495.15,2600 4525.76,2620.74 4555.39,2633.59 4567.71,2641.86 4581.95,2657.58 4587.75,2667.53 4591.92,2678.18 4594.79,2692.63 4593.85,2713.56 4587.75,2732.47 4578.12,2747.7 4568.73,2757.27 4559.35,2763.97 4523.63,2780.44 4495.15,2800 4518.11,2816.2 4532.84,2824.32 4555.39,2833.59 4571.78,2845.62 4581.95,2857.58 4589.41,2871.39 4593.85,2886.44 4595.06,2902.1 4593,2917.66 4589.41,2928.61 4586.29,2935.43 4578.12,2947.7 4567.71,2958.14 4555.47,2966.36 4541.85,2972.04 4527.38,2974.93 4512.62,2974.93 4498.14,2972.04 4484.22,2966.19 4465.19,2952.78 4457.56,2951.77 4198.3,2951.49 4185.46,2952.88 4173.03,2964.01 4144.41,2983.2 4126.41,3000 4113.58,3000 4095.58,3016.8 4065.99,3036.87 4055.79,3047.3 4046.76,3060.85 4039.29,3080.7 4037.06,3097.9 4039.29,3119.3 4046.76,3139.14 4055.79,3152.69 4067.28,3164.23 4080.28,3173.02 4092.36,3178.27 4111.84,3182.79 4126.58,3182.82 4144.14,3179.58 4159.18,3173.31 4174,3163.13 4185.92,3150.49 4194.95,3135.67 4200.7,3119.3 4202.94,3102.1 4200.7,3080.7 4193.23,3060.85 4184.21,3047.3 4174,3036.87 4148.49,3019.8 4126.41,3000 4113.58,3000 4091.5,2980.19 4065.99,2963.13 4051.68,2947.05 4045.05,2935.67 4040.55,2924.1 4037.06,2902.1 4037.38,2891.86 4040.55,2875.89 4045.05,2864.33 4051.68,2852.95 4067.34,2835.72 4095.58,2816.8 4113.58,2800 4495.15,2800 4523.63,2780.44 4559.35,2763.97 4568.73,2757.27 4579.55,2745.86 4586.29,2735.43 4591.92,2721.81 4594.79,2707.36 4595.06,2697.9 4593,2682.34 4589.41,2671.39 4579.55,2654.14 4567.71,2641.86 4555.39,2633.59 4525.76,2620.74 4495.15,2600 4523.63,2580.44 4555.19,2566.51 4571.78,2554.37 4581.95,2542.42 4589.41,2528.61 4593.85,2513.56 4595.06,2497.9 4593,2482.34 4589.41,2471.39 4586.29,2464.56 4578.12,2452.3 4567.71,2441.86 4555.47,2433.64 4541.85,2427.96 4527.38,2425.06 4512.62,2425.06 4498.14,2427.96 4484.22,2433.81 4465.19,2447.21 4457.57,2448.22 4198.3,2448.5 4185.52,2446.98 4172.82,2435.84 4144.42,2416.77 4126.41,2400 4113.58,2400 4091.5,2380.19 4065.99,2363.13 4051.68,2347.05 4045.05,2335.67 4039.29,2319.3 4037.38,2308.13 4037.38,2291.86 4040.55,2275.9 4046.76,2260.85 4054.08,2249.5 4066.98,2234.48 4068.5,2221.61 4068.4,2176.26 4067.04,2165.49 4051.68,2147.05 4045.05,2135.67 4040.55,2124.1 4037.06,2102.1 4039.29,2080.7 4046.76,2060.85 4055.79,2047.3 4065.99,2036.87 4095.58,2016.8 4113.58,2000 4126.41,2000 4113.58,2000 4091.5,1980.19 4065.99,1963.13 4051.68,1947.05 4045.05,1935.67 4040.55,1924.1 4037.38,1908.13 4037.38,1891.86 4039.29,1880.7 4043.39,1868.19 4051.68,1852.95 4062.94,1839.76 4095.58,1816.8 4113.58,1800 4205.32,1800 4229.5,1789.73 4260.03,1773.25 4266.01,1769.67 4282.87,1743.2 4284.77,1723.95 4285.46,1689.22 4282.46,1654.14 4275.45,1617.84 4269.89,1597.54 4269.81,1562.21 4261.07,1541.25 4176.52,1456.64 4120.09,1448.74 4105.08,1450.83 4091.35,1457.13 4079.59,1468.28 4072.62,1480.38 4070.84,1485.71 4068.84,1495.48 4067.64,1631.65 4067.07,1634.47 4054.08,1649.5 4045.05,1664.33 4039.29,1680.7 4037.06,1697.9 4037.38,1708.13 4040.55,1724.1 4046.76,1739.14 4054.08,1750.49 4067.34,1764.27 4091.5,1780.19 4113.58,1800" style="stroke:rgb(0,0,0);stroke-width:1px;fill:none;stroke-opacity:1;stroke-linecap:round;stroke-linejoin:round;;fill:none"/>
<polyline points="4869.91,3872.07 4894.74,3847.24 4904.23,3850.02 4914.09,3874.87 4917.06,3894.93 4916.07,3915.2 4911.13,3934.88 4903.95,3950.05 4894.74,3952.76 4869.91,3927.93 4875.32,3913.1 4876.69,3900 4875.32,3886.9 4869.91,3872.07" style="stroke:rgb(103,198,105);stroke-width:0.000000;fill:none;stroke-opacity:0.5;stroke-linecap:round;stroke-linejoin:round;;fill:none"/>
<polyline points="4869.91,3872.07 4894.74,3847.24 4904.23,3850.02 4914.09,3874.87 4917.06,3894.93 4916.07,3915.2 4911.13,3934.88 4903.95,3950.05 4894.74,3952.76 4869.91,3927.93 4875.32,3913.1 4876.69,3900 4875.32,3886.9 4869.91,3872.07" style="stroke:rgb(0,0,0);stroke-width:1px;fill:none;stroke-opacity:1;stroke-linecap:round;stroke-linejoin:round;;fill:none"/>
<polyline points="4760.94,3818.96 4785.82,3843.84 4794.23,3840.09 4807.12,3837.35 4820.28,3837.35 4833.17,3840.09 4841.58,3843.84 4866.46,3818.96 4863.75,3809.74 4848.58,3802.56 4828.9,3797.63 4808.64,3796.63 4788.57,3799.6 4769.23,3806.52 4763.73,3809.46 4760.94,3818.96" style="stroke:rgb(103,198,105);stroke-width:0.000000;fill:none;stroke-opacity:0.5;stroke-linecap:round;stroke-linejoin:round;;fill:none"/>
<polyline points="4760.94,3818.96 4785.82,3843.84 4794.23,3840.09 4807.12,3837.35 4820.28,3837.35 4833.17,3840.09 4841.58,3843.84 4866.46,3818.96 4863.75,3809.74 4848.58,3802.56 4828.9,3797.63 4808.64,3796.63 4788.57,3799.6 4769.23,3806.52 4763.73,3809.46 4760.94,3818.96" style="stroke:rgb(0,0,0);stroke-width:1px;fill:none;stroke-opacity:1;stroke-linecap:round;stroke-linejoin:round;;fill:none"/>
<polyline points="4710.33,3905.06 4713.31,3925.12 4720.22,3944.46 4723.16,3949.97 4732.66,3952.76 4757.49,3927.93 4752.08,3913.1 4750.71,3900 4752.08,3886.9 4757.49,3872.07 4732.66,3847.24 4723.44,3849.94 4716.26,3865.11 4711.33,3884.8 4710.33,3905.06" style="stroke:rgb(103,198,105);stroke-width:0.000000;fill:none;stroke-opacity:0.5;stroke-linecap:round;stroke-linejoin:round;;fill:none"/>
<polyline points="4710.33,3905.06 4713.31,3925.12 4720.22,3944.46 4723.16,3949.97 4732.66,3952.76 4757.49,3927.93 4752.08,3913.1 4750.71,3900 4752.08,3886.9 4757.49,3872.07 4732.66,3847.24 4723.44,3849.94 4716.26,3865.11 4711.33,3884.8 4710.33,3905.06" style="stroke:rgb(0,0,0);stroke-width:1px;fill:none;stroke-opacity:1;stroke-linecap:round;stroke-linejoin:round;;fill:none"/>
<polyline points="4760.94,3981.04 4785.82,3956.16 4794.23,3959.91 4807.12,3962.65 4820.28,3962.65 4833.17,3959.91 4841.58,3956.16 4866.46,3981.04 4863.67,3990.53 4858.16,3993.48 4838.83,4000.39 4818.76,4003.36 4798.5,4002.36 4778.82,3997.43 4763.64,3990.25 4760.94,3981.04" style="stroke:rgb(103,198,105);stroke-width:0.000000;fill:none;stroke-opacity:0.5;stroke-linecap:round;stroke-linejoin:round;;fill:none"/>
<polyline points="4760.94,3981.04 4785.82,3956.16 4794.23,3959.91 4807.12,3962.65 4820.28,3962.65 4833.17,3959.91 4841.58,3956.16 4866.46,3981.04 4863.67,3990.53 4858.16,3993.48 4838.83,4000.39 4818.76,4003.36 4798.5,4002.36 4778.82,3997.43 4763.64,3990.25 4760.94,3981.04" style="stroke:rgb(0,0,0);stroke-width:1px;fill:none;stroke-opacity:1;stroke-linecap:round;stroke-linejoin:round;;fill:none"/>
<polyline points="4716.34,4868.06 4739.45,4891.17 4754.89,4883.53 4767.96,4857.86 4776.41,4827.88 4778.84,4796.83 4775.17,4765.9 4765.5,4736.18 4754.99,4716.51 4739.45,4708.83 4716.34,4731.94 4727.9,4751.96 4735.53,4775.44 4738.11,4800 4735.53,4824.56 4727.9,4848.04 4716.34,4868.06" style="stroke:rgb(103,198,105);stroke-width:0.000000;fill:none;stroke-opacity:0.5;stroke-linecap:round;stroke-linejoin:round;;fill:none"/>
<polyline points="4716.34,4868.06 4739.45,4891.17 4754.89,4883.53 4767.96,4857.86 4776.41,4827.88 4778.84,4796.83 4775.17,4765.9 4765.5,4736.18 4754.99,4716.51 4739.45,4708.83 4716.34,4731.94 4727.9,4751.96 4735.53,4775.44 4738.11,4800 4735.53,4824.56 4727.9,4848.04 4716.34,4868.06" style="stroke:rgb(0,0,0);stroke-width:1px;fill:none;stroke-opacity:1;stroke-linecap:round;stroke-linejoin:round;;fill:none"/>
<polyline points="4528.83,4919.45 4552.29,4895.99 4560.94,4902.29 4583.5,4912.33 4607.65,4917.46 4632.34,4917.46 4656.5,4912.33 4679.05,4902.29 4687.71,4896 4711.17,4919.45 4703.48,4934.99 4683.81,4945.5 4654.1,4955.17 4623.17,4958.84 4592.12,4956.41 4562.14,4947.96 4536.46,4934.89 4528.83,4919.45" style="stroke:rgb(103,198,105);stroke-width:0.000000;fill:none;stroke-opacity:0.5;stroke-linecap:round;stroke-linejoin:round;;fill:none"/>
<polyline points="4528.83,4919.45 4552.29,4895.99 4560.94,4902.29 4583.5,4912.33 4607.65,4917.46 4632.34,4917.46 4656.5,4912.33 4679.05,4902.29 4687.71,4896 4711.17,4919.45 4703.48,4934.99 4683.81,4945.5 4654.1,4955.17 4623.17,4958.84 4592.12,4956.41 4562.14,4947.96 4536.46,4934.89 4528.83,4919.45" style="stroke:rgb(0,0,0);stroke-width:1px;fill:none;stroke-opacity:1;stroke-linecap:round;stroke-linejoin:round;;fill:none"/>
<polyline points="4461.16,4803.17 4464.83,4834.1 4474.49,4863.81 4485,4883.48 4500.55,4891.17 4523.66,4868.06 4512.1,4848.04 4504.47,4824.56 4501.89,4800 4504.47,4775.44 4512.1,4751.96 4523.66,4731.94 4500.55,4708.83 4485.1,4716.46 4472.03,4742.14 4463.59,4772.12 4461.16,4803.17" style="stroke:rgb(103,198,105);stroke-width:0.000000;fill:none;stroke-opacity:0.5;stroke-linecap:round;stroke-linejoin:round;;fill:none"/>
<polyline points="4461.16,4803.17 4464.83,4834.1 4474.49,4863.81 4485,4883.48 4500.55,4891.17 4523.66,4868.06 4512.1,4848.04 4504.47,4824.56 4501.89,4800 4504.47,4775.44 4512.1,4751.96 4523.66,4731.94 4500.55,4708.83 4485.1,4716.46 4472.03,4742.14 4463.59,4772.12 4461.16,4803.17" style="stroke:rgb(0,0,0);stroke-width:1px;fill:none;stroke-opacity:1;stroke-linecap:round;stroke-linejoin:round;;fill:none"/>
<polyline points="4528.83,4680.55 4552.29,4704 4560.94,4697.71 4583.5,4687.67 4607.65,4682.54 4632.34,4682.54 4656.5,4687.67 4679.05,4697.71 4687.71,4704 4711.17,4680.55 4703.53,4665.1 4677.86,4652.03 4647.88,4643.59 4616.83,4641.16 4585.9,4644.83 4556.19,4654.49 4536.51,4665 4528.83,4680.55" style="stroke:rgb(103,198,105);stroke-width:0.000000;fill:none;stroke-opacity:0.5;stroke-linecap:round;stroke-linejoin:round;;fill:none"/>
<polyline points="4528.83,4680.55 4552.29,4704 4560.94,4697.71 4583.5,4687.67 4607.65,4682.54 4632.34,4682.54 4656.5,4687.67 4679.05,4697.71 4687.71,4704 4711.17,4680.55 4703.53,4665.1 4677.86,4652.03 4647.88,4643.59 4616.83,4641.16 4585.9,4644.83 4556.19,4654.49 4536.51,4665 4528.83,4680.55" style="stroke:rgb(0,0,0);stroke-width:1px;fill:none;stroke-opacity:1;stroke-linecap:round;stroke-linejoin:round;;fill:none"/>
<polyline points="3340,3540.33 3340,3505.88 3348.34,3501.33 3364.04,3506.95 3381.34,3517.33 3396.29,3530.89 3408.31,3547.1 3418.81,3571.39 3414.08,3580 3379.37,3580 3377.55,3574.38 3370.96,3562.97 3362.15,3553.19 3351.5,3545.45 3340,3540.33" style="stroke:rgb(103,198,105);stroke-width:0.000000;fill:none;stroke-opacity:0.5;stroke-linecap:round;stroke-linejoin:round;;fill:none"/>
<polyline points="3340,3540.33 3340,3505.88 3348.34,3501.33 3364.04,3506.95 3381.34,3517.33 3396.29,3530.89 3408.31,3547.1 3418.81,3571.39 3414.08,3580 3379.37,3580 3377.55,3574.38 3370.96,3562.97 3362.15,3553.19 3351.5,3545.45 3340,3540.33" style="stroke:rgb(0,0,0);stroke-width:1px;fill:none;stroke-opacity:1;stroke-linecap:round;stroke-linejoin:round;;fill:none"/>
<polyline points="3037.06,3102.1 3039.29,3119.3 3043.39,3131.81 3046.76,3139.14 3055.79,3152.69 3067.28,3164.23 3080.81,3173.31 3095.86,3179.58 3111.84,3182.79 3128.15,3182.79 3144.14,3179.58 3163.3,3170.79 3185.52,3153.02 3198.3,3151.5 3497.64,3151.5 3509.51,3152.82 3517.4,3158.97 4294.16,3935.83 4302.88,3942.67 4312.19,3947.94 4333.29,3954.76 4335.75,3962.99 4342.17,3976.42 4350.28,3981.84 4358.43,3983.11 4482.99,3982.72 4486.81,3982.53 4494.92,3979.06 4501.84,3969.72 4502.72,3962.99 4503.11,3838.42 4501.84,3830.27 4497.06,3822.93 4489.72,3818.16 4481.51,3816.88 4358.48,3816.88 4353.03,3817.35 4335.62,3825.02 4317.55,3813.21 3619.73,3115.52 3613.08,3107.4 3606,3094.3 3613.08,3081.2 3619.76,3073.06 3756.5,2936.5 3762.77,2928.58 3767.23,2920.53 3771.18,2904.93 3771.57,1307.82 3775.8,1287.3 3794.13,1279.66 3797.16,1277.17 3799.87,1273.84 3807.19,1255.69 3829.64,1251.5 4619.01,1251.67 4630.07,1250.63 4639.18,1247.57 4651.44,1240.63 4666.63,1229.81 4706.24,1237.76 4733.57,1237.77 4760.16,1232.41 4785.19,1221.97 4807.7,1206.86 4826.82,1187.67 4841.84,1165.12 4852.18,1140.09 4857.45,1113.53 4857.45,1086.46 4852.18,1059.9 4841.84,1034.87 4826.82,1012.33 4810.91,995.878 4790.89,981.422 4760.16,967.586 4733.56,962.228 4706.43,962.228 4679.27,967.76 4652.7,979.19 4629.09,995.878 4609.47,1017.09 4594.69,1041.91 4585.38,1069.24 4582.55,1086.38 4583.01,1119.91 4581.45,1141.4 4564.94,1146.94 4554.02,1148.42 3826.05,1148.17 3807.3,1144.19 3799.66,1125.86 3797.16,1122.83 3794.12,1120.33 3774.76,1113.29 3764.78,1086.19 3755.83,1074.15 3277.84,595.862 3272.68,589.568 3271.83,524.774 3276.79,504.036 3303,497.102 3308.46,493.55 3327.79,458.802 3321.47,427.51 3320.03,401.966 3321.47,372.486 3327.81,341.132 3320.7,329.526 3312.3,311.144 3306.06,304.708 3298.83,301.722 3145,301.208 3138.26,302.412 3130.16,307.826 3125.46,317.422 3125.33,482.65 3130.92,492.81 3137.94,497.418 3163.2,504.036 3165.14,509.05 3168.17,524.664 3168.38,611.39 3172.31,631.142 3177.08,640.072 3184.38,648.422 3632,1096.18 3638.91,1104.68 3645.07,1115.61 3640.51,1124.54 3636.96,1137 3637.47,1266.81 3640.46,1274.05 3647.01,1280.38 3664.3,1287.19 3668.5,1309.62 3668.5,2866.24 3666.95,2878.03 3659.72,2887.46 3507.53,3039.79 3498.31,3046.89 3486.23,3048.5 3188.75,3047.65 3185.51,3047 3172.83,3035.85 3141.44,3014.86 3125.43,3000 3114.64,3000 3091.62,3020.07 3067.27,3035.78 3054.08,3049.5 3046.76,3060.85 3040.55,3075.9 3037.38,3091.86 3037.06,3102.1" style="stroke:rgb(103,198,105);stroke-width:0.000000;fill:none;stroke-opacity:0.5;stroke-linecap:round;stroke-linejoin:round;;fill:none"/>
<polyline points="3037.06,3102.1 3039.29,3119.3 3043.39,3131.81 3046.76,3139.14 3055.79,3152.69 3067.28,3164.23 3080.81,3173.31 3095.86,3179.58 3111.84,3182.79 3128.15,3182.79 3144.14,3179.58 3163.3,3170.79 3185.52,3153.02 3198.3,3151.5 3497.64,3151.5 3509.51,3152.82 3517.4,3158.97 4294.16,3935.83 4302.88,3942.67 4312.19,3947.94 4333.29,3954.76 4335.75,3962.99 4342.17,3976.42 4350.28,3981.84 4358.43,3983.11 4482.99,3982.72 4486.81,3982.53 4494.92,3979.06 4501.84,3969.72 4502.72,3962.99 4503.11,3838.42 4501.84,3830.27 4497.06,3822.93 4489.72,3818.16 4481.51,3816.88 4358.48,3816.88 4353.03,3817.35 4335.62,3825.02 4317.55,3813.21 3619.73,3115.52 3613.08,3107.4 3606,3094.3 3613.08,3081.2 3619.76,3073.06 3756.5,2936.5 3762.77,2928.58 3767.23,2920.53 3771.18,2904.93 3771.57,1307.82 3775.8,1287.3 3794.13,1279.66 3797.16,1277.17 3799.87,1273.84 3807.19,1255.69 3829.64,1251.5 4619.01,1251.67 4630.07,1250.63 4639.18,1247.57 4651.44,1240.63 4666.63,1229.81 4706.24,1237.76 4733.57,1237.77 4760.16,1232.41 4785.19,1221.97 4807.7,1206.86 4826.82,1187.67 4841.84,1165.12 4852.18,1140.09 4857.45,1113.53 4857.45,1086.46 4852.18,1059.9 4841.84,1034.87 4826.82,1012.33 4810.91,995.878 4790.89,981.422 4760.16,967.586 4733.56,962.228 4706.43,962.228 4679.27,967.76 4652.7,979.19 4629.09,995.878 4609.47,1017.09 4594.69,1041.91 4585.38,1069.24 4582.55,1086.38 4583.01,1119.91 4581.45,1141.4 4564.94,1146.94 4554.02,1148.42 3826.05,1148.17 3807.3,1144.19 3799.66,1125.86 3797.16,1122.83 3794.12,1120.33 3774.76,1113.29 3764.78,1086.19 3755.83,1074.15 3277.84,595.862 3272.68,589.568 3271.83,524.774 3276.79,504.036 3303,497.102 3308.46,493.55 3327.79,458.802 3321.47,427.51 3320.03,401.966 3321.47,372.486 3327.81,341.132 3320.7,329.526 3312.3,311.144 3306.06,304.708 3298.83,301.722 3145,301.208 3138.26,302.412 3130.16,307.826 3125.46,317.422 3125.33,482.65 3130.92,492.81 3137.94,497.418 3163.2,504.036 3165.14,509.05 3168.17,524.664 3168.38,611.39 3172.31,631.142 3177.08,640.072 3184.38,648.422 3632,1096.18 3638.91,1104.68 3645.07,1115.61 3640.51,1124.54 3636.96,1137 3637.47,1266.81 3640.46,1274.05 3647.01,1280.38 3664.3,1287.19 3668.5,1309.62 3668.5,2866.24 3666.95,2878.03 3659.72,2887.46 3507.53,3039.79 3498.31,3046.89 3486.23,3048.5 3188.75,3047.65 3185.51,3047 3172.83,3035.85 3141.44,3014.86 3125.43,3000 3114.64,3000 3091.62,3020.07 3067.27,3035.78 3054.08,3049.5 3046.76,3060.85 3040.55,3075.9 3037.38,3091.86 3037.06,3102.1" style="stroke:rgb(0,0,0);stroke-width:1px;fill:none;stroke-opacity:1;stroke-linecap:round;stroke-linejoin:round;;fill:none"/>
<polyline points="3221.19,3571.39 3231.69,3547.1 3243.7,3530.89 3258.65,3517.33 3275.96,3506.95 3291.66,3501.33 3300,3505.88 3300,3540.33 3288.5,3545.45 3277.85,3553.19 3269.04,3562.97 3262.45,3574.38 3260.63,3580 3225.92,3580 3221.19,3571.39" style="stroke:rgb(103,198,105);stroke-width:0.000000;fill:none;stroke-opacity:0.5;stroke-linecap:round;stroke-linejoin:round;;fill:none"/>
<polyline points="3221.19,3571.39 3231.69,3547.1 3243.7,3530.89 3258.65,3517.33 3275.96,3506.95 3291.66,3501.33 3300,3505.88 3300,3540.33 3288.5,3545.45 3277.85,3553.19 3269.04,3562.97 3262.45,3574.38 3260.63,3580 3225.92,3580 3221.19,3571.39" style="stroke:rgb(0,0,0);stroke-width:1px;fill:none;stroke-opacity:1;stroke-linecap:round;stroke-linejoin:round;;fill:none"/>
<polyline points="3221.19,3628.61 3225.92,3620 3260.63,3620 3262.45,3625.62 3269.04,3637.02 3277.85,3646.81 3288.5,3654.55 3300,3659.67 3300,3694.11 3291.66,3698.67 3275.96,3693.04 3258.65,3682.67 3243.7,3669.11 3231.69,3652.9 3221.19,3628.61" style="stroke:rgb(103,198,105);stroke-width:0.000000;fill:none;stroke-opacity:0.5;stroke-linecap:round;stroke-linejoin:round;;fill:none"/>
<polyline points="3221.19,3628.61 3225.92,3620 3260.63,3620 3262.45,3625.62 3269.04,3637.02 3277.85,3646.81 3288.5,3654.55 3300,3659.67 3300,3694.11 3291.66,3698.67 3275.96,3693.04 3258.65,3682.67 3243.7,3669.11 3231.69,3652.9 3221.19,3628.61" style="stroke:rgb(0,0,0);stroke-width:1px;fill:none;stroke-opacity:1;stroke-linecap:round;stroke-linejoin:round;;fill:none"/>
<polyline points="3340,3694.11 3348.34,3698.67 3364.04,3693.04 3381.34,3682.67 3396.29,3669.11 3408.31,3652.9 3417.04,3634.43 3418.81,3628.61 3414.08,3620 3379.37,3620 3377.55,3625.62 3370.96,3637.02 3362.15,3646.81 3351.5,3654.55 3340,3659.67 3340,3694.11" style="stroke:rgb(103,198,105);stroke-width:0.000000;fill:none;stroke-opacity:0.5;stroke-linecap:round;stroke-linejoin:round;;fill:none"/>
<polyline points="3340,3694.11 3348.34,3698.67 3364.04,3693.04 3381.34,3682.67 3396.29,3669.11 3408.31,3652.9 3417.04,3634.43 3418.81,3628.61 3414.08,3620 3379.37,3620 3377.55,3625.62 3370.96,3637.02 3362.15,3646.81 3351.5,3654.55 3340,3659.67 3340,3694.11" style="stroke:rgb(0,0,0);stroke-width:1px;fill:none;stroke-opacity:1;stroke-linecap:round;stroke-linejoin:round;;fill:none"/>
<polyline points="2861.65,4682.37 2861.88,4773.35 2868.53,4780 2901.89,4780 2901.89,4681.89 3000,4681.89 3000,4648.53 2993.35,4641.88 2894.05,4642.47 2886.51,4644.75 2873.47,4653.47 2864.75,4666.51 2862.47,4674.05 2861.65,4682.37" style="stroke:rgb(103,198,105);stroke-width:0.000000;fill:none;stroke-opacity:0.5;stroke-linecap:round;stroke-linejoin:round;;fill:none"/>
<polyline points="2861.65,4682.37 2861.88,4773.35 2868.53,4780 2901.89,4780 2901.89,4681.89 3000,4681.89 3000,4648.53 2993.35,4641.88 2894.05,4642.47 2886.51,4644.75 2873.47,4653.47 2864.75,4666.51 2862.47,4674.05 2861.65,4682.37" style="stroke:rgb(0,0,0);stroke-width:1px;fill:none;stroke-opacity:1;stroke-linecap:round;stroke-linejoin:round;;fill:none"/>
<polyline points="2861.65,4917.63 2861.88,4826.65 2868.53,4820 2901.89,4820 2901.89,4918.11 3000,4918.11 3000,4951.47 2993.35,4958.12 2894.05,4957.53 2886.51,4955.24 2873.47,4946.53 2864.75,4933.49 2862.47,4925.95 2861.65,4917.63" style="stroke:rgb(103,198,105);stroke-width:0.000000;fill:none;stroke-opacity:0.5;stroke-linecap:round;stroke-linejoin:round;;fill:none"/>
<polyline points="2861.65,4917.63 2861.88,4826.65 2868.53,4820 2901.89,4820 2901.89,4918.11 3000,4918.11 3000,4951.47 2993.35,4958.12 2894.05,4957.53 2886.51,4955.24 2873.47,4946.53 2864.75,4933.49 2862.47,4925.95 2861.65,4917.63" style="stroke:rgb(0,0,0);stroke-width:1px;fill:none;stroke-opacity:1;stroke-linecap:round;stroke-linejoin:round;;fill:none"/>
<polyline points="3040,4681.89 3138.11,4681.89 3138.11,4780 3171.47,4780 3178.12,4773.35 3177.53,4674.05 3175.24,4666.51 3166.53,4653.47 3153.49,4644.75 3145.95,4642.47 3137.63,4641.65 3046.65,4641.88 3040,4648.53 3040,4681.89" style="stroke:rgb(103,198,105);stroke-width:0.000000;fill:none;stroke-opacity:0.5;stroke-linecap:round;stroke-linejoin:round;;fill:none"/>
<polyline points="3040,4681.89 3138.11,4681.89 3138.11,4780 3171.47,4780 3178.12,4773.35 3177.53,4674.05 3175.24,4666.51 3166.53,4653.47 3153.49,4644.75 3145.95,4642.47 3137.63,4641.65 3046.65,4641.88 3040,4648.53 3040,4681.89" style="stroke:rgb(0,0,0);stroke-width:1px;fill:none;stroke-opacity:1;stroke-linecap:round;stroke-linejoin:round;;fill:none"/>
<polyline points="2437.06,4002.1 2439.29,4019.3 2445.05,4035.67 2454.08,4050.49 2467,4065.51 2467.64,4068.74 2468.38,4200 2469.37,4210.07 2477.08,4228.68 2682.76,4435.83 2700.24,4447.69 2720.98,4451.67 3788.19,4451.59 3798.12,4452.82 3807.46,4460.29 4074.18,4727.14 4080.4,4735.14 4081.77,4746.9 4081.77,4916.63 4083.04,4924.84 4088.45,4932.94 4098.96,4937.91 4103.37,4938.23 4336.63,4938.23 4341.03,4937.91 4350.04,4934.17 4356.95,4924.84 4358.23,4916.63 4358.23,4683.37 4356.95,4675.15 4352.18,4667.81 4344.84,4663.04 4336.63,4661.77 4166.9,4661.77 4155.14,4660.4 4147.13,4654.16 3857.23,4364.16 3839.75,4352.31 3819.01,4348.33 2751.81,4348.4 2741.88,4347.18 2732.49,4339.66 2572.68,4178.18 2571.56,4076.87 2572.35,4068.74 2573,4065.51 2585.92,4050.49 2594.95,4035.67 2600.7,4019.3 2602.94,4002.1 2602.62,3991.86 2599.45,3975.89 2593.23,3960.85 2584.2,3947.3 2574,3936.87 2563.3,3929.2 2544.14,3920.41 2526.58,3917.18 2511.84,3917.21 2495.85,3920.41 2476.7,3929.2 2465.99,3936.87 2454.08,3949.5 2446.76,3960.85 2440.55,3975.89 2437.38,3991.86 2437.06,4002.1" style="stroke:rgb(103,198,105);stroke-width:0.000000;fill:none;stroke-opacity:0.5;stroke-linecap:round;stroke-linejoin:round;;fill:none"/>
<polyline points="2437.06,4002.1 2439.29,4019.3 2445.05,4035.67 2454.08,4050.49 2467,4065.51 2467.64,4068.74 2468.38,4200 2469.37,4210.07 2477.08,4228.68 2682.76,4435.83 2700.24,4447.69 2720.98,4451.67 3788.19,4451.59 3798.12,4452.82 3807.46,4460.29 4074.18,4727.14 4080.4,4735.14 4081.77,4746.9 4081.77,4916.63 4083.04,4924.84 4088.45,4932.94 4098.96,4937.91 4103.37,4938.23 4336.63,4938.23 4341.03,4937.91 4350.04,4934.17 4356.95,4924.84 4358.23,4916.63 4358.23,4683.37 4356.95,4675.15 4352.18,4667.81 4344.84,4663.04 4336.63,4661.77 4166.9,4661.77 4155.14,4660.4 4147.13,4654.16 3857.23,4364.16 3839.75,4352.31 3819.01,4348.33 2751.81,4348.4 2741.88,4347.18 2732.49,4339.66 2572.68,4178.18 2571.56,4076.87 2572.35,4068.74 2573,4065.51 2585.92,4050.49 2594.95,4035.67 2600.7,4019.3 2602.94,4002.1 2602.62,3991.86 2599.45,3975.89 2593.23,3960.85 2584.2,3947.3 2574,3936.87 2563.3,3929.2 2544.14,3920.41 2526.58,3917.18 2511.84,3917.21 2495.85,3920.41 2476.7,3929.2 2465.99,3936.87 2454.08,3949.5 2446.76,3960.85 2440.55,3975.89 2437.38,3991.86 2437.06,4002.1" style="stroke:rgb(0,0,0);stroke-width:1px;fill:none;stroke-opacity:1;stroke-linecap:round;stroke-linejoin:round;;fill:none"/>
<polyline points="368.696,5103.94 368.81,5094.95 371.49,5082.99 374.536,5075.7 380.148,5067.29 388.596,5059.35 400.748,5052.22 409.944,5049.45 419.498,5048.49 436.998,5051.41 452.632,5060.23 532.54,5139.71 541.97,5146.95 553.756,5148.5 2988.19,5148.4 2998.12,5147.18 3007.45,5139.71 3157.61,4989.56 3164.98,4980.35 3172.47,4965.1 3175.34,4955.64 3194.44,4948.51 3206.64,4940.26 3281.28,4865.51 3289.72,4853.32 3284.53,4826.65 3281.94,4802.1 3282.54,4786.46 3287.81,4759.9 3298.16,4734.87 3313.17,4712.33 3329.09,4695.88 3349.11,4681.42 3379.27,4667.76 3406.43,4662.23 3436.55,4662.73 3460.73,4667.76 3485.19,4678.03 3510.91,4695.88 3526.82,4712.33 3532.93,4720.54 3541.84,4734.87 3546.97,4745.76 3554.62,4769.24 3557.45,4786.46 3558.05,4802.1 3555.46,4826.65 3552.18,4840.1 3546.97,4854.23 3541.84,4865.13 3530.52,4882.9 3510.91,4904.12 3485.19,4921.97 3460.73,4932.23 3436.55,4937.27 3406.39,4937.76 3366.93,4930.08 3361.15,4933.55 3353.14,4939.77 3057.23,5235.84 3039.75,5247.69 3023.93,5251.23 520,5251.62 500.242,5247.69 482.778,5235.85 380.934,5133.49 372.362,5119.73 368.696,5103.94" style="stroke:rgb(103,198,105);stroke-width:0.000000;fill:none;stroke-opacity:0.5;stroke-linecap:round;stroke-linejoin:round;;fill:none"/>
<polyline points="368.696,5103.94 368.81,5094.95 371.49,5082.99 374.536,5075.7 380.148,5067.29 388.596,5059.35 400.748,5052.22 409.944,5049.45 419.498,5048.49 436.998,5051.41 452.632,5060.23 532.54,5139.71 541.97,5146.95 553.756,5148.5 2988.19,5148.4 2998.12,5147.18 3007.45,5139.71 3157.61,4989.56 3164.98,4980.35 3172.47,4965.1 3175.34,4955.64 3194.44,4948.51 3206.64,4940.26 3281.28,4865.51 3289.72,4853.32 3284.53,4826.65 3281.94,4802.1 3282.54,4786.46 3287.81,4759.9 3298.16,4734.87 3313.17,4712.33 3329.09,4695.88 3349.11,4681.42 3379.27,4667.76 3406.43,4662.23 3436.55,4662.73 3460.73,4667.76 3485.19,4678.03 3510.91,4695.88 3526.82,4712.33 3532.93,4720.54 3541.84,4734.87 3546.97,4745.76 3554.62,4769.24 3557.45,4786.46 3558.05,4802.1 3555.46,4826.65 3552.18,4840.1 3546.97,4854.23 3541.84,4865.13 3530.52,4882.9 3510.91,4904.12 3485.19,4921.97 3460.73,4932.23 3436.55,4937.27 3406.39,4937.76 3366.93,4930.08 3361.15,4933.55 3353.14,4939.77 3057.23,5235.84 3039.75,5247.69 3023.93,5251.23 520,5251.62 500.242,5247.69 482.778,5235.85 380.934,5133.49 372.362,5119.73 368.696,5103.94" style="stroke:rgb(0,0,0);stroke-width:1px;fill:none;stroke-opacity:1;stroke-linecap:round;stroke-linejoin:round;;fill:none"/>
</svg>
